<?xml version="1.0" encoding="UTF-8"?>
<svg id="Layer_1" xmlns="http://www.w3.org/2000/svg" version="1.1" viewBox="0 0 176.9 235.5">
  <!-- Generator: Adobe Illustrator 29.2.1, SVG Export Plug-In . SVG Version: 2.1.0 Build 116)  -->
  <defs>
    <style>
      .st0 {
        fill: none;
      }

      .st1 {
        fill-rule: evenodd;
      }
    </style>
  </defs>
  <path class="st1" d="M21.9,110.5l44.8,21.8c5.1,2.5,7.2,8.6,4.7,13.7-1.3,2.7-3.8,4.7-6.7,5.5l-48.3,12c-5.5,1.4-11.1-2-12.5-7.5-.1-.4-.2-.9-.2-1.3-1.5-12.9-.1-26,4-38.3,1.8-5.4,7.6-8.2,13-6.4.4.1.8.3,1.2.5Z"/>
  <path class="st1" d="M39.8,202.6l33.3-37c3.8-4.2,10.3-4.6,14.5-.8,2.3,2,3.5,5,3.4,8l-1.7,49.8c-.2,5.7-5,10.1-10.6,9.9-.4,0-.9,0-1.3-.1-12.8-2.2-25-7.1-35.7-14.4-4.7-3.2-5.9-9.6-2.6-14.3.3-.4.5-.7.8-1.1Z"/>
  <path class="st1" d="M118.8,153.4l47.4,15.4c5.4,1.8,8.3,7.5,6.6,12.9-.1.4-.3.8-.5,1.2-5.6,11.7-13.7,22.1-23.7,30.3-4.4,3.6-10.9,3-14.5-1.4-.3-.3-.5-.7-.8-1.1l-26.4-42.2c-3-4.8-1.5-11.1,3.3-14.1,2.6-1.6,5.7-2,8.6-1.1Z"/>
  <path class="st1" d="M166.9,123.2l-47.9,13.7c-5.4,1.6-11.1-1.6-12.7-7-.8-2.9-.3-6.1,1.4-8.6l27.9-41.3c3.2-4.7,9.5-5.9,14.2-2.8.4.2.7.5,1,.8,9.7,8.6,17.5,19.2,22.7,31.1,2.3,5.2-.1,11.3-5.3,13.5-.4.2-.8.3-1.3.5Z"/>
  <path class="st1" d="M55.1,7c-8.5,2.3-16.7,5.3-24.6,9.1-5.1,2.4-7.3,8.6-4.8,13.7.1.2.2.5.4.7l46.8,81c2.8,4.9,9.1,6.6,14,3.8,3.2-1.8,5.1-5.2,5.1-8.9V12.8c0-5.7-4.6-10.3-10.2-10.3-.3,0-.5,0-.8,0-8.7.7-17.4,2.2-25.8,4.5Z"/>
  <rect id="_Transparent_Rectangle_" class="st0" x="-65.3" y="-35.6" width="306.7" height="306.7"/>
</svg>