<?xml version="1.0" encoding="UTF-8"?>
<svg id="Layer_0_xA0_Image" xmlns="http://www.w3.org/2000/svg" version="1.1" viewBox="0 0 1498.9 360.2">
  <!-- Generator: Adobe Illustrator 29.2.1, SVG Export Plug-In . SVG Version: 2.1.0 Build 116)  -->
  <defs>
    <style>
      .st0 {
        fill: #f5f6f7;
      }

      .st1 {
        fill: #6887c5;
      }

      .st2 {
        fill: #537374;
      }

      .st3 {
        fill: #a0792c;
      }

      .st4 {
        fill: #282320;
      }

      .st5 {
        fill: #7492ca;
      }

      .st6 {
        fill: #7694cb;
      }

      .st7 {
        fill: #1b1818;
      }

      .st8 {
        fill: #fdfdfe;
      }

      .st9 {
        fill: #cbccce;
      }

      .st10 {
        fill: #6787c5;
      }

      .st11 {
        fill: #6889c6;
      }

      .st12 {
        fill: #6687c5;
      }

      .st13 {
        fill: #978824;
      }

      .st14 {
        fill: #403d3e;
      }

      .st15 {
        fill: #7c5f28;
      }

      .st16 {
        fill: #6788c6;
      }

      .st17 {
        fill: #2d2920;
      }

      .st18 {
        fill: #312e2f;
      }

      .st19 {
        fill: #6888c6;
      }

      .st20 {
        fill: #adaeb2;
      }

      .st21 {
        fill: #373435;
      }

      .st22 {
        fill: #6988c5;
      }

      .st23 {
        fill: #d7dadc;
      }

      .st24 {
        fill: #353233;
      }

      .st25 {
        fill: #6786c5;
      }

      .st26 {
        fill: #f8f9fb;
      }

      .st27 {
        fill: #191819;
      }

      .st28 {
        fill: #7895cc;
      }

      .st29 {
        fill: #363233;
      }

      .st30 {
        fill: #433e3f;
      }

      .st31 {
        fill: #bcc1ca;
      }

      .st32 {
        fill: #231f20;
      }

      .st33 {
        fill: #7896cc;
      }

      .st34 {
        fill: #423523;
      }

      .st35 {
        fill: #c8c9cb;
      }

      .st36 {
        fill: #675027;
      }

      .st37 {
        fill: #2a2420;
      }

      .st38 {
        fill: #6586c3;
      }

      .st39 {
        fill: #c2c3c5;
      }

      .st40 {
        fill: #6888c4;
      }

      .st41 {
        fill: #040606;
      }

      .st42 {
        fill: #6ee5e5;
      }

      .st43 {
        fill: #1d1819;
      }

      .st44 {
        fill: #4e3f24;
      }

      .st45 {
        fill: #7392ca;
      }

      .st46 {
        fill: #554325;
      }

      .st47 {
        fill: #a6a7ab;
      }

      .st48 {
        fill: #fcfcfd;
      }

      .st49 {
        fill: #6787c4;
      }

      .st50 {
        fill: #96712b;
      }

      .st51 {
        fill: #b79f9f;
      }

      .st52 {
        fill: #69dcdc;
      }

      .st53 {
        fill: #090808;
      }

      .st54 {
        fill: #fbfcfc;
      }

      .st55 {
        fill: #d0c7c8;
      }

      .st56 {
        fill: #718cc2;
      }

      .st57 {
        fill: #3c3122;
      }

      .st58 {
        fill: #2f2c2d;
      }

      .st59 {
        fill: #cccdcf;
      }

      .st60 {
        fill: #2b2728;
      }

      .st61 {
        fill: #d6d8da;
      }

      .st62 {
        fill: #fafbfc;
      }

      .st63 {
        fill: #f8fafc;
      }

      .st64 {
        fill: #1e1b20;
      }

      .st65 {
        fill: #6989c6;
      }

      .st66 {
        fill: #fefeff;
      }

      .st67 {
        fill: #e1e7e7;
      }

      .st68 {
        fill: #475454;
      }

      .st69 {
        fill: #7593ca;
      }

      .st70 {
        fill: #68dcdc;
      }

      .st71 {
        fill: #d5d7d8;
      }

      .st72 {
        fill: #36292a;
      }

      .st73 {
        fill: #f9fafc;
      }

      .st74 {
        fill: #254389;
      }

      .st75 {
        fill: #272324;
      }

      .st76 {
        fill: #98999d;
      }

      .st77 {
        fill: #9d9ea2;
      }

      .st78 {
        fill: #333031;
      }

      .st79 {
        fill: #050707;
      }

      .st80 {
        fill: #282324;
      }

      .st81 {
        fill: #c9cacc;
      }

      .st82 {
        fill: #a1e6e8;
      }

      .st83 {
        fill: #fcfdfe;
      }

      .st84 {
        fill: #6686c5;
      }

      .st85 {
        fill: #b5b7ba;
      }

      .st86 {
        fill: #fbfbfc;
      }

      .st87 {
        fill: #b4b5b9;
      }

      .st88 {
        fill: #0f1010;
      }

      .st89 {
        fill: #6a8abe;
      }

      .st90 {
        fill: #171414;
      }

      .st91 {
        fill: #7592ca;
      }

      .st92 {
        fill: #f5f6f8;
      }

      .st93 {
        fill: #69e3e3;
      }

      .st94 {
        fill: #fff;
      }

      .st95 {
        fill: #262220;
      }

      .st96 {
        fill: #242020;
      }

      .st97 {
        fill: #e5e8eb;
      }

      .st98 {
        fill: #f9f9f9;
      }

      .st99 {
        fill: #6787c6;
      }

      .st100 {
        fill: #6587c5;
      }

      .st101 {
        fill: #040404;
      }

      .st102 {
        fill: #a5a7ab;
      }

      .st103 {
        fill: #e5e9ed;
      }

      .st104 {
        fill: #f9fbfc;
      }

      .st105 {
        fill: #7be4e4;
      }

      .st106 {
        fill: #3c3939;
      }

      .st107 {
        fill: #ebeef1;
      }

      .st108 {
        fill: #080808;
      }

      .st109 {
        fill: #21191a;
      }

      .st110 {
        fill: #363132;
      }

      .st111 {
        fill: #78e7e7;
      }

      .st112 {
        fill: #d1d2d4;
      }

      .st113 {
        fill: #c3c4c7;
      }

      .st114 {
        fill: #b3b4b8;
      }

      .st115 {
        fill: #d3d4d6;
      }

      .st116 {
        fill: #74dddd;
      }

      .st117 {
        fill: #6a8ac6;
      }

      .st118 {
        fill: #fefefe;
      }

      .st119 {
        fill: #6786c6;
      }

      .st120 {
        fill: #7b7677;
      }

      .st121 {
        fill: #6888c5;
      }

      .st122 {
        fill: #393839;
      }

      .st123 {
        fill: #8c8a80;
      }

      .st124 {
        fill: #ebe829;
      }

      .st125 {
        fill: #312d2e;
      }

      .st126 {
        fill: #3a3637;
      }

      .st127 {
        fill: #d7dce4;
      }

      .st128 {
        fill: #292526;
      }

      .st129 {
        fill: #c2c3c6;
      }

      .st130 {
        fill: #f5f7f9;
      }

      .st131 {
        fill: #403323;
      }

      .st132 {
        fill: #667e7f;
      }

      .st133 {
        fill: #70e2e2;
      }

      .st134 {
        fill: #6ce4e4;
      }

      .st135 {
        fill: #9c9ea2;
      }

      .st136 {
        fill: #433f40;
      }

      .st137 {
        fill: #0a0a0a;
      }

      .st138 {
        fill: #fbfcfd;
      }

      .st139 {
        fill: #413322;
      }

      .st140 {
        fill: #fbfbfb;
      }

      .st141 {
        fill: #6585c3;
      }

      .st142 {
        fill: #fafbfd;
      }

      .st143 {
        fill: #f6f8f9;
      }

      .st144 {
        fill: #6989c5;
      }

      .st145 {
        fill: #b4b5b8;
      }

      .st146 {
        fill: #f9fafd;
      }

      .st147 {
        fill: #f9fafb;
      }

      .st148 {
        fill: #262223;
      }

      .st149 {
        fill: #cfd0d2;
      }

      .st150 {
        fill: #140f10;
      }

      .st151 {
        fill: #352e22;
      }

      .st152 {
        fill: #3a3536;
      }

      .st153 {
        fill: #bbbcbf;
      }

      .st154 {
        fill: #6788c5;
      }

      .st155 {
        fill: #adafb3;
      }

      .st156 {
        fill: #494748;
      }

      .st157 {
        fill: #916e2a;
      }

      .st158 {
        fill: #fdfefe;
      }

      .st159 {
        fill: #dadbdd;
      }

      .st160 {
        fill: #433623;
      }

      .st161 {
        fill: #ced0d1;
      }

      .st162 {
        fill: #624d26;
      }

      .st163 {
        fill: #7593cb;
      }

      .st164 {
        fill: #6887c6;
      }

      .st165 {
        fill: #272320;
      }

      .st166 {
        fill: #5d5c5d;
      }

      .st167 {
        fill: #8c8980;
      }

      .st168 {
        fill: #f7f8f9;
      }

      .st169 {
        fill: #060707;
      }
    </style>
  </defs>
  <path class="st94" d="M1491.2,6.7v38.4c-1.3,1.2-3.3,1.6-6,1.2l-16.6-.5c-8.4-1.7-17.9,7.4-7.3,11.6l.3,1.1c0-.4.2-.9.4-1,7.3-.3,15.9-.3,23.2,0,1.9-.3,3,0,3.5,1l1,.4v28.7l-1,.6-.4,1h-26.1l-.6-1-.3,1c-8.3-.5-10.3,10.7-1.9,11.4,10.3,0,20.5.2,30.7.3l1,.7v38.4c-23.5-1.1-57.2,6.1-71.2-18.3s-4.5-11.4-5.1-17.4c4-38.8-17-94.8,40.6-97.7,11.7-.6,24,.5,35.8,0Z"/>
  <path class="st74" d="M356.1,189.9c-.5-.5-.6-1.8-.6-2.5-.5-5.8-.6-17.8,0-23.5s.8-2.5,3.1-2.6h1118c1.7,0,2.4.5,2.6,2.2.6,4.5.6,20.5,0,25s-.6,2.1-2.2,2.2H359.1c-.9,0-2.4,0-3-.6Z"/>
  <path class="st32" d="M58.9,307c-4-1.2-8.6-1.2-9.5-6.6s6-19.4,8.5-26.7c3.9-11.3,6.4-23.2,5.7-35.3-8,1.7-11.7-6-13.9-12.2s-5.8-18-.9-23.5,7.9-.9,12.8-.9,2.8-10.4,1.8-13.3c-2.1-6.2-6-14.4-8.8-20.5s-10.3-13.5-3.6-23.1,17.8-11.1,27.5-15.7,22.6-12.1,23.4-13.6-.8-5.2-1.2-5.5c-1.1-.8-5.6.6-9.1-1.9-8-5.7-3.6-17.8,1-24.3s5.9-6.6,6-7.3c.3-1.3-1.2-7.5-1.3-9.5-.5-8.3.5-19.1,4-26.7s19.5-22.2,25.5-27.7,7.6-7.2,10.2-8c3.8-1.2,21.2-1,25.7-.6s4,.7,5.3,1.5,4.7,5.4,5.4,5.6c4.8,1.5,11.3-2.7,13.8,4.9s.4,22.4-3.1,27.1-4.1,2.5-4.3,2.7.3,4,.5,4.2c.4.4,8.8,1.8,10.7,2.5,6.2,2.1,12.9,6.2,17,11.3s3.5,6.1,3.8,6.3c1.1.7,9.2-3.4,12.4,2s.1,10.2-5.6,12.6l-1.4.5c-.5.2-1-.1-1.3.8-.6,1.5-.9,4.7-1.5,6.4,5.8,1.2,11.3,3.4,16.8,5.3.6.4.5.6-.5.5-1.7-.2-3.5-.3-5.3-.5l-2.9-.5c-.2,0-.3,0-.5,0l-2.9-.5c-.3,0-1-.2-1,.2,3.1,3.2,6,6.6,9.1,9.8.6.7.4.9-.5.5-4.1-3.2-8.7-6.7-13-9.8s-2-1.6-2.3-1.2c1.2,5.1,4.5,9.8,5.8,14.9,1.1,1.6,1.4,3.5-.5,1.4-.9-1.6-6.6-12.1-7.2-12.5-.3-.2-.6-.2-1,0l-12.7,12-.7,1.4c8.1,2.5,14.7,7.9,21.4,12.8,7-2.5,17.4-4.1,24.6-1.9s8.9,12.4,11.1,18.6,8.6,19.1,7.6,26.7-2.2,6.8-3.6,9.8c5.6,19.4,12.4,39.1,18.8,58.3,7.7,23.4,15.8,46.7,23.3,70.2-1.6,9.6-8.7,17.1-15.3,23.7-.3.7-.9,1.4-1.6,2.1.6.9-.5,1.1-1.3.8.6.5.3.8-1,1,.1.5,0,.6-.5.5-.4.9-.9,1.2-1.4,1-.3.5-.6.9-1,1-.4.8-1.1,1.3-1.9,1.4.7,1.4-2.5,3.7-3.8,2.9.2,1.1-.8,1.8-2.9,1.9.2.3-.1.5-1,.5.3.9-.3,1.2-1,.5.4,1.4-1,1.6-1.9,1v.7c-1.7.2-3.2.6-4.8,1.2-.1.3-.6.5-1.4.5-.2,1.4-1.3,1.7-3.4,1-1.5.3-3.3.3-4.8.5-2.5.2-5.1.2-7.7,0-7.7-1-14.9-4-19-11l-38.6-115.8c-11.5-1.2-11.6-13.4-15.4-21.9-.4-.3-2.1,2.1-2.4,2.4l-.5.5c-.2.2-1.2,0-1.9,1.3-2.3,4.1,1.5,4.6,3,7.4s1.3,7.9,0,11.9c-2.1,6.3-5.6,10.3-12.1,12.1-1,0-2,.1-2.9.5-.4,0-1,0-1.4,0l-1.9.5c-4.9,7.8-6.4,17.5-13.4,23.8s-4.4,2.8-5.3,3.9-3.7,8.5-3.7,9,1.3,1.3,1.7,2c1.1,1.9,2.9,6.9,4.6,7.9s7.5,1.2,10.1,1.9c16.7,4.5,14.4,14.7,12.2,28.9-1.1,6.9-1.6,11.9-5.7,17.6-.1.9-.7,1.4-1.4,1.9.3,1.5-.2,2.1-1.4,1.9-1.5,3.4-1.1,7.3-.5,11.2l-.7.4c.2,1.5.1,2.9-.3,4.2.7.6.4.9-.5.5-1.6.8-6.5,1.3-8.4,1.4-3.3.2-7,0-10.3,0-1.4.2-2.6.2-3.8,0-1,0-6.5-1.7-6.7-2.1s0-.5,0-.8c-1.2.6-2-.2-1.4-1.4-.5.1-.6,0-.5-.5-.7-.7-1.1-1.4-1.4-1.9-3.1-.6-6.5-.8-10-.5l-.6-1c-.8,1.1-2,.8-2.4-.5-.9-.1-1.7-.3-2.4-.5l-5.7-1.1c-1.8-.7-4.8-2.3-3.9-4.2-3,.5-6.1.8-9.3,1-2.8-.7-5.8-1-8.9-1-.3.9-.7.9-1,0l-5.2.2c-2.6-1-5.3-1.7-8.3-2.1-.3.3-.7.1-1.4-.5-.4.8-1.8.5-1.9-.5-2.1,0-4-.7-5.8-1.9-.5.1-.9-.2-1.4-1-.1.4-.3.4-.5,0-1.8-.5-2.6-1.5-2.4-2.9,0-2.5,2.2-2.2,3.8-3.2,3.7-2.2,14.7-9.3,16.9-12.4s1.6-7.2-.5-7.9l-1.9-.5Z"/>
  <path class="st94" d="M638.7,6.7v87.6c.5,4,0,10.6,5.9,9.7s5.2-4.1,5.2-6.9V6.7h39.8v91.9c0,.2.7,2.7.8,3,1.6,3.4,6.5,3.2,8.5.1s1.7-4.3,1.7-5V6.7h39.8v99.1c-1.5,37-47.8,52.5-69.5,21-.9-1.3-.3-2.7-2.2-.6-6.9,7-9,12.8-19.8,15.7-30.6,8.3-50.4-11.4-50-41.3V6.7h39.9Z"/>
  <path class="st94" d="M1031.3,140.1V42c.6-15.8,9.9-31.6,25.4-36.4,17.5-5.5,36.5-.2,45.1,16.6,7.2-9.9,14.5-16.6,27.1-18.2,27.7-3.7,43,13.5,43.9,40.1v96.2s-39.8,0-39.8,0V50.6c0-4.6-2.2-9.9-7.5-7.1s-3.5,4.6-3.5,6.6v89.9h-39.8V47.7c0-4.6-6.4-6.5-9-2.8s-2,4.8-2,5.7v89.5h-39.8Z"/>
  <path class="st94" d="M992,270.1l-44.8,2.9c-3.5-9.8-9.2-18.6-19.7-21.6-18.9-5.4-37.5,7.6-39.1,27.1-3.7,45.3,57.8,49.3,60,5.5l43.7,1c-2.5,29.8-19.1,58.9-49.1,67.8-50.4,14.9-99.7-19.4-97.8-72.8,1.8-51.4,52.8-83.7,100.9-66.8s40.6,31.6,46,57Z"/>
  <path class="st94" d="M510.9,3.5c67.7-1.9,97.6,84,44.2,125.7-23.2,18.2-58.2,19.1-82.4,2.3-56.3-39.1-30.5-126.1,38.2-128ZM532.9,51.5c-17-17-45.4-7.1-49.6,16-4.7,25.8,22.5,46.6,45.3,31.4,15.7-10.4,17.4-34.3,4.3-47.4Z"/>
  <path class="st94" d="M1258.3,3.5c66.5-1.9,97.1,81,46.4,124.1s-65.4,21.2-90.5-.7c-48.9-42.6-20.7-121.6,44.1-123.4ZM1258.8,42.8c-39,1.4-36.5,63.4,2.7,61.3,38-2.1,35.8-62.7-2.7-61.3Z"/>
  <path class="st94" d="M611.8,352.1h-43.4c-7.2-14.7-13.7-29.9-20.3-45v-36.1c-.1,0,7.3,0,7.3,0,.7,0,5.3-2.1,6-2.7,4.3-3.5,4.4-12.5-.6-15.7s-7.6-2.8-10.2-2.8h-8.4v102.2h-41.8v-139.6h59.3c41.5.6,63.4,47.9,33.1,78.2s-4.5,3.1-4.5,4.4l23.4,56.9Z"/>
  <path class="st94" d="M827.3,352.1h-41.8v-93.8c0-.2-1.1-3.5-1.3-3.9-3.3-6.3-13.2-5.5-15.3,1.7s-1.1,4.7-1.1,5.6v90.4h-41.8v-90.9c0-25.4,15.2-47.5,41.1-51.5,33.6-5.1,57.5,10.6,60.2,45.2v97.2Z"/>
  <path class="st94" d="M968.9,140.1h-41.8l-19.2-43.4v-33.8c4.5.4,12.1-.4,14.5-4.9s1.8-9.3-1.5-12.1-5.8-3.1-7.4-3.1h-10.8v97.4h-39.8V6.7c17.2.6,34.9-.8,52.1,0s24.3,2.8,33.8,10.8c18.3,15.5,20.6,43.1,4.6,61.2s-5.1,4.4-6.9,6.9l22.5,54.5Z"/>
  <path class="st94" d="M1292.9,212.5v40.3h-30c-.2,0-3.1,1-3.6,1.2-5,2.2-5.2,9-.5,11.5s2.9,1.2,3.2,1.2h28.1v31.2c-9.7.9-22.5-1.5-31.8.6-6,1.3-7.2,9.7-2.9,12.3s4.4,1.5,5.2,1.5h32.4v39.8c-23.8-1.6-54.8,6.4-72-14.6-5.9-7.2-8.2-16.8-8.7-25.9-1-17.7-1.1-42.4,0-60,1.5-23.3,15.8-37.6,39.1-39.1,13.5-.9,27.9.7,41.5,0Z"/>
  <path class="st94" d="M704.5,212.5v40.3h-30c-.9,0-4.2,1.4-5.1,2.1-2.7,2.2-3,6.8-.7,9.4s3.9,2.4,4.8,2.4h28.1v31.2c-8.7.5-18-.6-26.7,0s-7.8.8-9.3,3.1-1.5,8,1.3,9.8,4.5,1.5,5.2,1.5h32.4v39.8c-23.2-1.5-54.6,6.2-71.5-14.2-6.6-8-8.6-17.6-9.2-27.8-.9-17-.8-38.6,0-55.7s1.7-15.9,5.5-22.8c14.8-26.8,49.9-17.5,75.1-19.2Z"/>
  <path class="st94" d="M380,94v-35c7.6-.1,13.4-3.1,11.9-11.6s-14.2-8.1-17.2-.6-.9,3.2-.9,3.4v89.9h-39.8V52.5c-1.3-48.3,66-67.5,91.7-27.3s8.1,55.9-17.5,65.5-18.7,3.5-28.1,3.3Z"/>
  <path class="st94" d="M838.9,6.7v38.4h-26.2c-.2,0-3.2.6-3.6.7-4.1,1.1-5.8,3.3-5.2,7.7s3.5,5.1,6,5.1h26.6v29.7c-9.3.9-21.4-1.4-30.4.6s-7,8.1-3.6,11.2,3.6,1.6,3.9,1.6h32.4v38.4c-23.6-1.2-57,6.1-71.1-18.4-3.1-5.4-4.4-11.3-5.2-17.4.9-20.1-1.3-41.4,0-61.4s2.6-14.4,6.4-20c15.2-22.6,46.8-14.6,70-16.2Z"/>
  <polygon class="st94" points="484.1 212.5 484.1 252.8 452 252.8 452 352.1 410.2 352.1 410.2 252.8 378.5 252.8 378.5 212.5 484.1 212.5"/>
  <path class="st94" d="M1471,211.6v40.3c-6-2.9-12.4-2.2-16.2,3.7-5.6,8.5,2.7,17.7,6.4,25.1,11.2,22.1,9.8,46.1-9.4,63.1s-36.6,16.3-53.8,7.2v-40.1c6.5,3.1,12.1,6,18.9,1.4,10.5-7.1-.7-19.8-4.4-28.1-10.6-23.5-8.1-48.7,12.7-65.4,13-10.5,30.1-12.3,45.8-7.2Z"/>
  <path class="st94" d="M1383.2,211.6v40.3c-7.6-4.2-17.3,0-18.2,8.9s8.5,19.2,11.4,26.4c8.1,20.2,4.1,41.9-12.4,56.5s-36.8,16.4-53.8,7.2v-40.1c4.6,1.7,7.7,4.4,13,3.6,5.1-.8,9.9-4.4,10.4-9.8s-7.2-16.3-9.4-21.5c-7.7-17.7-8.5-37.3,2.9-53.6s34.5-25.1,56.1-18.1Z"/>
  <path class="st94" d="M1054.4,212.5v49.2c0,0,.7.7.7.7h11.3v36.9h-12v52.8h-41.8v-139.6h41.8Z"/>
  <path class="st94" d="M1182.5,212.5v86.1c0,1.3,1,5.7,1.5,7.1,2.5,6.2,10.6,5.9,16.2,6.1v40.3h-19.4c-1,0-5.5-1.1-6.8-1.4-21.9-5.3-32.6-24.3-33.3-45.9v-92.4h41.8Z"/>
  <rect class="st94" x="1073.1" y="212.5" width="41.8" height="139.6"/>
  <path class="st94" d="M1386.5,6.7v84.7c0,1,1.4,5.1,2.1,6,1.3,1.7,5.7,3.8,7.7,3.8h7v38.9c-13.8.3-27.7.5-39.3-8-11-8-16.1-20.2-17.4-33.5V6.7h39.9Z"/>
  <path class="st115" d="M40.6,331c.7.5,1.7,2.1,2.4,2.9l-.2.5c-5.5.6-14.6,2.3-19.2,5.5s-2.8,2.5-2.8,2.7c-.4,3.8,21.3,9.1,24.3,8.9l.7.7c23.1,3.2,47.9,3.1,71,1,.4-.6,1.2-.2,1.4.5l1,.5c.1-.4.3-.4.5,0,1.7,1.4,0,1.7-1.5,1.9-14.1,1-29.6,1-43.9.6s-25.9-1.1-38.6-3.9c-.1.2-.2.4-.4.5-1.5.5-11.1-1.9-13.2-2.5-4.6-1.4-12.9-4.1-9.8-10.4s5.6-4,6.7-4.5,23.1-5.4,21.5-3.7-2.3,0-1.4-1c.3,0,.8-.4,1.4,0Z"/>
  <path class="st61" d="M283,332.4c2.5-1.1,14.9-.3,18.5,0s8.5.9,12.4,1.5,16.2,3,18.9,5.3.3,1.1.6,1.5.9.3,1,.3c0,.1-1.1,2.2-1.3,2.4-.6.5-2.3.7-3.1,1-16.4,7.5-50.8,7.5-69.4,5.7-1.5-.1-3.4.5-5.1,0s-.3-1.2-1.3-.9c.8-.1,2.1-.7,3.4-1,5.3.6,11.1,1,17,1.1,14.7.3,29.7-.3,43.8-4.5,16.3-4.8-6.3-9-11.6-9.8-7.9-1.2-16.9-2.4-24.6-1.2-1.5,1.4-.7-1.5,1-1.4Z"/>
  <path class="st159" d="M39.2,331l1.4,1c-7.1,1.4-15.8,2.2-22.4,5.1s-.6.8-1,1.1c-1,.5-2.3.7-3.2,1.5-2.6,2.3-.9,5.8,1.7,7.4,4.3,2.6,15.1,4.8,20.1,5.6,1,.3,1.1.7.5,1-.8,0-1.7.3-2.5.2-6.8-.9-23.3-3.9-28.2-8.2s-1.1-1.3-1.5-2c-.2-3.8,4.8-5.6,7.8-6.8,5.8-2.4,13-3.8,19.2-4.8s5.4-.7,8-.9Z"/>
  <path class="st159" d="M150.1,333.4c2.7-.3,13.3,2.5,16,3.8,2.4,2.4,6.7,3.1,4.7,7.5s-2.7,2.4-3.1,2.6c-5.5,2.6-15.7,5.2-21.9,6s-.8,0-1.4-.8c0,0,.4-.4.5-.5l.5-1.4c3.9.1,15.6-3.6,17.8-6.5s-.2-3.7-.4-3.8c-4.7-2.5-9.6-4.4-14.8-5.7.4-1.4,1-1.4,2.2-1.2Z"/>
  <path class="st23" d="M35.8,352.6c27.5,4.2,53.6,3.2,81.2,2.6.7,0,3.2.2,2.8-1.2.5-.3,1.2-.3,1.9,0,1.3,0,2.6,0,3.8,0l-3.4.5c-.5,2,2.6.1,2.9,1.4-6,.9-12,.7-18,.9s-3.2.4-5,.5-5.1,0-7.7,0c-4.6,0-9.3,0-13.9,0s-4.2,0-6.2,0-3.9-.5-5-.5h-10.1c-3.2,0-8.2-1-11.8-1.4-3.4-.9-6.9-1.4-10.6-1.4-.2-.1-.4-.3-.5-.5-.2-.3-.3-.7-.5-1Z"/>
  <path class="st35" d="M283,332.4c-.6.3-1,.7-1.4,1.2,0,.3.3.2.5.2,4.3-.8,15.6-.9,18.7.7s.7.5,1,.8c1,.2,1.4.5,1.4,1l-1.1.4c-7.4-.8-14.8-1.4-22.1-1.7v-.6c1-.8,2.1-2,3-2.9v1Z"/>
  <path class="st52" d="M249.4,349.7c-3.4.4-4.2.5-7.7,0h7.7Z"/>
  <path class="st68" d="M219.2,115.6c-.1.3-.3.3-.5,0-.6-1.1-1.3-2.2-1.9-3.4l1,.5c0-.7-.3-1.3-.5-1.9,1.3,1.1,1.4,3.4,1.9,4.8Z"/>
  <path class="st72" d="M228.8,107.9c.6.7.4.9-.5.5-.6-.5-1.1-1.2-1.4-1.4l.5-.5c.5.5,1,.9,1.4,1.4Z"/>
  <path class="st2" d="M228.8,107.9c.6.7,2.1,1.1,1.9,2.4-.1.1-2-1.6-2.4-1.9l.5-.5Z"/>
  <path class="st166" d="M231.2,97.4c.8.3,1.6.4,2.4.5v.5c-1.1.5-2.3-.4-2.9-.5l.5-.5Z"/>
  <path class="st132" d="M220.1,117.1c.3.7.2.8-.5.5-.3-.6-.6-1.3-1-1.9h.5c.1.3.7.8,1,1.4Z"/>
  <path class="st93" d="M154.9,236.5c-1.2.3-1.9.3-2.9.5.5-.8,2-.4,2.9-.5Z"/>
  <path class="st42" d="M225.4,97.4c-.9,0-2.3.4-2.9-.5,1,0,2-.3,2.9.5Z"/>
  <path class="st134" d="M222.1,96.9c-.9,0-2.4.3-2.9-.5.9,0,2.4-.3,2.9.5Z"/>
  <path class="st111" d="M60.8,307.5c-.3-.1-1.2-.3-1.9-.5l1.9.5Z"/>
  <path class="st105" d="M150.5,237c0,0-1.2.9-1.9.5l1.9-.5Z"/>
  <path class="st116" d="M218.7,84.4c-.6.2-1.2.4-1.4.5l1.4-.5Z"/>
  <path class="st82" d="M224.5,343c-1,.1-1.1,0-1-1l1,1Z"/>
  <path class="st71" d="M149.1,332.4c-.1,1,0,1.1,1,1-.4,0-1.9.3-1.9,1,5.3.8,10.8,2.4,15.2,5.4.5,1.4.9,3.4.5,4.8s-3.7,2.8-4.5,3.2-2.1.4-3.1.8c-3.5,1.3-7.2,3.7-11,2.1-.2-.5-.3-1,0-1.4,6.2-.5,21.7-6.1,8-11.1l-5.8-2c-.6-.2-.5-.8.2-1.8.5-.6,1-1.3,1.4-1.9Z"/>
  <path class="st70" d="M209.6,99.8c-.2,0-.7,0-1,0l.7-.5.2.5Z"/>
  <path class="st133" d="M165.9,203.9l.5-.5c-.2.1-.3.3-.5.5Z"/>
  <path class="st159" d="M36.8,354c.5-.8,1.8-.5,2.6-.4,2.4.2,4.9.5,7.3.9s1.7-.5.7.9c-2.6-.3-8.7-.3-10.6-1.4Z"/>
  <path class="st119" d="M121.7,273c-.7.7-2.2-2.3-2.8-2.9-3-2.9-6.9-3.8-11-4.3s-6.5.5-6.9-.8,2.6-9.8,2.6-12.2l.5-.5,5,1.4c.3-1.9.9-3.9.3-5.8l-14-6.7c-1-.1-.5,0-.7.7s-1.1,4.5-.8,5,3.9,1.6,3.7,3.2c-1.3,6.1-1.8,12.7-4,18.5s-2.6,2.6-.9,4.3,8.2,1.2,11,1.5c10.2,1,18.1,4.6,22.7,14.1-6.2,10.3-9.4,22.6-11.9,34.3-7.9-3.5-15.9-7.1-23.4-11.4-7.2-4.2-11.2-8.9-20.1-9.7s-17,2-14.4-6.7,1.8-2.3,2.3-3.5c5.8-13.4,13.5-41.4,12.9-55.7-.5-10.1-4.2-25.3-.7-34.8s8.7-13.2,12.8-19.8,7-19.7,9.5-28.7c3.9,2,7.6,4.8,11.5,7,10.8,6,22.5,10.4,33.6,15.8-8.2,12.9-15.1,33.3-6.6,47.4s11.6,12.2,11.8,13.6-3.3,9.3-4.3,11.3c-3.8,7.6-5.9,7.3-11.5,12.5s-5.5,7.9-6.2,12.7Z"/>
  <path class="st94" d="M259.5,213.5c-.3-.9.2-2.5-1.2-3.4-3.5,2.1-.7,4.6.1,6.6s0,3.5,1.3,3.5.9-5.1,3.6-5.3c9.1,29.7,19.5,59.1,29.2,88.6,2,10.2-14,24.9-21.5,30.5-11.9,8.8-33.5,15.5-44.6,1.9s-8.1-20.4-9.7-26.2c-3.6-13.1-4.3-30.7-2.7-44.2s6.9-16.2,7.6-24.5-.3-5.3.2-7.9,2.7-5,3.7-7.3c5.9-13.6,3.8-12.9,15.3-23.1s4.6-5.9,8.4-6.5l3.8-11.5,8.8,27.3c-.4.2-1,.3-1.4.5-.1.9-.4,1.2-1,1Z"/>
  <path class="st50" d="M166.9,126.2c-1.7-.8-5.1-3.8-5.7-.1s3.7,3.7,4.1,4.5.2,3.7,0,4.1c-.6,1-8.8,3.8-10.5,4.2-15.4,3.7-32,0-42.2-12.5-22.2-27.2,1-49.3,23.4-64.9s24.9-11.8,37.8-16.4c2.5.7,4.5,3,4.1,5.7-2.4.3-5,.3-7.4.5s-2.9.3-3.2.9c11.5,2,23,2.9,33,9.5s8.8,7.6,10.3,11.3-.4,2.4-.6,4c-.4,4.2,3,5.3,3.3,7.2.5,3.1-2.8,7-4.6,9.3l-27,27.2c-1.2.4-8.6-.7-8.8-1.6,2.7-7.2,7.3-13.6,11.8-19.8.7-2.2-.3-3.7-2.7-3.4.2-.4,1-.5,1.2-1.4.6-2.1-.4-4.2-2.7-3.2s-6.9,5.5-8.4,6.9c-2.3,2.1-5.1,4.9-7.2,7.2s-3.8,5.4-6.2,7.2c-.6,0-4.2-3.5-4.6-4.1s-.7-.6-.2-1.2c8.2-7.5,17.3-14.1,27.4-18.7,1.7-2,.4-4.4-2.3-3.8s-7.4,4.5-9.2,5.7c-6.5,4.6-12.3,10-17.8,15.7-.3,0-3.4-4.7-3.5-5.1-.3-1.6,1.2-5.7-.8-7.8-1.1.9-1.6,4.8-2.5,5.3s-7.5,1.1-7.8,1.4c.4,3.5,6.5,2.8,8,3.8s3.4,4.9,3.5,5.2c.3,1.1-4.7,6.6-5.7,8s-.3,1-.5,1.2c-.8,2-2.3,4.2-3.8,5.8-.2,1.3-.9,2.6-1.9,3.4,0,.9.2,1,.5.5,0-1.3.9-2.6,1.9-3.4.6-2,2.2-4.5,3.8-5.8.8-1.1,6.6-7.8,7.4-7.6s5.4,4.7,5.5,5.1c.3,1-1.3,2.9-1.9,4-.6,2.6-2.3,5.4-3.8,7.7,0,.5,0,.7.5.5.6-2.4,2-5.7,3.8-7.2.4-.6,2.9-3.7,3.1-3.8,3.4,2.7,7.6,3.8,11.3,5.7.5.4,1.1,3.8,1.1,4.1,0,.5-3.1-.9-3.5-1.3Z"/>
  <path class="st94" d="M248,144.4c3.4,10.9,9.7,17.2,4.7,29-8.1,19.5-43.1,44-64.5,42s-12-13.2-16.1-22.1c8.1,1.7,16-.6,23.5-3.4,1.4-.1,2.3-.6,3.4-1.4,1.7-.7,2.6-.9,4.3-1.9,1.6-.6,3-1.4,4.3-2.4.5-.3,1.5-.5,2.2-.9,7.9-4.2,15.1-10.7,22-16.4.5-.2-.2,2,1,1.4s.6-2.3,1-3.3c.6-1.5,3.4-3.7,4.5-5.1,1.9-2.4,4-5.1,5.3-7.9l1,1.9c.6,0,.7.2,1-.5-.2-.5-.3-1,0-1.4,0-2.5-.1-3.2,1-5.8-.5-1.4-.2-2.8,1.4-1.9Z"/>
  <path class="st124" d="M167.2,9.8c2.7,2.7.8,2.7-.2,4.5-3.5,6-3.8,12.6-4.1,19.4-22.5,8.6-42.5,23.7-59.8,40.3-1.1-.8-1.1-18.8-1-21.3.3-4.3,1.1-10,3.8-13.4,5.4-6.8,16.8-16.9,23.5-23s7-6.7,10-7.3,3.8-.5,5.2-.6c4.4-.3,11.6-.8,15.9-.5s5.2.5,6.8,2.1Z"/>
  <path class="st50" d="M157.3,204.9c-.9.6-.3,4.3.2,5.2,1.3,2.8,4.2-.4,5.7,3.4,4.2,10.4-7.3,21.3-17.9,15.9-5.1-2.6-9-10.2-10.4-15.6s-1-10.1.9-16.7,4.1-12.1,7-17.7c1.1-.8,21.3,9.8,23.3,12.5.2,4.4-2.3,10.8-6.5,12.7s-1.9,0-2.3.3Z"/>
  <path class="st94" d="M176.9,188c-.2-1.1,1.2-1.5,2-2.1,8.3-6.6,17.1-8.2,26.2-13.2,9.6-5.3,25.9-17.7,29.9-28.2s1.8-9.8-4-10.7-7.1.4-7.4.2-3.4-4.2-3.8-4.8-.7-.5-.5-1.2c6.8-2.2,22.8-3.4,24.4,6.1,2.7,15.8-18.9,34.3-30.8,41.9-10.6,6.7-23,12.1-35.8,12Z"/>
  <path class="st65" d="M219.2,133.8l.4,1.3-3.7,6.7c0,.2,3.1,3.3,3.4,3.3.6.1,2-5.9,1.9-6.5l.9-.5c1.2,2.3,3,5.8,2.9,8.4s-.5,1-.5,1.2c-1.1.2-1.1,1.8-1,2.9-.6,1.4-1.5,2.6-2.4,3.8-1.7,1.1-3.3,2.4-4.9,3.9v.9c-1.2,1-2.7,2-4.2,2.9-1-.8-1.9-.9-2.7-.1l-6.3,4.2v1.2c-1.7,1-3.3,1.9-4.9,2.9-1.6-.3-3.5.3-5.7,2l-.5-.6c-.7.6-1.1.7-.8-.1-1.2-.9-3.5-3.2-1.1-3.2-.1-1.2.9-2.3,2.9-3.4-.9-1.2-1.1-2.1-.5-2.9.4-.5.9-.9,1.4-1.4-.6-.7-.4-.9.5-.5.8,0,1.4.4,1.9,1,.6-.5,1.2-.3,1.9.6.5,0,8.1-4.5,8.1-5s-1.9-2.3-2.3-2.3l-2.8,3.3c-1.5,1.9-2.8,2.3-4,1.5l-.8.4c-.6,2.2-2.7-2.2-2.6-3.3l.3-1.2c1.2-.2,5.9-5.2,5.9-5.6-1.5-1.5-2.1-3-1.9-4.3-.8,0-.9-.8,0-1,.8-.9,1.6-1.9,2.1-3l.8,1.1,1-.3c1.6,3,3.4,2.8,5.4-.6-1.8-1.6-2.7-3-2.5-4.5-1.1-.2,2.2-3.4,2.4-3.5l.5,1.1c1.3-.5,2.5.3,3.9,2.4,1.4-2,2.4-4.4,2.5-6.9l.8-.7c1.8,1.6,2.7,2.3,4.3,4.3Z"/>
  <path class="st123" d="M165.9,43.2c-4.1,1.3-8.4,2.9-12.3,4.7-14.9,6.9-52.1,33.1-56.5,49s-.7,5.8,1.7,8.6c-10.2-1.8-7.1-10.8-3-17.1,9.8-15.1,40.1-36.8,56.6-44.2s11.2-4.8,11.7-4.4,1,2.9,1.9,3.4Z"/>
  <path class="st3" d="M59.2,211.4c-.4.5-1.3.4-1.6,2-.7,3.9,3.3,9.2,3.2,1.9.6,0,.8.7,1.1,1.1,1.3,2.4,2.2,10.6,2.3,13.5.2,4.2-3.3,6.1-6.5,3.1s-8.7-19.7-7.9-25.6c1.3-9.6,13.4-2,9.4,3.9Z"/>
  <path class="st35" d="M44.9,334.8l2.8,1.1c.2.9-3.1,1.5-3.3.3-3.4.8-17.6,4.7-9.7,9.1s14,4.5,20.1,5.1c10.1,1.1,19.6,1.9,29.8,2,9.5.1,19.6.2,28.7-1.1.6-.7,1-.9,1.8-.2,2.1,1.3,4.5,1.9,6.7,2.9-.6,0-1.3,0-1.9,0s-.3,0-.5,0l-1-.5c-.4-.1-.9-.3-1.4-.5-12,1.8-26.4,1.7-39.4,1-14.1-.4-28-1.8-42.2-4.5-3.7-.7-12.2-3.4-10-8.5s13.8-7,17.7-6.7l.5-.5c.7.2,1,.7,1.4,1Z"/>
  <path class="st19" d="M171.7,165.5l1.1-.5c1.1,1.5,2.3,2.8,3.7,3.8.6.8,1.4,1.4,2.3,1.7v1.2c0,0,1.9,1.6,1.9,1.6,1.8-1.8,3.2-2.4,4.4-1.6.7-.4,2.3,2,2.4,2.9l.4.5c-1.5.8-2.6,1.8-3.3,2.8-1.8,1-3.5,1.9-5.3,2.9-2.7,1.5-4.9,3.5-6.7,5.8-1.2.8-1.8.4-1.4-1,1-.3-1-1-1.9-1-.8,1-1.1.8-1-.5-1-.2-.8-.8.5-1.9l.5-.5c-.4-.1-.4-.3,0-.5l.5-.5c.1-.4.3-.4.5,0,2.4,1.7,4.6.7,6.6-3,.9.3.9.2,0-.3l-1,.3c-1.1-2.8-2.8-2.1-5.1,1.9l-1.1-.3c.2,1.2-3.6-1.1-3.6-1.5s.4-.7.7-.9c-.8-.8-.6-1.9.7-3.1l2.5-2.6c-1.5-1.3-1.9-2.5-1.3-3.4-1.1,0-1-.7,0-1-.6-.6-.5-.7.2-.2,1.3-1.5,2.2-1.9,2.7-1.3Z"/>
  <path class="st50" d="M182.2,95.9c-4.5,7.2-8.2,14.9-10.6,23-.7.5-10.1-3.7-10.5-4.4s0-1.2.4-1.6c1-1.5,5.6-5.8,7.2-7.2s11.6-9.6,13.4-9.8Z"/>
  <path class="st118" d="M180.4,17.4c-1.3,1.2-2.2,5.4-1.1,6.6s.8-.4,1-.7c1.2-2.1,3.3-4.8,2.8,0s-9.4,7.5-4.3,12.8c0-1.6,2.3-3.9,3.4-2.1,1.8,2.9-4.5,15.3-7.1,5.5s-.5-21.5,4.2-25.8,3.9-.7,3.4,1.9-1.5,1.1-2.3,1.8Z"/>
  <path class="st149" d="M282.1,333.9c.3-1.1,1.2-.9,2.1-1,7.7-.5,28.1,1.6,35.3,4.1s8.4,3.9,4.3,6.7-26.7,5.8-34.3,6.1c-8.8.4-21.2.5-29.8-.5s-.7-1.5-2.1-1c.3,0,.7-.4,1.4-.5.9-.5,1.7-.7,2.4-.5,6.2,1.3,13.5,1.3,20.1,1.2,11-.1,20.9-1,31.6-3.7,9-2.3,6.1-6-1-7.8-3.5-.5-7-1.1-10.4-1.8-4.2-.5-8.5-1.2-12.7-1.4s-5.3.4-7,0Z"/>
  <path class="st153" d="M52.6,337.2l.5.5v.6c-9.8,4-10.3,5-.3,8.6,11.9,2.4,24.4,3.6,36.3,3.3,0-.4.3-.4.5,0,7.1,0,15.1-.5,22.1-1.9.7-.4,1.2.3,1.4,1,.2.1.3.4.5.5.6.7.5,1-.5,1-10.8,1.2-21.8,1.5-32.6,1-.4.8-1.9.8-2.4,0-10.5-.1-22-1.1-32.2-3.5-2.2-.5-7.8-2-8.5-4.4-1.5-5.1,9.8-8,13.3-7,.9,0,1.4.4,1.9.5Z"/>
  <path class="st99" d="M164.9,164.5c.7-1,1.3-1.1,1,.1,1.8,1.6,2.3,2.7,1.4,3.2l.6.9c-1.9,1.8-3.6,3.6-5.3,5.6,2,1,2.8,2.1,2.3,3.1,1.2-.2,1.5.6,1,2.4.6.7.3,1-.5.5-.5.4-1,.7-1.4,1-1.1.5-2.6,0-4.4-1.3-.4,1.1-1.1,1.7-1.8,1.8-1.5-.8-2.8-1.5-4.3-2.4.2-1.1.5-2.3,1.1-3.5l-5.3-4.8c-.6-.8-1-1.4-.2-2.2l-.9-.9c0-.2,3.1-2.5,3.3-2l1-.4,5.4,4.7,6-5.8h1.1Z"/>
  <path class="st16" d="M69.9,136.2c-.2,2.7.6,5.7,2.4,8.9,1.8-1.7,3.2-2.1,4.3-1.2,3.2-2.8,4.9-2.9,5.1-.3,1.2,1.5.5,2.6-2.1,3.4-.3.5-.9.7-1.9.8-.2,1.4-1.1,2.6-2.9,3.6,1.4,1.9,1.5,3.3.5,4,1.6,1.8-.8,3.3-2.4,3.8h-1.1c-.5-1.7-1.2-3.2-2.1-4.3-1.7,1.6-3.2,2.2-4.5,1.9-1.5,2-3.4-2.2-1.9-3.4l-.2-1.1,4.3-3.8-3.3-9,.7-1c1.9-.9,3.3-1.6,5.3-2.4Z"/>
  <path class="st84" d="M98.7,329.6l-11.1-7.9c-5.9-3.1-12.3-6.4-19.2-6-1.1-6.4,3.4-4.8,7.7-3.6,6.2,1.7,12.9,5.4,18,9.4,3.1,2.5,5.7,3.6,4.6,8.1Z"/>
  <path class="st20" d="M67.5,339.6c.5,1,0,1.3-1,1.4-.6-.3-5,.2-4.1,1.6,2.9,4.2,23.7,4.4,29.2,3.9,3.4.3,6.6,0,9.5-.7,1.8,0,9.6-.4,10.3.5s.1.9.2,1c-.5.7-3.7,1.2-6.2,1.4-14.8,1.1-26.9.7-41.6-.8s-16.6-2.9-8.2-9l-.2-.7c-.5.2-1,.4-1.4,0-.4-.1-.4-.3,0-.5,4.5.7,9,1.2,13.4,1.9Z"/>
  <path class="st59" d="M43,333.9c.1,0,.3,0,.5,0l.7,1.4c-.6,0-1.1-.5-1.8-.4-3.2.4-12.7,3.2-15,5.2s-1.7,1.7-1.6,2.6,1.8,3.2,2.3,3.4c1.7.8,6.5,2.4,8.5,3,6.9,2,14.4,2.4,21.5,3.5l19.4,1.4c-10.5.6-21.3-.2-31.7-1.9-6-.7-13-1.9-18.7-4.1s-7.9-3.3-7.3-6.1.9-.4,1.2-.9c1.5-2.1,3.4-3,6.1-4s11.6-3.4,13.8-3.5,2,.3,2.1.4Z"/>
  <path class="st113" d="M303.2,336.3c.2-.6.6-.5,1,0l2.9.5c0-.4.2-.4.5,0l5.4,1.4c4.7,1.3,4.7,4.3.4,6.2-16,4.7-35.1,5.1-51.5,3.4s-.3-.2-.4-.5c-.3,0-1.7.4-2.4.5,1.4-1.1,3.3-1.3,4.8-1.9,12.8,1.7,26.2.9,39-1.3,1.3-.2,8.4-2.1,6.6-4.2-3-3.4-24.4-4.3-29.9-4.4l-.3-.7c.3-.2.6-.6,1-1,.5.8,1.8.5,2.6.5,7.3,0,13.3.8,20.4,1.4Z"/>
  <path class="st25" d="M141.8,143.5c3.6-.3.2,9.4-.4,11.1s-6.4,12.3-7.8,12.3-.7-1.2-.7-1.6c-.5-4.4,3.4-21.3,9-21.8Z"/>
  <path class="st11" d="M63.2,153.5c.5,1,.5,3.5,1.9,3.4l3,6.6c1.4-1.9,2.8-2.8,4.2-2.8.3-.2.5-.4.6-.4.9,1,2.8,4.1.9,4.2l.7.9c0,1-3.7,4.3-5,4.4,0,1.1-1,1.9-2.9,2.4-1.4.5-2.8,1.4-3.7,2.5h-1.1c-.5-1.5-1.3-3.6-1.9-4.9.1-1,1.1-2,3-2.8-.7-2.1-1.6-4.2-2.5-6.3-.8-1-2.2-2.7-1.4-3.8-1.1-.6-.8-1.4.5-1.4-.8-1.3,1.7-2.5,2.9-2.4.6-1.2,1.1-.8,1,.5Z"/>
  <path class="st12" d="M131.3,143.9c-.6,1.8-1.3,3.6-2.2,5.4,1.5.2,2.2.8,2.2,1.8-.4,1.5-.9,2.9-1.4,4.3-.7.7-1.9.6-3.4-.3l-1.7,4.7-1.1.3c-1.7-.6-3.2-1.6-4.8-2.4,2.3-3,2.4-4.9.2-5.7l-.2-1c-1,.1-1.3-.8-.5-1.4.6-.7,1-1.4,1.3-2.4h.7s1-.6,1-.6c2.3,1,3.8-.4,4.3-4.2,2,.6,3.6.6,5.8,1.4Z"/>
  <path class="st153" d="M279.2,335.3l17,1c2.3.5,4.7.6,7.1,1.1s6.7,1.7,7,2.6c1.5,4.3-6.8,5.4-9.8,5.9-9.4,1.5-25.5,1.8-35,1.1s-1.2,0-1.6-1c.4-.2,1.4-.7,1.9-1,7.4,1.3,17.1.9,25.4.5,1.7,0,3.4-.4,5.1-.7,22.7-4.1-11.1-9.6-17.6-7.5,0,.4-.2.4-.5,0-.6,0-.5-.6.5-1.4.2-.1.3-.3.5-.5Z"/>
  <path class="st102" d="M68.5,339.6c2.5.3,5.1.4,7.7.3l-.3,1.2c-6.8,1.1-5.9,1.6,0,3.3,7.6.8,15.1,1.1,22.8.9,1.1,0,2.2.5,2.4.5-1.2.6,1.9.7-.3,1.3-3.4.9-9.6-.3-13.3.6-6.8-.8-16.2-.1-22.5-2.5s-2-1.8-3.6-1.9c.7-4,2.1-3.1,5.1-3.3s1.1-.5,1.2-.5c.3,0,.6,0,1,0Z"/>
  <path class="st84" d="M110.2,129.5c3.2,5.2-.7,4.9-2.5,8.8s-3.6,16-8.1,9.2,3.4-9.8,6.2-13,2.1-3,3.2-4.4,0-.9,1.1-.6Z"/>
  <path class="st16" d="M86.2,127.6l.8.7c-.3.9,1.4,6.2,1.7,6.4,1.7-1.2,3.3-1.6,4.7-1.3.7-.6.9-.4.5.5.8,2-1.6,4.8-3,6.3s.2-.7.6,0c-.7.7-2.4,3.4-2.9,4.3-.9.3-1.3,0-1.8-.7-1.4,1-2.6,1.2-3.5.7-.9,1.3-1.6.5-2-2.4-.8.2-.8-.2.1-.9-.9-.9-.1-1.9,2.3-2.9l-2.6-7.3.8-.8c1.4-.7,2.9-1.6,4.3-2.4Z"/>
  <path class="st87" d="M55.5,338.2l6.2,1.4c-1.2.5-4.5-.7-5.2-.4s-.2.7-.5.8c-2.3,1.4-4.2,2.6-.8,4.8s6.4,2,7.8,2.3c13.5,2.7,33.1,2,46.9.7s.3-1.6,1.6-.5c.5.5,1.6.7,1.4,1.9-.4-.3-1.1-.8-1.4-1-1.7.7-4.4.9-6.5,1-2.4.3-5.3.6-7.8.5s-.2-.2-.3-.5c-1.6,1.2-5.2,1.2-7.4,1-.2,0-.3,0-.5,0-9.7,0-20-.4-29.7-1.9s-7.1-1.5-10.6-3.1c-3.6-3.2,1.6-7.2,4.8-6.5.5-.2,1.1-.4,1.9-.5Z"/>
  <path class="st167" d="M213.6,74c4.9-4.8,13.7,0,9,5.8s-14.5-.3-9-5.8Z"/>
  <path class="st129" d="M44.5,336.3c.3.4.3.8,0,.9l-5,2c-6.9,3.2-4.9,5.3,1.5,7.4,11.4,3.9,25.2,4.8,37.1,5,.8,0,1.6,0,2.4,0,10.5.7,22.1.2,32.6-1,0,0,.1-.8.5-1,.7.5,1.2,1.3,1.4,1.4-2,1.7-4.9.8-7.4,1-20.8,1.2-41.1,1.1-61.6-2.8-4.3-.8-6.2-1.1-10.1-2.9s-4-.6-4.4-3.3c-.7-4.8,9.4-6.6,12.9-6.9Z"/>
  <path class="st118" d="M155.8,146.8c.4.2.4.3,0,.5l1,1.9c.4.1.4.3,0,.5,1.5.2,1.7,1.6.5,2.4l.2,1.4c0,1.1-5.7,9.2-7.9,8.2-2,2-4.8-4.4-2.9-6.2,2.8-3.5,4.7-6.1,8.2-9.1.8-.4,1.2-.5,1,.5Z"/>
  <path class="st121" d="M104.5,127.1l-4.6,4.7c-.2.8-.1,1.3.3,1.5-1.1,1.7-1.6,3-2.9,4.8-.4.2-1.1.4-1.2.2-.7-1.3-1.6-3.2-1.5-4.4h-.7c0-.1-.5-.6-.5-.6-.6-3.3-1.3-6.1-1.9-8.6,1.4-.8,2.9-1.6,4.3-2.4h1c0,.1,1.3,4.5,1.3,4.5,1.9-1.5,3.6-3.2,5.1-5.1l1.2.2c.4,1.7.5,3.4,0,5.3Z"/>
  <path class="st158" d="M63.2,153.5c0-.2-.9-.3-1-.5l-1.4-.7c-1.3-3.1-2.2-6.3-3.1-9.5l.6-1.4c2-1.1,4.2-1.9,6.2-2.9l3.8,10.3-5.2,4.6Z"/>
  <path class="st112" d="M147.7,334.4c-.2,1.2.6,1,1.3,1.3,3.8,1.4,15.4,4.4,8.9,10.2s-3.7,2-4,2.2c-1.2.5-5.9,2.1-7,2.2s-1.2-.2-1.6-1l-.2-1.6c6.5-1.3,12.7-4.9,3-9.1-1.8-.1-3.7-.4-1.8-2.2.5-.6,1-1.3,1.4-1.9Z"/>
  <path class="st9" d="M146.2,336.3c-1.3,1.5,1.2.9,2.3,1.3,2.5,1.1,7.4,3.9,5,7.1s-6.7,4.6-8.2,3.1c0,.5,0,1,0,1.4s0,1,0,1.4c-.1.8,0,.7-.5,1.4.8-4.1-1.9-11.5.3-14.9s1-.7,1.2-1Z"/>
  <path class="st39" d="M50.7,336.8c-.4,0-3.8.5-4.4.6s-6.2,2.2-6.5,2.4c-.7.5-1.8,2.9-1.5,3.8s2.4,2.1,2.7,2.2c8.3,3.9,27.7,5.4,37.1,5.8-3.3,1.4-7.2,0-10.4-.3-9.2-.8-23.8-1.4-31.9-6.1s-1.1-.4-1.3-1.1c-1.8-5.3,7.3-5.5,10-7.8.9,0,1.9,0,2.9,0v-.5c-1.2.2-1.7-.6-2.4-1l5.8,1.9Z"/>
  <path class="st118" d="M197.6,118.5c.9.6,1.3,1.1.2,1.2.2,1.8-.2,2.8-1.1,3.1.9,2-2.3,6.7-4.3,7.2-.8.9-1.1.7-1-.5-1.8.4-4.4-5.9-4.5-7.3l.6-1.4c.8-.8,3.7-4.6,4.1-4.7,1.9,1,4,1.5,5.9,2.3Z"/>
  <path class="st118" d="M59.3,155.4c-.1.1-.1,1.1-.5,1.4,0,1.1-2.5,3.5-3.6,4.2l-1.2-.3c-3-5.7-5-10.5,0-15.8.9-1,1.6-1.1,1.9-.4,1.1,3.3,2.3,6.5,3.7,9.6l-.3,1.4Z"/>
  <path class="st135" d="M86.7,339.6c1.3,1.9-.9,2.1-2.5,2.3-4.1-.4-10.4.9-2.1,1.6,4.8-.1,9.5.4,14.2,1.4.8,0,1.7-.2,2.4.5-7.6,0-16.1,1.6-23.6-.1s-7.5-2.4-3.8-4.1l4.9-1.1c-2.2,0-4.3,0-6.5,0s-1.1-.5-1.2-.5c4.1-.1,8.2.1,12.3,0s4.1-1.3,6,0Z"/>
  <path class="st158" d="M165.9,138.2l1.4-.6c.4,0,3.5,7.3,3.5,7.7.1,1.7,0,2.4-1.6,2-2.4.6-5,1.1-7.6,1.3,0,1.3-1,1.1-1.9.4.2-1.5-.5-4-1.7-4.6l.7-.9c2.3-1.8,4.7-3.6,7.2-5.3Z"/>
  <path class="st155" d="M277.3,336.8c-.3.4,0,.5,1,.5.2,0,.3,0,.5,0,6.1-.4,13.3-.2,19.2,1.2s.3.3.4.7c7.2,3.2-2.6,5.3-6.1,5.7-8.2,1-16.1,1.4-24.5.4s-.8-.4-1.1-.8c.3-.2.7-.3,1-.5l2.5-.8c5.7,2.3,41.2-1.5,13.6-4.1-2.7-.3-5.4-.3-8-.1,0-.4.1-.8.6-1.2.2-.2.5-.6,1-1Z"/>
  <path class="st47" d="M276.3,337.7c-.7,1.3-.7.9.5.8,4.5-.4,13,0,17.4,1.2s1.2,2.5.3,3.1-10.4,1.6-12.2,1.7c-4.9.2-9.8-.5-14.7-.5.7-.4,2.1-1.4,2.9-1.9,1.2.3,17.4.3,16.8-.7s-10.7-1.5-12.3-1.2l-.7-1c.6-.5,1.3-1,1.9-1.4Z"/>
  <path class="st83" d="M176.9,132.9c1.6-.2,3.4,4.1,2.4,5.3.3.6.7,2.3-.5,1.9,1.1,1.9-3.1,3.5-4.8,3.4-.2.1-.4.2-.6.2-1,.1-6-7.4-3.2-8.4,2.8-1.5,4.2-1.5,6.7-2.4Z"/>
  <path class="st83" d="M72.8,134.8l2.4-1c.8,2.4,1.7,4.9,2.6,7.3l-.7.9c1.4.6.8,1.9-.5,1.9-2.1.2-3.2,2.5-5.3,2.4,0-2.7-2.6-6-2.7-8.6s.8-1,1.2-1.5c1-.4,1.9-1.1,2.9-1.4Z"/>
  <path class="st8" d="M91.5,124.7c1.4-.3.8.7,1.1,1.5.6,1.9,2.7,5.7.8,7.1s-4.1,1.8-5.3,2.9c-.4-2.8-2.7-5.8-1.9-8.6,1.8-1,3.5-1.9,5.3-2.9Z"/>
  <path class="st8" d="M211,126.2c1.6,1.2,2.5,2.1,3.8,3.4.8,2.1-1.8,8.3-3.6,9.1-.8-1.3-2.2-3.2-3.6-3.8-1.1-.3-1.1-1.2,0-2.9-1.2-1.1,1.8-5.9,3.4-5.8Z"/>
  <path class="st77" d="M274.4,339.2h6.5c1.3.4,7.9.7,7.9,2.2,0,2.6-15.4,1.8-17.8,1.7l-.5-1c1.1-.7,2.7-2,3.8-2.9Z"/>
  <path class="st65" d="M81.4,141c.5,1.1.4,3.7,1.9,3.4.8.9.3,2.1-1,1.9,0,.9-.6,1.5-2,1.7.2,2.5,1.2,3.2,3,2.2.9-.7,2.7-1.9,3.4-.5-1.5,3.8-2.4,7.1-3.4,11-.9.3-1.6-.3-2.1-1.6-1.3,1.6-2.4,2-3.2,1.2-.2.4-.6.5-1,.5-1.5.5-2-.3-1-1.4l.3-.9c-1.2-1.1-1.2-1.8.1-2-.8-1.1.1-2.3,2.8-3.7-.5-1.7-1.1-3.3-1.8-4.9.9-.6,4.2-2.4,4.3-2.6,0-.4-1.2-2.2-.9-3.1-3,1.1-3.2,1.7-2.4,4.8l-1.9-2.9c.2-.5.6-1.4.5-1.9,1.2-1.2,2.3-1.7,3.4-1.4.6-1.2,1.2-.8,1,.5Z"/>
  <path class="st144" d="M71.8,173.2c1.3-.4,2.1,1.7,1.9,2.9-.7,1.2-1.6,3.3-2.4,4.8-1.6.8-3.2,3.2-4.2,5.1l-1.1.6c-.9-2.1-1.6-4.1-2.4-6.2,1.4-1.8,2.8-3.4,4.3-4.8-.7-1.3,1.7-3.4,2.9-2.4.4-1.2.6-1.2,1,0Z"/>
  <path class="st8" d="M149.1,168.9c.3.3.6,1.3,1.2,1.9,1,1.1,5,4.2,5.3,4.8s-1.1,4.2-2.2,3.8c-2.9-1.8-5.5-3.6-8.2-5.8-1.2-1.3.6-5.4,2.4-4.8-.2-1.5.3-1.5,1.4,0Z"/>
  <path class="st8" d="M219.2,133.8c1.1,1.4,2,2.7,2.9,4.3.3,1.3-1.8,8.6-2.6,8.6l-4.8-4.8,4.6-8.2Z"/>
  <path class="st11" d="M170.2,135.3c-.6,1.2.5,2.9,1,4,.9,2.1,2.2,3.2,2.8,4.1,1.3-.7,3,2.4,1.9,3.4,1.1.5.9,1.2,0,1.9.3,1.2-1.8,2.2-2.9,2.4-.6,1-2.4,1.1-2.9,0-.1-1.3-.3-2.6-.5-3.8h-.5c.8-.6,1.1-.3.8-1.4-.5-1.7-2.1-4.3-2.9-6.3s0-1.7-1.2-1.4c1.6-1.1,2.5-1.9,4.3-2.9Z"/>
  <path class="st154" d="M62.2,153c-.5,1.3-2,1.6-2.9,2.4-2-3.1-2.7-6.8-4.1-10.1s0-1.3-1.2-.5c1.3-1.4,2.6-2.3,4.3-3.4,1,3.6,2.2,8.2,3.8,11.5Z"/>
  <path class="st54" d="M104.5,121.8c-1.3,1.4-5.2,6.2-6.9,6.2l-1.7-5.8c2.4-1.3,4.6-2.9,7-4.3,1,1,1.4,2.5,1.7,3.8Z"/>
  <path class="st76" d="M96.3,344.9c-5.3-.5-10,0-15.1-.5s-4.6-.2-4.1-2,4.6-1.2,6.4-1.3,3.6-.1,3.2-1.4c.5.3.9,1.2,1.5,1.6,2.6,1.9,5.2,2.5,8.1,3.6Z"/>
  <path class="st148" d="M207.7,184.2l-2.4,1.9c1.2.2,4.3-.6,4.8.8s-.6,8.5-3.4,7.8-2.2-3.9-2.3-6.4.5-1.9-1-1.7c1.4-.8,2.8-1.6,4.3-2.4Z"/>
  <path class="st1" d="M78.1,162.6c2,0,3.2,4.1,2.4,5.8-2.3,2.8-4.8,4.4-6.7,7.7-1.1-.6-1.4-1.8-1.9-2.9-.3-.3-.4-.7-.2-1l4-2.7c-1.2-2-1.4-3.5-.4-4.4-1-.8-.9-1.9.4-2.1,1.7-2.2,2.6-2.3,2.5-.3Z"/>
  <path class="st83" d="M81.4,141c0-.1-.9-.4-1-.5l-1.2-.4c-.5-.6-2.4-7.6-1.2-8.3,1-.5,1.9-.9,2.9-1.4l.5-.5c.1,0,.4,0,.5,0,.3,1.2,2.9,7.9,2.8,8.3-.2.8-2.9,1.6-3.3,2.7Z"/>
  <path class="st48" d="M59.8,169.8c-.8-1.8-1.9-3.2-2.9-4.8-1.8-2.1,1.4-4.4,3.4-4.3,0,0,.8-.1,1.2.5s2.6,5.7,2.5,6-3.4,2.5-4.2,2.6Z"/>
  <path class="st114" d="M291.2,345.4c-8.3,1.4-16.6.6-25,.5l-.5-1c.3-.2.7-.3,1-.5,7.5,1.2,15.2,1.3,22.7.4s15-1.5,8.9-5.7c1.5-1.2,6.7.9,4.9,3.3s-9.9,2.7-12.1,2.9Z"/>
  <path class="st16" d="M80.5,140.6c-1,.8-2.1,2.5-3.4,1.4-.6-2.5-2.2-5-2.4-7.7-.1-.1-1.6.4-1.9.5,1.6-1.3,3.5-2,5.3-2.9.8,2.5,1.4,6.3,2.4,8.6Z"/>
  <path class="st62" d="M142.9,160.2c1.7-2,3,2.2,2.4,3.4,1.3.3,1.3.9,0,1.9.5,1.5-1.7,5.1-3.4,4.8-.8-1-2.9-2.5-2.9-4.1s3-4.8,3.8-6Z"/>
  <path class="st121" d="M191.3,129.5c1.8.7-1.6,2.5-2.4,2.4s-3-2.6-2.4-3.3h-1.1s-2.2-3.8-2.2-3.8c1.3-1.4,3-2.5,4.3-3.8.6,2.7,2.3,6.3,3.8,8.6Z"/>
  <path class="st54" d="M66.5,172.2c1.6,0,2.2,2.1,1.4,3.4,0,.1,0,1-.3,1.4-.8,1-2.7,4.2-4.1,3.4-.7-1.9-1.2-3.9-1.9-5.8.9-1.6,2.7-2.3,4.1-3.3.1,0,.6.8.7.9Z"/>
  <path class="st138" d="M83.3,160.7c-1,4,0,4.3-2.9,7.7-.8-1.9-1.2-4-2.4-5.8-.8-1.2-.8-2,0-2.4.9,0,2.9-2.6,3.6-2.4l1.7,2.9Z"/>
  <path class="st142" d="M186.5,128.6c1.2,1.4.7,2.2-1.4,2.4.9,1.1-1.1,3.3-2.4,3.4-.2,1.3-.6,1.2-1,0-1.9-1.1-1.9-3.4-1-5.3,1-1.8.7-2.5,2.4-4.3,1.4-1.1,2.3,2.5,3.4,3.8Z"/>
  <path class="st147" d="M88.6,144.4c-.6,1.4-1.3,3.7-1.9,5.3-1.2.1-2.2,1.4-3.4.5-1.2-.1-2.2-3.2-1-3.8,0,0,.4-1.4,1-1.9s3.3-1.9,3.5-1.9c.6.1,1.4,1.3,1.8,1.9Z"/>
  <path class="st157" d="M169.3,123.3c2.3,1.2.6,1.1,1,3.8l1.2-3.4c2.1.6,4.3,1.1,6.5,1-.6,6.3-7.7,4.1-11,1.4.4.2,2.8,1.1,2.9,1l-.5-3.8Z"/>
  <path class="st26" d="M202.4,120.9c1.5.8,2.9,1.5,4.3,2.4,2,1.4,0,5.7-1.9,6.2,0,1-.7.9-1,0-2.1-.4-4.8-6.6-2.9-8.2-.4-.7,0-.9,1.4-.5Z"/>
  <path class="st154" d="M211,126.2l-3.4,5.8c-.3.6-.5,1.1-.4,1.8-.2.1-3.8-4-2.5-4.2.6-1.9,2.5-4.2,1.9-6.2,1.5.9,2.9,1.8,4.3,2.9Z"/>
  <path class="st140" d="M129.9,155.4c-.7,2-1.2,4.2-2.4,6-.3.2-3.2-1-3.9-1.2.3-1.1,1.7-5.6,2.4-6s3.1,1,3.9,1.2Z"/>
  <path class="st86" d="M113.1,147.3c1.4.4,1.9,1.1,1.4,1.9.7,1.4-.7,6.2-2.9,4.8-.7-.5-3.2-1.3-3.2-2.2.9-1.9,1.9-3.7,2.8-5.5.9-1.4,2.2-.6,1.9,1Z"/>
  <path class="st121" d="M58.9,156.9c.8.7,1.3,1.9,1.7,2.9s-.3.9-.2,1c-.7,1.6-4.4,2.5-3.4,4.3-.9-1.5-1.9-2.4-2.9-4.3,1.4-.9,2.4-2.2,3.6-3.4s1.1-.4,1.2-.5Z"/>
  <path class="st63" d="M118.9,151.1c.8,0,2.8,1.3,2.9,2.2s-1.3,5.5-2.9,4.5c-1-.5-1.9-.9-2.9-1.4-1.3-.9-.2-4.9,1.4-4.8-.4-1.2.9-1.5,1.4-.5Z"/>
  <path class="st104" d="M125.6,142.5c1,.8,1.1,0,.6,1.3-1.5,3.6-1.7,5.7-5.9,3.5-.8.5-1-.3-.5-1-.3-1.7.8-5.6,2.9-4.8,1,.4,1.9.7,2.9,1Z"/>
  <path class="st22" d="M146.7,165.5c.2,1,.7,1.9,1.6,2.8l-.6.6c-.8.8-2.1,3.6-2.4,4.8-1.6-1.3-2.1-1.9-3.4-3.4,1.2-1.5,2-3.4,3.4-4.8.5-1,.8-1.2,1-.5.8-.7,1.1-.4.5.5Z"/>
  <path class="st144" d="M149.6,161.7c1.3.2,1.2.6,0,1,.5.7.3.9-.5.5-.2,1.2-.5,1.2-1,0h-.7c-1.4,1.8-2.1,1.9-2.2.5-.1-.3-.7-.7-.9-1.2-.5-1-.2-2.5-1.5-2.1,1.2-1.7,2.5-3.2,3.8-4.8-.3,2.3.8,4.2,2,6s.9.2.9.3Z"/>
  <path class="st0" d="M212,162.1c-3,1.9-6.1,3.5-9.1,5.3l-1.9-1.4c2.9-.7,7-4.9,9.6-5.6s1.4,1,1.5,1.7Z"/>
  <path class="st49" d="M117.4,151.6c-.4.8-1.1,3.7-1.4,4.8-1.5-.8-2.8-1.5-4.3-2.4,1.8.1,1.5-3.6,2.9-4.8,1.1,0,4.7,1.4,2.9,2.4Z"/>
  <path class="st117" d="M122.7,141.5c-1.7.9-1.3,3.5-2.9,4.8-.8.1-4.5-1.3-2.9-2.4-1.1-.9,0-4.3,1.4-4.3.8.4,3.4,1.6,4.3,1.9Z"/>
  <path class="st154" d="M181.7,134.3c1.1,1.2-1.1,3.4-2.4,3.8l-2.4-5.3c1.7-.7,3-2.3,3.8-3.8-.4,1.9,1,3.6,1,5.3Z"/>
  <path class="st130" d="M131.3,143.9c.5.2,1.5-.2,1.8.7-.6,2.2-1.2,4.3-1.8,6.5l-3.4-1.2c-.1-.8,1.5-3.8,2-4.7s.2-1.5,1.4-1.3Z"/>
  <path class="st147" d="M164,181.3c.8.1.3,1.2,0,1.9,1.1.7.6,1.2-.5,1.4-2.1-1-3.7-1.7-5.8-2.9l1-3.4c.8.4,5.1,2.6,5.3,2.9Z"/>
  <path class="st168" d="M97.3,138.2c-.1.2-.2,1.4-.7,1.4-1.1,0-1.9-2.3-5,.5-.8.6-1.4.8-.8-.5.9-1.9,2.2-3.8,3.2-5.7,1.5-2.8,2,3.6,3.4,4.3Z"/>
  <path class="st92" d="M71.3,180.9c-1.4,2.7-2.6,5.8-3.8,8.6-1-.3-1.1-2.1-1.4-2.9.1-1.9,2.1-4.1,3.4-5.5s.8-1.1,1.9-.3Z"/>
  <path class="st143" d="M118.4,139.6c-.4,1.3-.8,3.1-1.4,4.3.2,1.2-.1,1.3-1,.5-1.3.9-3.1-1.2-2.4-2.4.3-.6,1.6-4.1,1.9-4.3,1.2-.1,1.9,1.4,2.9,1.9Z"/>
  <path class="st5" d="M189.9,168.4c-1.3,1.8,1.4,2.5,1.9,3.4.6,0,1,.5,1,1.4-1.4.8-2.9,1.6-4.3,2.4-1.1.5-1.3.2-1-1-.4-.4-2.3-2.7-2.4-2.9-1.4-.1-1.3-1,0-1.4.7-1,1-.9,1,.5,1.3-.3,1.5.9.7.9s-.6-.5-.7-.9c-1.2-.8-.5-1.8,1.9-2.9.8-1,1.6-.8,1.9.5Z"/>
  <path class="st24" d="M214.9,177.5c3.6-3.7,11.2-9.2,15.6-13s.8-1.2,1.7-1c.8.7-12,10.9-13.1,11.6s-2.8,1.5-4.2,2.3Z"/>
  <path class="st144" d="M116,144.4c.7.3-1,3.9-1.5,3.9l-1.4-1c-.6-.5-1.2-.9-1.9-1,.7-1.5,1.6-2.9,2.4-4.3l2.4,2.4Z"/>
  <path class="st24" d="M214.9,177.5c-3.2,3.3-12.9,8.1-17.6,10s-2.6,1-4,1.1c-.2-1.4.3-.8,1.1-1.1,7.2-2.9,13.9-6.2,20.5-10Z"/>
  <path class="st18" d="M199,188.5c-1.6.8-.2,3.6-.5,5.5-.4,3.1-2.2,1.3-2.4-1s1.3-3.4-.5-3.1c.9-.3,2.4-1,3.4-1.4Z"/>
  <path class="st107" d="M169.3,184.7c.7,0,1.9.2,1.9,1,.4.2,1,.7,1.4,1,.6-.7.8-.4.5.5-.2.3,0,1.2-.7,1.3-1.8-.4-3.4-1.2-5.1-1.8-1.1-.8-1.4-1.3,0-1.9-.3-1,.3-1.3,1-.5.2,0,.7.4,1,.5Z"/>
  <path class="st103" d="M221.1,154.5c-1.9,2.6-2.3,3-4.8,4.8-3.3-1.2-.5-1.4.5-2.2s1.9-2.1,2.9-2.9.7-1.1,1.4.2Z"/>
  <path class="st107" d="M198.1,170.3c-1.7,1-3.6,1.9-5.3,2.9-1.6.4-.7-1.1-1-1.4,1.9,0,5.4-5.1,6.2-1.4Z"/>
  <path class="st21" d="M243.7,149.2c-2.2,4.3-5.9,9.5-9.4,13s-.8,1.1-1.7.9c3.8-4.6,7.4-9.2,11-13.9Z"/>
  <path class="st56" d="M164,183.3c.3-1.9.7-2.1,1.3-.8,2.2.8,2.9,1.6,2.1,2.2.1.5,0,1.3,0,1.9-1.5-.6-2.6-1.3-3.8-1.9-.2-.6.4-1.2.5-1.4Z"/>
  <path class="st97" d="M104.5,127.1c-.3,1.1-3.3,4.7-4.3,6.2-1.3,1.4-1.4-1.6-1.2-1.9.3-.5,4.6-3.9,5.5-4.3Z"/>
  <path class="st78" d="M243.7,149.2c.9-1.1,3-8.3,3.4-8.6,1.7-1.8.2,2.5.2,2.6,0,.4.7.9.8,1.2-.7.3-1.2,1.3-1.4,1.9-.1-2.4-.8.5-1.5,1.6s-1.1,1-1.4,1.3Z"/>
  <path class="st131" d="M154.9,121.4c-1.4,2.1-2.6,5-3.8,7.2-.6.6-.7.4-.5-.5,1.1-2.8,2.5-5.1,3.8-7.7l.5,1Z"/>
  <path class="st57" d="M143.3,119c-1.3,1.7-2.7,4-3.8,5.8-.6.6-.9.4-.5-.5,1.2-2.1,2.5-3.8,3.8-5.8l.5.5Z"/>
  <path class="st40" d="M169.3,147.3c.2,0,.4,0,.5,0,.4,1.2-.5,1.9-3,2-3.2,0-6.3.4-1.7,2.2l.3.6c0,1.1-1.4,1.8-2.4,1.4-1,.9-1.7,1.8-2.4,2.9-.5.9-.8.8-1.4,0-1.6-.6-2.5-2.7-1.9-4.3-.2-.5-.3-1.6-.5-2.4,1.9-1.3,2.2-2.5.9-3.5-.5.7-.9,1.2-1.9.7,0-.1-.7-.3-1-.5,1.4-1.2,2.5-1.9,3.8-2.9.3,1,1.1,4.6,1.9,5.1s7-1.4,8.7-1.2Z"/>
  <path class="st127" d="M188.5,175.6c-1.2.7-2.5,1.6-3.8,2.4l-.5-.2c.3-1.6,2.6-1.6,3.4-3.1.2.3.8.4,1,1Z"/>
  <rect class="st43" x="224.5" y="125.7" width="10.6" height=".5"/>
  <path class="st31" d="M224.5,147.8c-.3,1.3-.4,1.7-1,2.9-2.2-1,.9-3.2.5-4.8l.5,1.9Z"/>
  <path class="st89" d="M202.4,120.9l-1.4.5c-.1,1.7-3.1,2.9-4.3,1.4.5-1.2.9-3,1-4.3,1.7.7,3.2,1.6,4.8,2.4Z"/>
  <path class="st156" d="M180.3,191.4c.1.8-1.1.5-1.7.5-1.5,0-3.1,0-4.6,0-.1-.8,1.1-.5,1.7-.5,1.5,0,3.1,0,4.6,0Z"/>
  <path class="st122" d="M184.6,191.4l-2.9-.2c.8-1.1,2.4-1.1,2.9.2Z"/>
  <path class="st145" d="M278.7,335.8l-.5,1.4c-.5,0-2.2,1.5-1-.5.6-.5,1.3-.8,1.4-1Z"/>
  <path class="st110" d="M192.8,188.1c.3.3-.2,1.3-.9,1.2l-4.3,1.2c-.2-1.4.3-.8,1.1-1s4-1.5,4.2-1.4Z"/>
  <rect class="st110" x="185.1" y="190" width="1.9" height="1"/>
  <path class="st121" d="M173.1,187.1c-.2-.1-.3-.4-.5-.5,1.9-3.3,3.6-4.1,6.7-5.8-3,2.4-4.4,2.7-6.2,6.2Z"/>
  <path class="st87" d="M54.1,337.7v.5c-.1.3-.3.3-.5,0-.7.6-1,.3-.5-.5-.2-.1-.3-.3-.5-.5.7.1,1.2.4,1.4.5Z"/>
  <path class="st55" d="M260.5,212.5c.4,1.3-.5,2.2-1,1,.3-.2.6-.8,1-1Z"/>
  <path class="st27" d="M245.6,153.5c-.5-.5-.6-1,0-1.4,0,.4,0,1.2,0,1.4Z"/>
  <path class="st16" d="M80.9,130.5l.5-.5c-.2,0-.3.4-.5.5Z"/>
  <path class="st161" d="M77.6,354c10.6.2,21.4,0,31.9-.5,2.7-.1,4.6-1.2,7.4-.5.9,1.3.5.9-.7,1-22.9,1.1-45.2,1.6-68.1-1s-1.7-.3-2.2-.9c10.4,1.3,21.1,1.7,31.7,1.9Z"/>
  <path class="st23" d="M119.3,354c-.8-.1-.9-.5-1-.5l1,.5Z"/>
  <path class="st81" d="M301.7,335.3c3.7.5,7.5.6,11.1,1.6s3.9,1.8,6.2,2.5c1.1.8.4,4-.8,4.5s-1.3,0-1.7.1c-13.5,6.2-39,4.9-54.4,4.3s-1.6.3-.7-1c3.2,0,7.9.9,11.3,1,13.6.2,27.6-.6,40.6-3.9,6.1-3.2,4.2-5.7-5.8-7.7-.2,0-.3,0-.5,0l-2.9-.5c-.3,0-.6,0-1,0l-1.4-1Z"/>
  <path class="st32" d="M129.3,186.2c2,1.8-3.4,17.6-5.1,20.4-8.4,13.6-28.1,4.8-35-6-7.3-11.4-2.2-22.8,4.2-33.2l35.9,18.8Z"/>
  <path d="M244.1,268.4c1-6.2,11.2-8.8,13.9-2.6,2.3-.7,2.6-2.9,5.6-3.3s7.4.3,8.9,4.4,1.4,18.2.9,22.2-.2,1.7-.7,1.7h-7.4v-19.4c0-.9-2.4-.9-2.4,0v18.7c0,0-.7.7-.7.7h-7.4v-19.4c0-.9-2.4-.9-2.4,0v18.7c0,0-.7.7-.7.7h-7.4v-22.3Z"/>
  <path d="M221.3,290.7c-.6-.2-.7-1.1-.7-1.7-.5-3.9-.3-13.3,0-17.2,1.7-15.7,25.3-10.1,19.9,4-1.2,3-6.5,6.2-9.5,5.2s-1.1-5.8-.8-6.8,3.3-.5,2.4-3.4-3.8-.6-3.8.9v18.9c-1.9-.4-5.8.5-7.4,0Z"/>
  <path class="st137" d="M240.3,300.8c.3.4.5.4.5,0,.2-2.4-1.1-5.6,1.9-4.8v10.3c0,.3-.9,1.1-1.7.2s-2-5.8-2.4-5.8l-.2,6.2c-.4.2-1.4-.4-1.4-.7v-10.3c2.2-.4,2.7,3,3.4,4.8Z"/>
  <path class="st101" d="M224.9,296c2,0,4-.6,4.9,1.6s-1,3.5-1,4.8,1.8,4.2,1.3,4.6c-1.8,1.6-2.4-4.6-3.1-4.8-1.1-.4-.7,1.1-.7,1.7,0,1,0,2.1,0,3.1h-1.4v-11Z"/>
  <path class="st98" d="M267.7,297.4c0,.2.5.4.5.5.5.4.9,1.2,1,2.4,5,1,4.3,7.9-.2,4.9l-.8.4c-.1,0-.3,0-.5,0-3.5,2.3-5.5-1.3-3.4-4.3-2.3-3.5.3-6.3,3.4-3.9Z"/>
  <path class="st41" d="M250.4,296h1.4c.2,1.6-.9,5.1,1.7,4.8s0-4,.2-4.8h1.4v11c-2.5.3-1-4.4-1.4-4.8-3.3-.8-1.5,2.7-1.9,4.8h-1.4v-11Z"/>
  <path class="st53" d="M268.1,297.9c1.2-4.8,7.5.2,4.6,1.4s-.6-3.2-2.7-1.7,2.1,3,2.6,3.6c1.5,1.7.8,5.2-1.5,5.7s-1.8-.8-3-1.4c.2-.7-.7-1.9.7-1.9s.3,2,1.9,1.8,1.1-1,1.2-1.6c.2-2.3-2.9-2-3.6-3.1s0-2-.2-2.9Z"/>
  <path class="st53" d="M279.7,299.3c-1.2.3-1.2-1-1.7-1.4-1.8-1.6-2.2.5-1.4,1.9s3.2.1,3.2,4.1c0,6.3-6.9,1.4-5.3-.2s2.4,3.2,3.8,1.4-2.7-3.6-3.3-4.6c-2.8-4.2,5.5-7.3,4.7-1.2Z"/>
  <path class="st79" d="M231.7,296c.8.1,4.7-.3,4.8.2.4,2.2-2.1.9-3.4,1.2-.3,2.9,0,3.4,2.9,3.6-1.3,2.6-3.7-.6-2.9,4.1h3.1c1.1,2.7-2.8,1.8-4.6,1.9v-11Z"/>
  <path class="st79" d="M267.7,305.6c0,2.3-3.2,1.2-4.8,1.4v-11c.9.2,4.5-.2,4.8,0s0,1.1,0,1.4h-3.4c-.3,2.9,0,3.4,2.9,3.6,0,1.8-2.7,1-2.9,1.2s-.1,2.8,0,2.9,2.1,0,3.4.5Z"/>
  <path class="st108" d="M245.6,304.9c.2.7,1.2.6,1.6.3.7-.6-.4-1.3,1-1.5s.3,2.9-1.1,3.3-2.4-.2-2.8-.9-.4-8.3,0-9.1c1-2.1,5.5-1,4.6,1.9-2,.5-1.3-1.9-3.4-1.4.3,2.1-.5,5.5,0,7.4Z"/>
  <path class="st88" d="M220.6,297.4c-.2-.2-2.5.6-1.2-1.4h4.5c.7,2.1-1.4,1.3-1.4,1.4v8.9c0,.8-1.9.8-1.9,0,0-1.3.3-8.6,0-8.9Z"/>
  <path class="st169" d="M258.5,296v9.1h3.1c1.1,2.7-2.8,1.8-4.6,1.9v-11h1.4Z"/>
  <path class="st60" d="M252.1,208.7c1.2,0,1.9,4.3.5,4.8-2.6.8-1.9-4.8-.5-4.8Z"/>
  <path class="st126" d="M266.7,237c.6.4.9,4.4-.7,4.8-2.2-.9-1.3-6.1.7-4.8Z"/>
  <path class="st7" d="M250.9,202.9c1.6.3,1.1,4.8.2,4.8s-.6-4-.2-4.8Z"/>
  <path class="st106" d="M263.3,230.3c-.1,1.3.2,2.8,0,4.1-.3,2.2-1.5-.1-1.4-1.9s.3-2.7,1.4-2.2Z"/>
  <path class="st90" d="M257.6,221.6c.2.2.8,4.8-1,4.3-.3-.3-.4-5.7,1-4.3Z"/>
  <rect class="st120" x="259" y="236" width="1" height="1.9"/>
  <path class="st51" d="M240.8,300.8c0,.3.2,1-.2,1-.5,0-.1-.6-.2-1h.5Z"/>
  <path class="st96" d="M120.3,94c.9,1.4.9,1.9,0,1.4-1.5-1.5-3.7-.8-5,.5-3.5,3.1-4.2,18.8,4.6,14.9,1.1,1.1-4,2.9-5,2.8-6.7-.3-6.5-13.2-4.2-17.6s7-5.9,9.7-2.1Z"/>
  <path class="st32" d="M157.7,77.2l-2.6-4.8c-1,0-2.2,5-3.1,3.8-.2-1.1.4-4,0-4.7s-4.9-1.8-4.2-4.5c1.1-3.9,4.6.4,6.1.9,4.5,1.4,7.2-4.9,9.1-3.9,3.3,1.7-.6,5.2-2.2,6.5s-2,.9-2.4,1.4c-.6,1-.7,4-.7,5.3Z"/>
  <path class="st4" d="M118.8,98.9c.9.5,1.7,6.3.3,6.7-2.6.6-3-8.4-.3-6.7Z"/>
  <path class="st151" d="M199,84.9c-1.1,1.4-2.2-3.8-.7-3.8s.8,3.1.7,3.8Z"/>
  <rect class="st162" x="200.5" y="80.1" width="1.4" height="3.4"/>
  <path class="st15" d="M137.6,128.1c-.7,1.3-1.1,3-2.4,3.8-.2-1.7,1.2-3,1.9-4.3.6-.6.8-.4.5.5Z"/>
  <path class="st139" d="M203.3,76.3c-.3,1,.8,3.8-1,3.4.3-1-.8-3.8,1-3.4Z"/>
  <path class="st160" d="M204.8,83c.2.2.4,3-.2,3.4-1.2-.4-.9-4.6.2-3.4Z"/>
  <path class="st34" d="M206.2,83c-1.7.4-1.1-2.7-.2-3.4l.2,3.4Z"/>
  <path class="st46" d="M139.5,124.7c-.7,1.1-1.3,2.2-1.9,3.4l-.5-.5c.6-1.2,1.3-2.2,1.9-3.4l.5.5Z"/>
  <path class="st37" d="M203.3,88.7c-1.3-.3-1.3-2.4-.2-2.9s.6,2.4.2,2.9Z"/>
  <path class="st36" d="M151,128.6l-1.9,3.8c0-1.6.9-2.9,1.4-4.3l.5.5Z"/>
  <path class="st32" d="M200.9,87.8l-.2,2.9c-.9-.7-.8-1.9-.7-2.9h1Z"/>
  <path class="st44" d="M120.3,94c.4.5,1.5,1.8,1,2.4-1,1.1-.9-.9-1-1l.4-.2-.4-1.2Z"/>
  <path class="st128" d="M196.6,199.1c.2.1.3,1.7.6,1.9.8.6,4.1-2.4,3.8,3.6s-5.5,3-6.2,2.1-.7-9.2,1.8-7.6Z"/>
  <path class="st75" d="M243.2,169.3c-3.6-1-2.4-8.5,1.2-9.6.7,0,1.5,4,1.4,4.9-.3,2.1-2.8,2.6-2.6,4.7Z"/>
  <path class="st60" d="M237,171.2c-1.5-.9-1.3-7.5,1.1-7.1s2.1,9-1.1,7.1Z"/>
  <path class="st80" d="M208,198.7c1.3,1.3.9,5.9-1.9,5.1s-.8-7.9,1.9-5.1Z"/>
  <path class="st58" d="M188.9,205.9c.8.5,1.1,5.3-1.1,5.2-2.1-.3-1.7-6.9,1.1-5.2Z"/>
  <path class="st125" d="M191.1,194.3c2-.4,1.8,5.5.5,5.8-2.1.4-2.4-5.3-.5-5.8Z"/>
  <path class="st136" d="M217.7,185.2c.7.7.6,5,.1,6.1-1,2.3-1.6-1.8-1.5-2.9s.4-4.2,1.4-3.2Z"/>
  <path class="st29" d="M221.6,183.7c.6.4,1,4.8-.7,5.3-1.7-.7-.8-6.4.7-5.3Z"/>
  <path class="st14" d="M229.5,174.6c1,0,1.9,5.8.5,5.7s-1.9-5.8-.5-5.7Z"/>
  <path class="st21" d="M226.9,189.5h-1.4c-.6-8.1,2.3-6.7,1.4,0Z"/>
  <path class="st30" d="M221.4,190.5c1.6-.3,1.6,3.6.5,3.8-1.6.3-1.6-3.6-.5-3.8Z"/>
  <path class="st148" d="M221.3,178.5c1,0,1,3.8,0,3.8s-1-3.8,0-3.8Z"/>
  <path class="st109" d="M214.9,185.2c-.4-1.3-.8-2.7.2-3.8,1.1.9,1.2,3.3-.2,3.8Z"/>
  <path class="st152" d="M237.9,175.6c-.3,1,.8,3.8-1,3.4.3-1-.8-3.8,1-3.4Z"/>
  <path class="st150" d="M201.4,197.6c-1.4-.6-1.3-2.9-.2-3.8l.2,3.8Z"/>
  <path class="st95" d="M118.4,34.5c-1.3,3.4-2.8,6.4-3.6,10.1s-1.3,7.6-1,11.5c-4.6-6.4-2-17.1,3.6-22.1l.5-.5c0,0,.3,0,.5,0,1-.4.8.4,0,1Z"/>
  <path class="st165" d="M130.4,26.9c-1.5,6.1-1.3,12.8,0,18.9,0,.4-.9.3-1,.2-.4-.3-2.3-4.1-2.6-4.9-1.2-4.1-.7-9.8,2-13.2s.6-1.3,1.5-1.1Z"/>
  <path class="st165" d="M144.3,38.4c-4.1-4.4-6.2-10.8-6.7-16.8,4.3,4,6.5,11,6.7,16.8Z"/>
  <path class="st165" d="M152.9,33.1l-8.2-14.6c-.8-.4,0-1.2.2-1.2s3.1,1.8,3.6,2.2c3.4,3.1,4.9,9.2,4.4,13.6Z"/>
  <path class="st17" d="M161.4,12.6c1.1,1.1,1.5,3.1.9,4.6l-7-5c1.4-1.9,4.6-1.1,6.1.4Z"/>
  <path class="st13" d="M118.4,33.6c.1,0,0-.4.2-.5,1.2-.4.8,1.2-.2,1.4,0-.2.3-.5.5-.7l-.5-.2Z"/>
  <path class="st13" d="M117.4,34.1l.5-.5c-.2.1-.3.3-.5.5Z"/>
  <path class="st158" d="M198.1,145.4c.6.3,2.3,3.6,3.4,4.1-2.5,2.6-4.2,5.6-7.7,7-.4,1.1-1.3,0-1.4-1-1.6.6-2.8-3-1.4-3.8.3-1.1,1.1-2.1,2.6-3.1,1.1-1.8,2.3-2.9,3.7-3.2,0-1,.7-.9,1,0Z"/>
  <path class="st8" d="M211.3,144.9c.5,0,5.8,5.1,5.9,5.5.2,1.1-4.5,4.4-5.5,4.4s-3.5-4.3-4.5-5l4.1-4.9Z"/>
  <path class="st83" d="M196.1,161.2c-1.9-.5-.3-1.7,1-1.9,3.6-1.1,4.2-4.1,7-6.2l3.6,4.1c-1.4.8-9.5,6.1-10.1,5.8s-.9-1.4-1.4-1.7Z"/>
  <path class="st83" d="M200.9,142.5c-.9-.8-1.4-1.6,0-1.9-1-1.2,1.7-3.6,2.9-2.9-.2-1.1.2-1.4,1-.5l3.8,4.6c-.9.6-3.5,3.9-4.1,4s-3.2-2.7-3.5-3.3Z"/>
  <path class="st63" d="M192.3,162.1l1.9,3.1c-.9.4-3.8,3-4.3,3.1s-1.6-.2-1.9-.5c-1.3.4-1.6-.4-1-1.4-.5-.3-.7-1.7.5-1.4-.9-1.2,2.7-3.9,3.8-2.9,0-.8.2-.8,1,0Z"/>
  <path class="st12" d="M192.3,156.9c.7-.9,2.9,2.2,3.5,3s-1.2,1.3-1.5.3c-.2,0-.3.4-.5.5-1.9,2.7-3.2-.4-3.8-2.4.8-.4,1.6-.9,2.4-1.4Z"/>
  <path class="st163" d="M192.3,155.4c.7,1,1.4.9,1.4,1,1.6,2.2.3,3.8,3.4,2.9-1.2.3-.8,1.6-1,1.9s-2.7,0-1.9-1c.2-.1,1,.3,1-.2-.5-.8-2-3-2.9-3.1-.1,1.7-.4.5-1.4,1.2s1,2.4.9,3.6c.6-.5,1.3-.6,1.9-1,.3,1.1-.7,1-1.4,1.4s-.8-.1-1,0c-1.2.4-2.2-1.8-2.4-2.9-1.1-.6-.8-1.5.5-1.4-.4-1.6,2.2-2.4,2.9-1-1.1-.5-1.1-1,0-1.4Z"/>
  <path class="st69" d="M204.8,129.5c.9.8,1.3,5.4,2.9,2.4-.4,1-.4,1.9,0,2.9-1.7-.8-1.9,1.3-2.9,2.4s-.8.3-1,.5c-1.4,0-1.7-1.3-.5-1.9q.6-.7,0,0c-1.1,1-1.8-.3-1.9-1.4-1.1-.6-.9-.8,0-1.4.2-1.1,1.3-3,2.4-3.4.3,0,.9,0,1,0Z"/>
  <path class="st28" d="M198.5,137.7c.7,1,1.5,2,2.4,2.9-.4.6-.3,1.3,0,1.9l-.9-.5c.1,1.3-1.5,1.9-1.9,2.4-.5-.5-.6-.6-.6-1.3s1.1,0,.6,1.3c0,.1,0,.7,0,1-.2,0-.7,0-1,0-.8.2-1.5-.3-1.9-1.7l-1-.7c-1.2-.6-1-1.9.5-1.9-.3-.3-.5-.6-.4-1l2.8-2.4c0-1.4,1.1-1.3,1.4,0Z"/>
  <path class="st8" d="M168.8,167.9c.3,1,2.5,2.8,2.4,3.5s-2.5,2.6-3,3.2-1.1,2.2-1.2,2.4c.3,1.4-1.4,1.7-1.9.5-.7-1.2-3.2-2.2-3.3-2.5-.9-1.6,4.9-5.7,5.7-7.1,0-1.3,1-1,1.4,0Z"/>
  <path class="st83" d="M178.9,160.7c1.4-.4,2.4,2.2,1.9,3.4.9.2.7,1.8-.5,1.4.6,1.3-2.6,3.5-3.8,3.4-2.5,1.2-2.8-2.6-4.8-3.4-.7,0-.6-1.8.5-1.4-.4-1.8,3.7-3.7,5.3-3.8,0-1.1,2-.7,1.4.5Z"/>
  <path class="st146" d="M169.7,179.4c1.6-1.6,2.4-3.9,4.6-4.7.7-.2,2,2.2,2.6,2.8.6.5.5.7-.2.5-1.3,1.6-2.6,3.1-4,4.7l-2.1-1.8c-1.3.6-1.6,0-1-1.4Z"/>
  <path class="st16" d="M182.7,168.9c.5,1.4-2.7,4.2-3.8,2.9-.5-.5-3.3-.9-2.4-2.9s2.6-2.3,3.8-3.4c.1-.4.4-.8.9-.8s2.9,4.1,1.5,4.1Z"/>
  <path class="st73" d="M184.1,168.9c1.1-.1,1.5.5,1,1.4,0,.4-.1,1.1,0,1.4-3.1.7-3.9,4.8-6.4,1s.2-.9.2-1c1.5-.7,2.5-2.1,3.8-2.9-.4-1.6.9-1.1,1.4,0Z"/>
  <path class="st121" d="M176.9,177.5c0,0,.5,0,.8.2.7.6,1.4,1.6,2.1,2.2l-2.9-1.9c-.5,1.8-2.8,2.8-3.8,4.6l1,.2c-1.2,2.5-2.3-1.2-3.8-1.9h.5c.9.2,1.7,1.1,2.4.8s3-3.2,3.8-4.1Z"/>
  <path class="st91" d="M166.9,177c0,.7,1.1,1.8,1.6,2.2s1.1,0,1.3.2.2,1.3,1,1.4c-.1,0-.3,0-.5,0s-.4,0-.5,0l-.5.5c0,0,0,.4,0,.5l-.5.5c-.2.6-.3,1.3-.5,1.9-.2,0-.7.4-1,.5-.3-1.6-1.4-1.3-2.6-2.4l-.7.9c0-.3,0-1.8,0-1.9.4-.6.6-1.1,1.4-1,2.2,4.2,3-1.7.5-.5-1.8.3-.1-.9-1-2.4.5,0,1.6-.1,1.9-.5Z"/>
  <path class="st33" d="M172.1,164.1c-.3.2-.4,1.4-.5,1.4-.1,0-.9-.1-1.1.1-.5.4-1.7,1.2-1.8,1.3q-.3-1.7,0,0c0,0,0,.8,0,1h-1.4c0-1.2-1.2-3.4-2.4-3.4-.8-.5-.7-.8,0-1.4.5-.9,2.3-2.9,3.4-1.9-.2-1.4.7-1.5,1.4-.5,1,1.1,1.8,2.2,2.4,3.4Z"/>
  <path class="st121" d="M169.3,184.7c.7-1,4.5,1.2,1.9,1-.3-.2-1.6-.8-1.9-1Z"/>
  <path class="st121" d="M168.8,182.3l.5-.5c-.2.3-.5.4-.5.5Z"/>
  <path class="st121" d="M169.3,181.3l.5-.5c0,0-.4.4-.5.5Z"/>
  <path class="st85" d="M53.6,338.2c.4.1.4.3,0,.5-5.3,1.7-7.6,5.2-1,7.4,8.3,2.8,27.7,4.2,36.5,4.1-2.7,1.2-5.4,0-7.9,0-9.4-.3-19.6-.6-28.6-2.6s-.8-1.2-2-1.4-1.9.2-2.5,0-3.5-2.2-3.6-2.4c-1.1-1.9,3.9-4.8,5.3-5.3s2.4-.1,3.2-.9c.2.1.4.5.5.5Z"/>
  <path class="st39" d="M113.1,350.7c-.7.5-1.9.8-2.8.9-8.9.6-18.1.7-27.2.6s-2.1.3-2.6-.5c10.9.3,21.7-.7,32.6-1Z"/>
  <path class="st85" d="M111.7,348.3c.9,1.3.5.9-.7,1-6,.2-12.1,1-18.2,1.5s-2.5.3-3.1-.5c2.5,0,5.5-1,7.4-1h8.2c1.7,0,4.9-1.5,6.5-1Z"/>
  <path class="st66" d="M160.6,156.4c1.1,0,5,5.6,4.7,6.1s-.3.4-.4.6c.1.2.3.4.4.7,0,.3-.2.5-.4.7-1.7,2.2-5.4,4.5-7,7.2l-6.4-5.7c-.9-.7-.4-1.3,1.4-1.9-.2-.3-.4-.8-.1-1.1,2.5-2,3.5-3.5,5-6.5.4-.2.9-.3,1.3-.1.4-.4,1-.4,1.4,0Z"/>
  <path class="st12" d="M165.9,179.9c.1-.2-.3-.9.2-1,1.1-.1,2,.9,3.1,1,.3,1.3-.7.7-1.1,1.6s.2,1.7,0,1.7c-.7.4-2.9-.9-3.6-1.4-.3-.4.5-.9.7-1.4s.4-.3.5-.5Z"/>
  <path class="st45" d="M152.9,164.1c-.6.6-1.3,1.8-1.4,1.9-.9.8-3.5,1.7-2.4,2.9-.1-.1-.6-.2-.7-.5-.2.2-.6.3-.7.5.5-1.6-2-2.2-1-3.4l.6-.2c1.3,1.5,2.6.6,1.7-1.1s-.1-.8,0-1.1l.5-.5.6-.2c.8.7,1.7,1.2,2.7,1.7Z"/>
  <path class="st158" d="M65.1,156.9c.3-.3,5-3.6,5.3-3.4l2.4,5.8c.5.6.5,1.7-.5,1.4-.5.6-4.2,4.3-4.6,4.3-.8-1.6-3.9-6.8-2.6-8.1Z"/>
  <path class="st8" d="M77.6,147.8c1.8-.2,1.2,0,1.5,1.1s1.3,3.6,1.2,3.9c-.1,1-3.3,2.2-3.7,3.6-.8,1.4-1.5.6-1.4-1-.1-1.6-1.3-3.4-1.9-4.8,1.8-.3,3-2,4.3-2.9Z"/>
  <path class="st6" d="M75.2,155.4c.1.8,1.4.9,1.4,1s-.3.5-.2,1c.3,1.1,1.5,2.1-.3,1.9-2.5-.7-1.7,4.1-.2,1.4h1.1c.1-.2-.1-.8,0-1s.8.5,1,.5v2.4c-.2-.3-.6-1-.7-1-1.1,1.2-2.2,1.6-2.2,3.4-.5,1.3-1.5.9-1.4-.5.4-1.3-.3-3.1-1.4-3.8.3-.4.3-1.2.5-1.4,1.1-1.4,2.6-1.1,2.4-3.8Z"/>
  <path class="st153" d="M55.5,338.2c-.5.7-1.4.3-1.9.5v-.5c.1,0,.3,0,.5,0,.5,0,1,0,1.4,0Z"/>
  <path class="st35" d="M313.3,344.4c6.1-5.4-1.7-5.7-5.8-7.7,2.1.2,3.9.5,5.9,1.1s3.6,1.3,3.8,1.5c2.4,3.2-1.5,4.5-3.9,5.1Z"/>
  <path class="st35" d="M307,336.8c-.9,0-2.4.3-2.9-.5.9,0,2.3-.4,2.9.5Z"/>
  <path class="st142" d="M75.2,165c0,1.7,1.7,3.8,1.4,5s-4,2.7-4.8,3.2-.8-.1-1,0c-1.3.8-2.6-2.5-1.4-3.4,0,0,0-.7.3-.9,1.5-1.3,3.3-2.3,4-4.4l1.4.5Z"/>
  <path class="st12" d="M69.4,169.8l1.4,3.4c-.3.2-2.8,2.2-2.9,2.4-.7-1-1-2.4-1.4-3.4-.1-1.7,2.2-1.9,2.9-2.4Z"/>
  <path class="st16" d="M63.6,157.8c0,.1-1.9.7-2.1,1.5-.2,0-1.8-3.2-1.7-3.3s2.4-.7,2.9-1.4c-.3.9,1.2,2.9.9,3.3Z"/>
  <path class="st5" d="M119.8,146.3c0,0,.5.9.5,1,0,.1-1,2.2-1.1,2.3-.2.2-.6,0-.8.1q-1.2-.9,0,0c0,.3.5,1,.5,1.4-.3,0-1.3.3-1.4.5,0-1.7-2-1.6-2.9-2.4s-.6-1.3-1.4-1.9l1.9.5c.1-1,.5-2.5,1-3.4s.9-.3,1-.5c0,1.7,2.1,1.6,2.9,2.4Z"/>
  <path class="st145" d="M291.2,345.4c1.9-.3,9.8-1.9,10.8-2.9,2.6-2.5-2.1-3.1-3.6-3.4-5.7-1.1-14-2.3-19.7-1.9.5-.8,1.8-.5,2.6-.5,6.1,0,13.2,0,19.1,1.6s6.3,1.8,4.3,4.5-8.4,2.4-9.9,2.5-2.4,0-3.5,0Z"/>
  <path class="st16" d="M159.2,156.4c-1.2,1.3-2.6,4.7-4.3,6.5s-1.6.9-1.9,1.2c-2,.9-2.3-.1-3.4-1.4s.1-.8,0-1c3.5-2.6,5.5-5.9,7.7-9.6.4,1.3,1.8,2.8,1.9,4.3Z"/>
  <path class="st12" d="M155.8,146.8l2.2-2.4c.5.2,1.9,3.7,1.6,4.2s-2.3,1.8-2.8,1c0-.2,0-.3,0-.5l-1-1.9c0-.1,0-.3,0-.5Z"/>
  <path class="st40" d="M156.8,149.2c-.9-.4-.7-1.3-1-1.9.8.5.7,1.2,1,1.9Z"/>
  <path class="st16" d="M196.6,122.8l3.8-1-2.9-.5.5-1.9c1.5.9,2.6.2,2.9,1.9s.3,2.4.7,3.8,2.1,3.6,2.1,4.3-1.1,3.4-2.4,3.4c-1.2,0-2.2-1-3.1-3-1,2.4-2.2,3.4-3.6,3-.2.6-2.7-2-2.7-2.2s.1-.4.3-.6c1.2-2.3,3.3-4.8,4.3-7.2Z"/>
  <path class="st6" d="M191.3,129.5c.1.2.8.3,1,.5.7,1.1,2.3,2.7,2.4,2.9,1.3.4,1.3,1,0,1.4,0,1.3-1.9,2.9-2.9,1.4-.8-.1-.7-1.4-.4-1.2s.4.9.4,1.2c1.3.2,1.3,1.1,0,1.4-1,.6-1.2,0-1.4-1h-1.1c-.9-2.4-2-4.1-4.2-5.3.6-.7,1.8-1,1.4-2.4,1.3,1.6,3.9,4.4,4.8,1Z"/>
  <path class="st12" d="M178.9,140.1l.6-.9,1.8,3.3c.7.3.3,1.4-.5,1.4,1,1.8-3.7,4.8-4.8,2.9,0-.2-1.6-2.9-1.9-3.4,1.3-1.9,3.4-1.2,4.8-3.4Z"/>
  <path class="st163" d="M182.7,134.3c1.1.8,1.7,2.2,1.9,4.3.9.7,1,1.7,0,2.4-.8,1.6-1.8,2.5-2.9,2.9-.2,1.3-.6,1.2-1,0,.3-.4.3-1.2.5-1.4v-1.3c1-.8.8.3,0,1.3,0,0-.7,0-1,0,.6-.5-.6-2.7-1.4-2.4.4-.7.3-1.7.5-1.9.7-1.1,2.3-1.3,2.4-3.8h1Z"/>
  <path class="st16" d="M82.4,146.3c.4,1.2,1,2.6,1,3.8s-1.7,1.3-2.9,2.4c.3-1.6-1.3-3.6-1-5s2.6-1,2.9-1.3Z"/>
  <path class="st100" d="M76.1,159.3c.1.6.5,1.1,1,1.4-.3.5-1.9,2.8-2.6,1.9s-1.2-2.3-1-2.9,1.8-1.9,1.9-1.9c1.6-.3.7,1.3.7,1.4Z"/>
  <path class="st118" d="M173.1,151.1c1.5-.6,2.8,3.1,2.4,4.3,1.1.5.8,1.7-.5,1.9-.4,1.4-3.9,4.2-5.3,3.4-.5.3-1.2.3-1.4.5-.4.2-.7.2-1.1,0s-4.2-6-4.6-6.7l.4-1.1c.7-.7.2-1,2.4-1.4.8-1.6,3.4-2.1,4.8-1,.7-.1,2.4-.5,2.9,0Z"/>
  <path class="st83" d="M181.7,143.9c1.4.3,3.6,4.5,2.9,5.8,1.8.4,1.3,1-1.5,1.8l-.9.6c0,1.4-1.1,2-2.4,1.4-.2,1-1.3.5-1.4-.5-1.3,0-3.3-3.1-2.4-4.3-.5-1.3,0-1.8,0-1.9,2.1-.3,3.4-1.3,4.8-2.9h1Z"/>
  <path class="st12" d="M170.2,151.1c-1.5.3-3.3.6-4.8,1-2.3.5-3.7-1.2-3.8-3.4.4-.4,7.2,0,8.2-1.4,1.5.5.7,2.7,2.4,2.4.1-1.1-1.2-2-1-3.1s1.9-1,2.2-1.7c3.5,3.5-.5,4.3-3.1,6.2Z"/>
  <path class="st12" d="M176,148.7c.5,1.3,2,2.7,2.4,4.3,1,.6,1.2,1,0,1.4l-1.8,1.5c0,1.2-1.2.6-1.1-.5-1.2-.7-1.9-3.7-2.4-4.3,0-1.2,1.8-2.1,2.9-2.4Z"/>
  <path class="st45" d="M148.1,163.1c.3,1.3-.6,2.5-1.9,1.9-.2.2-.8.3-1,.5.4-.6.3-1.3,0-1.9,1,1,1.4-.7,2.3-.9s.6.4.6.4Z"/>
  <path class="st99" d="M190.4,136.2c.4,2-2.1,1.5-3.3.6-.7,1.3-1.5,1.9-2.5,1.8-1.2.4-2.1-3.3-1.9-4.3s1.7-2.5,2.4-3.4c2.4-1.5,4.5,3.5,5.3,5.3Z"/>
  <path class="st12" d="M149.1,163.1c2.8,1.9.6,2.9-.5,4.8-.7-.4-1.4-1.7-1.9-2.4s0-.6-.5-.5c.6-.5,1.1-1.5,1.9-1.9.3,0,.8,0,1,0Z"/>
  <path class="st12" d="M186.1,170.8c.5.5,2.7-1.6,2.9-1.4s1,2.4,1.9,2.6c-2.1,1.5-2.2,3.3-4.3.4s-.4-1.4-.5-1.6Z"/>
  <path class="st16" d="M187,166.5c.6.2.8,1.3,1,1.4,1,1.9-3.1,1.7-1.9,2.9-.1-.2-.8-.3-1-.5-.5-.5-.8-.3-1-1.4-1-.3-1-.6,0-1,.8-.7,1.9-1.7,2.9-1.4Z"/>
  <path class="st119" d="M112.1,209.6c-3.4.3-7.1-.4-10.1-2.2l8.3-23.4c.2-.6.5-.8,1.1-.8s8.3,4.1,8.4,4.6l-7.7,21.8Z"/>
  <path class="st119" d="M100.4,177.5c1.2.5,6.4,2.9,6.4,4l-8.8,23.8c-1.2-1.6-5.5-4.5-5.5-6.5l7.9-21.3Z"/>
  <path class="st141" d="M116.5,209.2c1-2.3,6.4-19.6,7.4-19.6s1.5.8,1.6,1.2c.2,1-1.5,8-2,9.4-1.3,3.8-3.5,7.1-7.1,9Z"/>
  <path class="st38" d="M90.1,184c.2-1.5,2.6-8.4,3.6-9.4s2.3-.2,2.5,1.1l-6.1,16.2c.2-2.5-.3-5.5,0-7.9Z"/>
  <path class="st67" d="M228.2,297.5c.8.7.5,4.5-1.9,3.3-.3-1.5,0-4.9,1.9-3.3Z"/>
  <rect class="st64" x="200.9" y="80.6" width=".5" height="2.4"/>
  <path class="st164" d="M194.2,143c1.9-1,2,.7,2.9,2.4-1.5,2.3-3.7,5.1-6.2,6.2-1.5.2-2.8-2.1-1.9-3.4-.9-.9,3.9-5.7,4.3-5.8l1,.5Z"/>
  <path class="st65" d="M187.5,147.3c1.1-.4,1.5-.2,1.4,1,.6.9,1.4,2.4,1.9,3.4s.4,2.3,1.4,3.8c0,.5,0,1,0,1.4-.4,0-2.6.7-2.9,1l-1.2.3c-.9-1.2-1.6-2.4-2.1-3.7-.9.3-1.4-.4-1.6-2.2-1,.6-1.7.5-2.3-.2.4-1.1,1.5-1.1,2.3-1.6s0-.8.1-.8l.3-1.2c1-.2,1.8-.5,2.6-1.2Z"/>
  <path class="st154" d="M201.4,134.3c1.1-.2,1,.9,1.9,1.4.2.6.3,1.3.5,1.9-.6.6-2.7,2.6-2.9,2.9-1.4.7-3.2-1.3-2.4-2.9-1.1-1.3,1.5-3.5,2.9-3.4Z"/>
  <path class="st16" d="M188.9,159.3c1.1-.2,2.1,1.8,2.4,2.9-.6.4-3.1,2.3-3.8,2.9-.4,2.1-3-2.2-2.9-2.4s.2-.3.5-.5c-1.5-1.4,2.5-4,3.8-2.9Z"/>
  <path class="st6" d="M185.1,162.1c.4.5.2,2.9,2.4,2.9-.3.2-.4,1.3-.5,1.4-.2.2-2.5,1.4-2.9,1.4q-.5-1.7,0,0c0,.2,0,.7,0,1-.6-.4-.9-.3-1.4,0,0-1.5-.7-3.2-2.4-3.4.3-.3.4-1.3.5-1.4v-1.1c.1,0,2.9-1.3,2.9-1.3.7-1.1,1.4-.8,1.4.5Z"/>
  <path class="st138" d="M189.4,157.8c-.1.2-.2,1.2-.5,1.4-1,.8-3.2,1.4-3.8,2.9,0-.1-1.2-.2-1.4-.5-1.4.7-2.6-2.1-1.9-3.4-.9-.8-.9-1.6.5-1.4-.7-1.5,2.6-3.1,3.8-2.4,0,0,1,0,1.5.7.7.9.8,2.2,1.9,2.7Z"/>
  <path class="st10" d="M203.3,135.8c-.3-.8-.7-1.3-.9-2.1.7-.4,1.2-3.1,2.1-2.7s2.1,2.5,2.1,2.6c0,.6-1.7,3.1-3.3,2.2Z"/>
  <path class="st12" d="M198.1,144.4c-3-1.9-2.7-2.5-1-5.3.9-.4,2.8,2.4,2.8,2.6,0,.5-2.1,1.6-1.8,2.6Z"/>
  <path class="st16" d="M177.4,160.2c0,0-.5.8-1,1.2-1.3.8-3.2,1.8-4.3,2.7-1.3-.2-3.6-2-2.4-3.4,1.8-1.1,3.2-2.7,5.3-3.4l.8-1c.2-.1,2.1,3.6,1.6,3.9Z"/>
  <path class="st16" d="M181.7,158.3c.8,1.1,1.4,2.7,1.9,3.4.2,1.9-2.4,2-2.9,2.4-1-.6-1.5-2.8-1.9-3.4-1.3-.5-1-1.1,1-1.8l1-1c.6-.8,1.2-.5,1,.5Z"/>
  <path class="st163" d="M179.8,153.5c.3-.2.7-.3,1-.1l1.4,3.5c-.3.3-.4,1-.5,1.4-.1-.2-.8-.3-1-.5-.4.2-.9.3-1.1.1-.6-.9-1-2.4-1.3-3.5l.7,1c-1.9,1.5-1.1,3.8.7,1.8l1,.5c.2,1.5-2,1.3-1.9,2.9-.2-.3-1.1-.6-1.4-.5l-1.7-3.2c-.3,0-.5.3-.7.4.4-.4.4-1.8.5-1.9s.5.4,1,.2c.7-.4.8-1,1.9-1.1,0-.4,0-1.1,0-1.4.3.3,1.3.4,1.4.5Z"/>
  <path class="st12" d="M163,153.5l5.3,7.7c-.9.6-1.7,2.2-3.4,1.9-1.1-2.1-3.6-4.2-4.3-6.7s0-2.2,1.4-3.1.9.2,1,.2Z"/>
  <path class="st12" d="M168.8,166.9c-.2,0-2.8-2.4-2.9-2.7-.1-.6,1.8-2,2.2-2.1.9-.1,2.3,2.1,3,2.6-.9,0-2.2,2.1-2.4,2.2Z"/>
  <path class="st12" d="M118.4,149.7c-.5.2-.4.4-1,.2s-2.3-1.1-2.4-1.2c-.3-.4,1.3-2.5,1-3.4,5.1,1.3,2.5,2,2.4,4.3Z"/>
  <path class="st12" d="M161.5,152.5c0,.1-2,1.7-2.3,1.5-1.3-3-2-3.1,1.4-4.8-.3,1.1,1.4,2.2.9,3.3Z"/>
  <path class="st83" d="M201.4,132.9c.3.6.3.9,0,1.4-.6,1.1-2.3,2.1-2.9,3.4h-1.4c-1.4.3-3.1-2.1-2.4-3.4-.1-.2.1-1.2,0-1.4,1.5-1,2.7-3.1,3.4-4.8.2-.2,3.2,4.4,3.4,4.8Z"/>
  <path class="st118" d="M190.4,136.2c1.1,0,.9.3,1.4,1,1.4-.5,3.4,2.6,2.9,3.8-.2.4-.3,1.4-.5,1.9-1.8,1-3.4,4-5.3,5.3,0,0-.9,0-1.4-1-1.6.4-4.1-5.1-2.9-6.2-.4-1.2-.4-1.3,0-2.4s1.8-2.7,2.2-2.8,1.3.7,2,.8,1.2-.4,1.6-.4Z"/>
  <path class="st19" d="M194.7,134.3c.7,1.2,1.8,1.9,2.4,3.4s-1.7,2.2-2.4,3.4c-1.2-1.1-1.9-2.6-2.9-3.8,0-.4-.1-1.1,0-1.4,1.3-.1,1.6-1.4,2.9-1.4Z"/>
  <path class="st12" d="M191.8,135.8c-1.4.2-1.7-2.5-2.9-3.4l3.1-1.4c3.2,3.1.3,3.1-.2,4.8Z"/>
  <path class="st12" d="M181.3,142.5c.4-.4-1.7-2.9-1.5-4s2.3-1.5,2.2-2.7c.6.9,1.8,3,1.6,4-.2,1.5-1.8,2-2.3,2.7Z"/>
  <path class="st99" d="M184.6,141c.4,1.2,2.2,5.1,2.9,6.2.6,2.1-1.9,1.7-2.9,2.4-.8-1-2.9-4.8-2.9-5.8s2-4.2,2.9-2.9Z"/>
  <path class="st99" d="M182.2,152.1c.5-.2,2.7-1.1,2.9-1,.3.2.9,3.2,1,3.4-.8.9-3.2,1.7-3.8,2.4-1.9.2-1.9-2.8-2.4-3.4.8-.8,1.4-1,2.4-1.4Z"/>
  <path class="st99" d="M188.5,149.2l1,3.4c-2.4.9-3.2,0-3.8-2.4l2.9-1Z"/>
  <path class="st12" d="M184.1,167.9c-1,.1-2.5-2.9-2.4-3.1s2.7-2.3,2.9-2.2c-.3,1,2.1,3.2,1.9,3.4s-2,.5-2.4,1.9Z"/>
  <path class="st12" d="M178.4,154.5c1.5-.2,1.7,2.4,2.4,3.4-.2-.2-2,2-2.9,1.2s-1.3-2.3-1.3-2.4c0-.7,1.6-.5,1.8-2.2Z"/>
</svg>