<?xml version="1.0" encoding="UTF-8"?>
<svg id="Layer_1" xmlns="http://www.w3.org/2000/svg" version="1.1" viewBox="0 0 925.6 992.2">
  <!-- Generator: Adobe Illustrator 29.2.1, SVG Export Plug-In . SVG Version: 2.1.0 Build 116)  -->
  <defs>
    <style>
      .st0 {
        fill: #f5f6f7;
      }

      .st1 {
        fill: #6887c5;
      }

      .st2 {
        fill: #a0792c;
      }

      .st3 {
        fill: #282320;
      }

      .st4 {
        fill: #7492ca;
      }

      .st5 {
        fill: #7694cb;
      }

      .st6 {
        fill: #1b1818;
      }

      .st7 {
        fill: #fdfdfe;
      }

      .st8 {
        fill: #cbccce;
      }

      .st9 {
        fill: #6787c5;
      }

      .st10 {
        fill: #6889c6;
      }

      .st11 {
        fill: #6687c5;
      }

      .st12 {
        fill: #978824;
      }

      .st13 {
        fill: #403d3e;
      }

      .st14 {
        fill: #7c5f28;
      }

      .st15 {
        fill: #6788c6;
      }

      .st16 {
        fill: #2d2920;
      }

      .st17 {
        fill: #312e2f;
      }

      .st18 {
        fill: #6888c6;
      }

      .st19 {
        fill: #adaeb2;
      }

      .st20 {
        fill: #373435;
      }

      .st21 {
        fill: #6988c5;
      }

      .st22 {
        fill: #d7dadc;
      }

      .st23 {
        fill: #353233;
      }

      .st24 {
        fill: #6786c5;
      }

      .st25 {
        fill: #f8f9fb;
      }

      .st26 {
        fill: #191819;
      }

      .st27 {
        fill: #7895cc;
      }

      .st28 {
        fill: #363233;
      }

      .st29 {
        fill: #433e3f;
      }

      .st30 {
        fill: #bcc1ca;
      }

      .st31 {
        fill: #231f20;
      }

      .st32 {
        fill: #7896cc;
      }

      .st33 {
        fill: #423523;
      }

      .st34 {
        fill: #c8c9cb;
      }

      .st35 {
        fill: #675027;
      }

      .st36 {
        fill: #2a2420;
      }

      .st37 {
        fill: #6586c3;
      }

      .st38 {
        fill: #c2c3c5;
      }

      .st39 {
        fill: #6888c4;
      }

      .st40 {
        fill: #040606;
      }

      .st41 {
        fill: #1d1819;
      }

      .st42 {
        fill: #4e3f24;
      }

      .st43 {
        fill: #7392ca;
      }

      .st44 {
        fill: #554325;
      }

      .st45 {
        fill: #a6a7ab;
      }

      .st46 {
        fill: #fcfcfd;
      }

      .st47 {
        fill: #6787c4;
      }

      .st48 {
        fill: #96712b;
      }

      .st49 {
        fill: #b79f9f;
      }

      .st50 {
        fill: #69dcdc;
      }

      .st51 {
        fill: #090808;
      }

      .st52 {
        fill: #fbfcfc;
      }

      .st53 {
        fill: #d0c7c8;
      }

      .st54 {
        fill: #718cc2;
      }

      .st55 {
        fill: #3c3122;
      }

      .st56 {
        fill: #2f2c2d;
      }

      .st57 {
        fill: #cccdcf;
      }

      .st58 {
        fill: #2b2728;
      }

      .st59 {
        fill: #d6d8da;
      }

      .st60 {
        fill: #fafbfc;
      }

      .st61 {
        fill: #f8fafc;
      }

      .st62 {
        fill: #1e1b20;
      }

      .st63 {
        fill: #6989c6;
      }

      .st64 {
        fill: #fefeff;
      }

      .st65 {
        fill: #e1e7e7;
      }

      .st66 {
        fill: #7593ca;
      }

      .st67 {
        fill: #d5d7d8;
      }

      .st68 {
        fill: #f9fafc;
      }

      .st69 {
        fill: #272324;
      }

      .st70 {
        fill: #98999d;
      }

      .st71 {
        fill: #9d9ea2;
      }

      .st72 {
        fill: #333031;
      }

      .st73 {
        fill: #050707;
      }

      .st74 {
        fill: #282324;
      }

      .st75 {
        fill: #c9cacc;
      }

      .st76 {
        fill: #a1e6e8;
      }

      .st77 {
        fill: #fcfdfe;
      }

      .st78 {
        fill: #6686c5;
      }

      .st79 {
        fill: #b5b7ba;
      }

      .st80 {
        fill: #fbfbfc;
      }

      .st81 {
        fill: #b4b5b9;
      }

      .st82 {
        fill: #0f1010;
      }

      .st83 {
        fill: #6a8abe;
      }

      .st84 {
        fill: #171414;
      }

      .st85 {
        fill: #7592ca;
      }

      .st86 {
        fill: #f5f6f8;
      }

      .st87 {
        fill: #fff;
      }

      .st88 {
        fill: #262220;
      }

      .st89 {
        fill: #242020;
      }

      .st90 {
        fill: #e5e8eb;
      }

      .st91 {
        fill: #f9f9f9;
      }

      .st92 {
        fill: #6787c6;
      }

      .st93 {
        fill: #6587c5;
      }

      .st94 {
        fill: #040404;
      }

      .st95 {
        fill: #a5a7ab;
      }

      .st96 {
        fill: #e5e9ed;
      }

      .st97 {
        fill: #f9fbfc;
      }

      .st98 {
        fill: #3c3939;
      }

      .st99 {
        fill: #ebeef1;
      }

      .st100 {
        fill: #080808;
      }

      .st101 {
        fill: #21191a;
      }

      .st102 {
        fill: #363132;
      }

      .st103 {
        fill: #78e7e7;
      }

      .st104 {
        fill: #d1d2d4;
      }

      .st105 {
        fill: #c3c4c7;
      }

      .st106 {
        fill: #b3b4b8;
      }

      .st107 {
        fill: #d3d4d6;
      }

      .st108 {
        fill: #74dddd;
      }

      .st109 {
        fill: #6a8ac6;
      }

      .st110 {
        fill: #fefefe;
      }

      .st111 {
        fill: #6786c6;
      }

      .st112 {
        fill: #7b7677;
      }

      .st113 {
        fill: #6888c5;
      }

      .st114 {
        fill: #393839;
      }

      .st115 {
        fill: #8c8a80;
      }

      .st116 {
        fill: #ebe829;
      }

      .st117 {
        fill: #312d2e;
      }

      .st118 {
        fill: #3a3637;
      }

      .st119 {
        fill: #d7dce4;
      }

      .st120 {
        fill: #292526;
      }

      .st121 {
        fill: #c2c3c6;
      }

      .st122 {
        fill: #f5f7f9;
      }

      .st123 {
        fill: #403323;
      }

      .st124 {
        fill: #70e2e2;
      }

      .st125 {
        fill: #9c9ea2;
      }

      .st126 {
        fill: #433f40;
      }

      .st127 {
        fill: #0a0a0a;
      }

      .st128 {
        fill: #fbfcfd;
      }

      .st129 {
        fill: #413322;
      }

      .st130 {
        fill: #fbfbfb;
      }

      .st131 {
        fill: #6585c3;
      }

      .st132 {
        fill: #fafbfd;
      }

      .st133 {
        fill: #f6f8f9;
      }

      .st134 {
        fill: #6989c5;
      }

      .st135 {
        fill: #b4b5b8;
      }

      .st136 {
        fill: #f9fafd;
      }

      .st137 {
        fill: #f9fafb;
      }

      .st138 {
        fill: #262223;
      }

      .st139 {
        fill: #cfd0d2;
      }

      .st140 {
        fill: #140f10;
      }

      .st141 {
        fill: #352e22;
      }

      .st142 {
        fill: #3a3536;
      }

      .st143 {
        fill: #bbbcbf;
      }

      .st144 {
        fill: #6788c5;
      }

      .st145 {
        fill: #adafb3;
      }

      .st146 {
        fill: #494748;
      }

      .st147 {
        fill: #916e2a;
      }

      .st148 {
        fill: #fdfefe;
      }

      .st149 {
        fill: #dadbdd;
      }

      .st150 {
        fill: #433623;
      }

      .st151 {
        fill: #ced0d1;
      }

      .st152 {
        fill: #624d26;
      }

      .st153 {
        fill: #7593cb;
      }

      .st154 {
        fill: #6887c6;
      }

      .st155 {
        fill: #272320;
      }

      .st156 {
        fill: #8c8980;
      }

      .st157 {
        fill: #f7f8f9;
      }

      .st158 {
        fill: #060707;
      }
    </style>
  </defs>
  <path class="st31" d="M157.9,845.3c-11-3.3-23.7-3.3-26.2-18.2s16.5-53.5,23.4-73.6c10.8-31.2,17.6-64,15.7-97.3-22.1,4.7-32.3-16.5-38.3-33.6-6.1-17.1-16-49.6-2.5-64.8,13.5-15.2,21.8-2.5,35.3-2.5s7.7-28.7,5-36.7c-5.8-17.1-16.5-39.7-24.3-56.5-7.7-16.8-28.4-37.2-9.9-63.7,18.5-26.5,49.1-30.6,75.8-43.3,26.7-12.7,62.3-33.4,64.5-37.5s-2.2-14.3-3.3-15.2c-3-2.2-15.4,1.7-25.1-5.2-22.1-15.7-9.9-49.1,2.8-67,12.7-17.9,16.3-18.2,16.5-20.1.8-3.6-3.3-20.7-3.6-26.2-1.4-22.9,1.4-52.7,11-73.6,9.6-21,53.8-61.2,70.3-76.4,16.5-15.2,21-19.9,28.1-22.1,10.5-3.3,58.5-2.8,70.9-1.7,12.4,1.1,11,1.9,14.6,4.1s13,14.9,14.9,15.4c13.2,4.1,31.2-7.4,38,13.5,6.9,21,1.1,61.8-8.5,74.7-9.6,13-11.3,6.9-11.9,7.4s.8,11,1.4,11.6c1.1,1.1,24.3,5,29.5,6.9,17.1,5.8,35.6,17.1,46.9,31.2,11.3,14.1,9.6,16.8,10.5,17.4,3,1.9,25.4-9.4,34.2,5.5,8.8,14.9.3,28.1-15.4,34.7l-3.9,1.4c-1.4.6-2.8-.3-3.6,2.2-1.7,4.1-2.5,13-4.1,17.6,16,3.3,31.2,9.4,46.3,14.6,1.7,1.1,1.4,1.7-1.4,1.4-4.7-.6-9.6-.8-14.6-1.4l-8-1.4h-1.4l-8-1.4c-.8,0-2.8-.6-2.8.6,8.5,8.8,16.5,18.2,25.1,27,1.7,1.9,1.1,2.5-1.4,1.4-11.3-8.8-24-18.5-35.8-27-11.9-8.5-5.5-4.4-6.3-3.3,3.3,14.1,12.4,27,16,41.1,3,4.4,3.9,9.6-1.4,3.9-2.5-4.4-18.2-33.4-19.9-34.5-.8-.6-1.7-.6-2.8,0l-35,33.1-1.9,3.9c22.3,6.9,40.5,21.8,59,35.3,19.3-6.9,48-11.3,67.8-5.2,19.9,6.1,24.5,34.2,30.6,51.3,6.1,17.1,23.7,52.7,21,73.6-2.8,21-6.1,18.7-9.9,27,15.4,53.5,34.2,107.8,51.8,160.7,21.2,64.5,43.6,128.8,64.2,193.5-4.4,26.5-24,47.1-42.2,65.3-.8,1.9-2.5,3.9-4.4,5.8,1.7,2.5-1.4,3-3.6,2.2,1.7,1.4.8,2.2-2.8,2.8.3,1.4,0,1.7-1.4,1.4-1.1,2.5-2.5,3.3-3.9,2.8-.8,1.4-1.7,2.5-2.8,2.8-1.1,2.2-3,3.6-5.2,3.9,1.9,3.9-6.9,10.2-10.5,8,.6,3-2.2,5-8,5.2.6.8-.3,1.4-2.8,1.4.8,2.5-.8,3.3-2.8,1.4,1.1,3.9-2.8,4.4-5.2,2.8v1.9c-4.7.6-8.8,1.7-13.2,3.3-.3.8-1.7,1.4-3.9,1.4-.6,3.9-3.6,4.7-9.4,2.8-4.1.8-9.1.8-13.2,1.4-6.9.6-14.1.6-21.2,0-21.2-2.8-41.1-11-52.4-30.3l-106.4-319.3c-31.7-3.3-32-36.9-42.5-60.4-1.1-.8-5.8,5.8-6.6,6.6l-1.4,1.4c-.6.6-3.3,0-5.2,3.6-6.3,11.3,4.1,12.7,8.3,20.4s3.6,21.8,0,32.8c-5.8,17.4-15.4,28.4-33.4,33.4-2.8,0-5.5.3-8,1.4h-3.9l-5.2,1.4c-13.5,21.5-17.6,48.2-36.9,65.6-19.3,17.4-12.1,7.7-14.6,10.8s-10.2,23.4-10.2,24.8,3.6,3.6,4.7,5.5c3,5.2,8,19,12.7,21.8s20.7,3.3,27.8,5.2c46,12.4,39.7,40.5,33.6,79.7-3,19-4.4,32.8-15.7,48.5-.3,2.5-1.9,3.9-3.9,5.2.8,4.1-.6,5.8-3.9,5.2-4.1,9.4-3,20.1-1.4,30.9l-1.9,1.1c.6,4.1.3,8-.8,11.6,1.9,1.7,1.1,2.5-1.4,1.4-4.4,2.2-17.9,3.6-23.2,3.9-9.1.6-19.3,0-28.4,0-3.9.6-7.2.6-10.5,0-2.8,0-17.9-4.7-18.5-5.8s0-1.4,0-2.2c-3.3,1.7-5.5-.6-3.9-3.9-1.4.3-1.7,0-1.4-1.4-1.9-1.9-3-3.9-3.9-5.2-8.5-1.7-17.9-2.2-27.6-1.4l-1.7-2.8c-2.2,3-5.5,2.2-6.6-1.4-2.5-.3-4.7-.8-6.6-1.4l-15.7-3c-5-1.9-13.2-6.3-10.8-11.6-8.3,1.4-16.8,2.2-25.6,2.8-7.7-1.9-16-2.8-24.5-2.8-.8,2.5-1.9,2.5-2.8,0l-14.3.6c-7.2-2.8-14.6-4.7-22.9-5.8-.8.8-1.9.3-3.9-1.4-1.1,2.2-5,1.4-5.2-1.4-5.8,0-11-1.9-16-5.2-1.4.3-2.5-.6-3.9-2.8-.3,1.1-.8,1.1-1.4,0-5-1.4-7.2-4.1-6.6-8,0-6.9,6.1-6.1,10.5-8.8,10.2-6.1,40.5-25.6,46.6-34.2,6.1-8.5,4.4-19.9-1.4-21.8l-5.2-1.4v-1.1Z"/>
  <path class="st107" d="M107.5,911.5c1.9,1.4,4.7,5.8,6.6,8l-.6,1.4c-15.2,1.7-40.3,6.3-52.9,15.2-12.7,8.8-7.7,6.9-7.7,7.4-1.1,10.5,58.7,25.1,67,24.5l1.9,1.9c63.7,8.8,132.1,8.5,195.8,2.8,1.1-1.7,3.3-.6,3.9,1.4l2.8,1.4c.3-1.1.8-1.1,1.4,0,4.7,3.9,0,4.7-4.1,5.2-38.9,2.8-81.6,2.8-121,1.7-39.4-1.1-71.4-3-106.4-10.8-.3.6-.6,1.1-1.1,1.4-4.1,1.4-30.6-5.2-36.4-6.9-12.7-3.9-35.6-11.3-27-28.7,8.5-17.4,15.4-11,18.5-12.4s63.7-14.9,59.3-10.2-6.3,0-3.9-2.8c.8,0,2.2-1.1,3.9,0l.3-.6Z"/>
  <path class="st59" d="M775.8,915.3c6.9-3,41.1-.8,51,0,9.9.8,23.4,2.5,34.2,4.1,10.8,1.7,44.7,8.3,52.1,14.6s.8,3,1.7,4.1,2.5.8,2.8.8c0,.3-3,6.1-3.6,6.6-1.7,1.4-6.3,1.9-8.5,2.8-45.2,20.7-140.1,20.7-191.3,15.7-4.1-.3-9.4,1.4-14.1,0-4.7-1.4-.8-3.3-3.6-2.5,2.2-.3,5.8-1.9,9.4-2.8,14.6,1.7,30.6,2.8,46.9,3,40.5.8,81.9-.8,120.8-12.4,44.9-13.2-17.4-24.8-32-27-21.8-3.3-46.6-6.6-67.8-3.3-4.1,3.9-1.9-4.1,2.8-3.9h-.6Z"/>
  <path class="st149" d="M103.6,911.5l3.9,2.8c-19.6,3.9-43.6,6.1-61.8,14.1-18.2,8-1.7,2.2-2.8,3-2.8,1.4-6.3,1.9-8.8,4.1-7.2,6.3-2.5,16,4.7,20.4,11.9,7.2,41.6,13.2,55.4,15.4,2.8.8,3,1.9,1.4,2.8-2.2,0-4.7.8-6.9.6-18.7-2.5-64.2-10.8-77.8-22.6s-3-3.6-4.1-5.5c-.6-10.5,13.2-15.4,21.5-18.7,16-6.6,35.8-10.5,52.9-13.2,17.1-2.8,14.9-1.9,22.1-2.5l.3-.6Z"/>
  <path class="st149" d="M409.4,918.1c7.4-.8,36.7,6.9,44.1,10.5,6.6,6.6,18.5,8.5,13,20.7-5.5,12.1-7.4,6.6-8.5,7.2-15.2,7.2-43.3,14.3-60.4,16.5s-2.2,0-3.9-2.2l1.4-1.4,1.4-3.9c10.8.3,43-9.9,49.1-17.9s-.6-10.2-1.1-10.5c-13-6.9-26.5-12.1-40.8-15.7,1.1-3.9,2.8-3.9,6.1-3.3h-.3Z"/>
  <path class="st22" d="M94.2,971c75.8,11.6,147.8,8.8,223.9,7.2,1.9,0,8.8.6,7.7-3.3,1.4-.8,3.3-.8,5.2,0h10.5l-9.4,1.4c-1.4,5.5,7.2.3,8,3.9-16.5,2.5-33.1,1.9-49.6,2.5s-8.8,1.1-13.8,1.4c-5,.3-14.1,0-21.2,0h-55.4c-5.5,0-10.8-1.4-13.8-1.4h-27.8c-8.8,0-22.6-2.8-32.5-3.9-9.4-2.5-19-3.9-29.2-3.9-.6-.3-1.1-.8-1.4-1.4-.6-.8-.8-1.9-1.4-2.8l.3.3Z"/>
  <path class="st34" d="M775.8,915.3c-1.7.8-2.8,1.9-3.9,3.3,0,.8.8.6,1.4.6,11.9-2.2,43-2.5,51.6,1.9s1.9,1.4,2.8,2.2c2.8.6,3.9,1.4,3.9,2.8l-3,1.1c-20.4-2.2-40.8-3.9-60.9-4.7v-1.7c2.8-2.2,5.8-5.5,8.3-8v2.8-.3Z"/>
  <path class="st50" d="M683.2,963c-9.4,1.1-11.6,1.4-21.2,0h21.2Z"/>
  <path class="st103" d="M163.2,846.7c-.8-.3-3.3-.8-5.2-1.4l5.2,1.4Z"/>
  <path class="st108" d="M598.5,231.6c-1.7.6-3.3,1.1-3.9,1.4l3.9-1.4Z"/>
  <path class="st76" d="M614.5,944.6c-2.8.3-3,0-2.8-2.8l2.8,2.8Z"/>
  <path class="st67" d="M406.6,915.3c-.3,2.8,0,3,2.8,2.8-1.1,0-5.2.8-5.2,2.8,14.6,2.2,29.8,6.6,41.9,14.9,1.4,3.9,2.5,9.4,1.4,13.2s-10.2,7.7-12.4,8.8-5.8,1.1-8.5,2.2c-9.6,3.6-19.9,10.2-30.3,5.8-.6-1.4-.8-2.8,0-3.9,17.1-1.4,59.8-16.8,22.1-30.6l-16-5.5c-1.7-.6-1.4-2.2.6-5,1.4-1.7,2.8-3.6,3.9-5.2v-.3Z"/>
  <path class="st124" d="M452.9,561l1.4-1.4c-.6.3-.8.8-1.4,1.4Z"/>
  <path class="st149" d="M97,974.9c1.4-2.2,5-1.4,7.2-1.1,6.6.6,13.5,1.4,20.1,2.5s4.7-1.4,1.9,2.5c-7.2-.8-24-.8-29.2-3.9Z"/>
  <path class="st111" d="M331.1,751.6c-1.9,1.9-6.1-6.3-7.7-8-8.3-8-19-10.5-30.3-11.9s-17.9,1.4-19-2.2,7.2-27,7.2-33.6l1.4-1.4,13.8,3.9c.8-5.2,2.5-10.8.8-16l-38.6-18.5c-2.8-.3-1.4,0-1.9,1.9s-3,12.4-2.2,13.8,10.8,4.4,10.2,8.8c-3.6,16.8-5,35-11,51-6.1,16-7.2,7.2-2.5,11.9s22.6,3.3,30.3,4.1c28.1,2.8,49.9,12.7,62.6,38.9-17.1,28.4-25.9,62.3-32.8,94.6-21.8-9.6-43.8-19.6-64.5-31.4-19.9-11.6-30.9-24.5-55.4-26.7-24.5-2.2-46.9,5.5-39.7-18.5,7.2-24,5-6.3,6.3-9.6,16-36.9,37.2-114.1,35.6-153.6-1.4-27.8-11.6-69.8-1.9-95.9,9.6-26.2,24-36.4,35.3-54.6,11.3-18.2,19.3-54.3,26.2-79.1,10.8,5.5,21,13.2,31.7,19.3,29.8,16.5,62,28.7,92.6,43.6-22.6,35.6-41.6,91.8-18.2,130.7,23.4,38.9,32,33.6,32.5,37.5s-9.1,25.6-11.9,31.2c-10.5,21-16.3,20.1-31.7,34.5s-15.2,21.8-17.1,35v.6Z"/>
  <path class="st87" d="M711,587.5c-.8-2.5.6-6.9-3.3-9.4-9.6,5.8-1.9,12.7.3,18.2s0,9.6,3.6,9.6,2.5-14.1,9.9-14.6c25.1,81.9,53.8,162.9,80.5,244.3,5.5,28.1-38.6,68.7-59.3,84.1-32.8,24.3-92.4,42.7-123,5.2-30.6-37.5-22.3-56.2-26.7-72.2-9.9-36.1-11.9-84.6-7.4-121.9,4.4-37.2,19-44.7,21-67.5,1.9-22.9-.8-14.6.6-21.8s7.4-13.8,10.2-20.1c16.3-37.5,10.5-35.6,42.2-63.7,31.7-28.1,12.7-16.3,23.2-17.9l10.5-31.7,24.3,75.3c-1.1.6-2.8.8-3.9,1.4-.3,2.5-1.1,3.3-2.8,2.8h.3Z"/>
  <path class="st48" d="M455.7,346.8c-4.7-2.2-14.1-10.5-15.7-.3-1.7,10.2,10.2,10.2,11.3,12.4s.6,10.2,0,11.3c-1.7,2.8-24.3,10.5-28.9,11.6-42.5,10.2-88.2,0-116.3-34.5-61.2-75,2.8-135.9,64.5-178.9,61.8-43,68.7-32.5,104.2-45.2,6.9,1.9,12.4,8.3,11.3,15.7-6.6.8-13.8.8-20.4,1.4s-8,.8-8.8,2.5c31.7,5.5,63.4,8,91,26.2,27.6,18.2,24.3,21,28.4,31.2,4.1,10.2-1.1,6.6-1.7,11-1.1,11.6,8.3,14.6,9.1,19.9,1.4,8.5-7.7,19.3-12.7,25.6l-74.4,75c-3.3,1.1-23.7-1.9-24.3-4.4,7.4-19.9,20.1-37.5,32.5-54.6,1.9-6.1-.8-10.2-7.4-9.4.6-1.1,2.8-1.4,3.3-3.9,1.7-5.8-1.1-11.6-7.4-8.8-6.3,2.8-19,15.2-23.2,19-6.3,5.8-14.1,13.5-19.9,19.9s-10.5,14.9-17.1,19.9c-1.7,0-11.6-9.6-12.7-11.3s-1.9-1.7-.6-3.3c22.6-20.7,47.7-38.9,75.5-51.6,4.7-5.5,1.1-12.1-6.3-10.5s-20.4,12.4-25.4,15.7c-17.9,12.7-33.9,27.6-49.1,43.3-.8,0-9.4-13-9.6-14.1-.8-4.4,3.3-15.7-2.2-21.5-3,2.5-4.4,13.2-6.9,14.6s-20.7,3-21.5,3.9c1.1,9.6,17.9,7.7,22.1,10.5,4.1,2.8,9.4,13.5,9.6,14.3.8,3-13,18.2-15.7,22.1s-.8,2.8-1.4,3.3c-2.2,5.5-6.3,11.6-10.5,16-.6,3.6-2.5,7.2-5.2,9.4,0,2.5.6,2.8,1.4,1.4,0-3.6,2.5-7.2,5.2-9.4,1.7-5.5,6.1-12.4,10.5-16,2.2-3,18.2-21.5,20.4-21s14.9,13,15.2,14.1c.8,2.8-3.6,8-5.2,11-1.7,7.2-6.3,14.9-10.5,21.2,0,1.4,0,1.9,1.4,1.4,1.7-6.6,5.5-15.7,10.5-19.9,1.1-1.7,8-10.2,8.5-10.5,9.4,7.4,21,10.5,31.2,15.7,1.4,1.1,3,10.5,3,11.3,0,1.4-8.5-2.5-9.6-3.6l.6.8Z"/>
  <path class="st87" d="M679.3,397c9.4,30.1,26.7,47.4,13,80-22.3,53.8-118.8,121.3-177.8,115.8-59-5.5-33.1-36.4-44.4-60.9,22.3,4.7,44.1-1.7,64.8-9.4,3.9-.3,6.3-1.7,9.4-3.9,4.7-1.9,7.2-2.5,11.9-5.2,4.4-1.7,8.3-3.9,11.9-6.6,1.4-.8,4.1-1.4,6.1-2.5,21.8-11.6,41.6-29.5,60.7-45.2,1.4-.6-.6,5.5,2.8,3.9s1.7-6.3,2.8-9.1c1.7-4.1,9.4-10.2,12.4-14.1,5.2-6.6,11-14.1,14.6-21.8l2.8,5.2c1.7,0,1.9.6,2.8-1.4-.6-1.4-.8-2.8,0-3.9,0-6.9-.3-8.8,2.8-16-1.4-3.9-.6-7.7,3.9-5.2v.3Z"/>
  <path class="st116" d="M456.5,25.9c7.4,7.4,2.2,7.4-.6,12.4-9.6,16.5-10.5,34.7-11.3,53.5-62,23.7-117.2,65.3-164.9,111.1-3-2.2-3-51.8-2.8-58.7.8-11.9,3-27.6,10.5-36.9,14.9-18.7,46.3-46.6,64.8-63.4,18.5-16.8,19.3-18.5,27.6-20.1s10.5-1.4,14.3-1.7c12.1-.8,32-2.2,43.8-1.4s14.3,1.4,18.7,5.8l-.3-.6Z"/>
  <path class="st48" d="M429.2,563.8c-2.5,1.7-.8,11.9.6,14.3,3.6,7.7,11.6-1.1,15.7,9.4,11.6,28.7-20.1,58.7-49.4,43.8-14.1-7.2-24.8-28.1-28.7-43-3.9-14.9-2.8-27.8,2.5-46,5.2-18.2,11.3-33.4,19.3-48.8,3-2.2,58.7,27,64.2,34.5.6,12.1-6.3,29.8-17.9,35s-5.2,0-6.3.8h0Z"/>
  <path class="st87" d="M483.3,517.2c-.6-3,3.3-4.1,5.5-5.8,22.9-18.2,47.1-22.6,72.2-36.4,26.5-14.6,71.4-48.8,82.4-77.8,11-28.9,5-27-11-29.5-16-2.5-19.6,1.1-20.4.6s-9.4-11.6-10.5-13.2-1.9-1.4-1.4-3.3c18.7-6.1,62.9-9.4,67.3,16.8,7.4,43.6-52.1,94.6-84.9,115.5-29.2,18.5-63.4,33.4-98.7,33.1h-.6Z"/>
  <path class="st63" d="M599.9,367.8l1.1,3.6-10.2,18.5c0,.6,8.5,9.1,9.4,9.1,1.7.3,5.5-16.3,5.2-17.9l2.5-1.4c3.3,6.3,8.3,16,8,23.2-.3,7.2-1.4,2.8-1.4,3.3-3,.6-3,5-2.8,8-1.7,3.9-4.1,7.2-6.6,10.5-4.7,3-9.1,6.6-13.5,10.8v2.5c-3.3,2.8-7.4,5.5-11.6,8-2.8-2.2-5.2-2.5-7.4-.3l-17.4,11.6v3.3c-4.7,2.8-9.1,5.2-13.5,8-4.4-.8-9.6.8-15.7,5.5l-1.4-1.7c-1.9,1.7-3,1.9-2.2-.3-3.3-2.5-9.6-8.8-3-8.8-.3-3.3,2.5-6.3,8-9.4-2.5-3.3-3-5.8-1.4-8,1.1-1.4,2.5-2.5,3.9-3.9-1.7-1.9-1.1-2.5,1.4-1.4,2.2,0,3.9,1.1,5.2,2.8,1.7-1.4,3.3-.8,5.2,1.7,1.4,0,22.3-12.4,22.3-13.8s-5.2-6.3-6.3-6.3l-7.7,9.1c-4.1,5.2-7.7,6.3-11,4.1l-2.2,1.1c-1.7,6.1-7.4-6.1-7.2-9.1l.8-3.3c3.3-.6,16.3-14.3,16.3-15.4-4.1-4.1-5.8-8.3-5.2-11.9-2.2,0-2.5-2.2,0-2.8,2.2-2.5,4.4-5.2,5.8-8.3l2.2,3,2.8-.8c4.4,8.3,9.4,7.7,14.9-1.7-5-4.4-7.4-8.3-6.9-12.4-3-.6,6.1-9.4,6.6-9.6l1.4,3c3.6-1.4,6.9.8,10.8,6.6,3.9-5.5,6.6-12.1,6.9-19l2.2-1.9c5,4.4,7.4,6.3,11.9,11.9v.3Z"/>
  <path class="st115" d="M452.9,118c-11.3,3.6-23.2,8-33.9,13-41.1,19-143.6,91.3-155.8,135.1-12.1,43.8-1.9,16,4.7,23.7-28.1-5-19.6-29.8-8.3-47.1,27-41.6,110.6-101.5,156.1-121.9,45.5-20.4,30.9-13.2,32.3-12.1s2.8,8,5.2,9.4h-.3Z"/>
  <path class="st2" d="M158.8,581.7c-1.1,1.4-3.6,1.1-4.4,5.5-1.9,10.8,9.1,25.4,8.8,5.2,1.7,0,2.2,1.9,3,3,3.6,6.6,6.1,29.2,6.3,37.2.6,11.6-9.1,16.8-17.9,8.5-8.8-8.3-24-54.3-21.8-70.6,3.6-26.5,36.9-5.5,25.9,10.8v.3Z"/>
  <path class="st34" d="M119.3,922l7.7,3c.6,2.5-8.5,4.1-9.1.8-9.4,2.2-48.5,13-26.7,25.1,21.8,12.1,38.6,12.4,55.4,14.1,27.8,3,54,5.2,82.2,5.5,26.2.3,54,.6,79.1-3,1.7-1.9,2.8-2.5,5-.6,5.8,3.6,12.4,5.2,18.5,8h-5.2c-1.7,0-.8,0-1.4,0l-2.8-1.4c-1.1-.3-2.5-.8-3.9-1.4-33.1,5-72.8,4.7-108.6,2.8-38.9-1.1-77.2-5-116.3-12.4-10.2-1.9-33.6-9.4-27.6-23.4s38-19.3,48.8-18.5l1.4-1.4c1.9.6,2.8,1.9,3.9,2.8h-.3Z"/>
  <path class="st18" d="M468.9,455.2l3-1.4c3,4.1,6.3,7.7,10.2,10.5,1.7,2.2,3.9,3.9,6.3,4.7v3.3l5.2,4.4c5-5,8.8-6.6,12.1-4.4,1.9-1.1,6.3,5.5,6.6,8l1.1,1.4c-4.1,2.2-7.2,5-9.1,7.7-5,2.8-9.6,5.2-14.6,8-7.4,4.1-13.5,9.6-18.5,16-3.3,2.2-5,1.1-3.9-2.8,2.8-.8-2.8-2.8-5.2-2.8-2.2,2.8-3,2.2-2.8-1.4-2.8-.6-2.2-2.2,1.4-5.2l1.4-1.4c-1.1-.3-1.1-.8,0-1.4l1.4-1.4c.3-1.1.8-1.1,1.4,0,6.6,4.7,12.7,1.9,18.2-8.3,2.5.8,2.5.6,0-.8l-2.8.8c-3-7.7-7.7-5.8-14.1,5.2l-3-.8c.6,3.3-9.9-3-9.9-4.1s1.1-1.9,1.9-2.5c-2.2-2.2-1.7-5.2,1.9-8.5l6.9-7.2c-4.1-3.6-5.2-6.9-3.6-9.4-3,0-2.8-1.9,0-2.8-1.7-1.7-1.4-1.9.6-.6,3.6-4.1,6.1-5.2,7.4-3.6l.3.6Z"/>
  <path class="st48" d="M497.9,263.3c-12.4,19.9-22.6,41.1-29.2,63.4-1.9,1.4-27.8-10.2-28.9-12.1s0-3.3,1.1-4.4c2.8-4.1,15.4-16,19.9-19.9,4.4-3.9,32-26.5,36.9-27h.3Z"/>
  <path class="st110" d="M492.9,46.9c-3.6,3.3-6.1,14.9-3,18.2,3,3.3,2.2-1.1,2.8-1.9,3.3-5.8,9.1-13.2,7.7,0-1.4,13.2-25.9,20.7-11.9,35.3,0-4.4,6.3-10.8,9.4-5.8,5,8-12.4,42.2-19.6,15.2-7.2-27-1.4-59.3,11.6-71.1,13-11.9,10.8-1.9,9.4,5.2-1.4,7.2-4.1,3-6.3,5h0Z"/>
  <path class="st139" d="M773.3,919.5c.8-3,3.3-2.5,5.8-2.8,21.2-1.4,77.5,4.4,97.3,11.3,19.9,6.9,23.2,10.8,11.9,18.5-11.3,7.7-73.6,16-94.6,16.8-24.3,1.1-58.5,1.4-82.2-1.4-23.7-2.8-1.9-4.1-5.8-2.8.8,0,1.9-1.1,3.9-1.4,2.5-1.4,4.7-1.9,6.6-1.4,17.1,3.6,37.2,3.6,55.4,3.3,30.3-.3,57.6-2.8,87.1-10.2,24.8-6.3,16.8-16.5-2.8-21.5-9.6-1.4-19.3-3-28.7-5-11.6-1.4-23.4-3.3-35-3.9-11.6-.6-14.6,1.1-19.3,0l.3.3Z"/>
  <path class="st143" d="M140.6,928.6l1.4,1.4v1.7c-27,11-28.4,13.8-.8,23.7,32.8,6.6,67.3,9.9,100.1,9.1,0-1.1.8-1.1,1.4,0,19.6,0,41.6-1.4,60.9-5.2,1.9-1.1,3.3.8,3.9,2.8.6.3.8,1.1,1.4,1.4,1.7,1.9,1.4,2.8-1.4,2.8-29.8,3.3-60.1,4.1-89.9,2.8-1.1,2.2-5.2,2.2-6.6,0-28.9-.3-60.7-3-88.8-9.6-6.1-1.4-21.5-5.5-23.4-12.1-4.1-14.1,27-22.1,36.7-19.3,2.5,0,3.9,1.1,5.2,1.4v-.6Z"/>
  <path class="st92" d="M450.2,452.4c1.9-2.8,3.6-3,2.8.3,5,4.4,6.3,7.4,3.9,8.8l1.7,2.5c-5.2,5-9.9,9.9-14.6,15.4,5.5,2.8,7.7,5.8,6.3,8.5,3.3-.6,4.1,1.7,2.8,6.6,1.7,1.9.8,2.8-1.4,1.4-1.4,1.1-2.8,1.9-3.9,2.8-3,1.4-7.2,0-12.1-3.6-1.1,3-3,4.7-5,5-4.1-2.2-7.7-4.1-11.9-6.6.6-3,1.4-6.3,3-9.6l-14.6-13.2c-1.7-2.2-2.8-3.9-.6-6.1l-2.5-2.5c0-.6,8.5-6.9,9.1-5.5l2.8-1.1,14.9,13,16.5-16h3-.3Z"/>
  <path class="st15" d="M188.3,374.4c-.6,7.4,1.7,15.7,6.6,24.5,5-4.7,8.8-5.8,11.9-3.3,8.8-7.7,13.5-8,14.1-.8,3.3,4.1,1.4,7.2-5.8,9.4-.8,1.4-2.5,1.9-5.2,2.2-.6,3.9-3,7.2-8,9.9,3.9,5.2,4.1,9.1,1.4,11,4.4,5-2.2,9.1-6.6,10.5h-3c-1.4-4.7-3.3-8.8-5.8-11.9-4.7,4.4-8.8,6.1-12.4,5.2-4.1,5.5-9.4-6.1-5.2-9.4l-.6-3,11.9-10.5-9.1-24.8,1.9-2.8c5.2-2.5,9.1-4.4,14.6-6.6l-.6.3Z"/>
  <path class="st78" d="M267.7,907.6l-30.6-21.8c-16.3-8.5-33.9-17.6-52.9-16.5-3-17.6,9.4-13.2,21.2-9.9,17.1,4.7,35.6,14.9,49.6,25.9,8.5,6.9,15.7,9.9,12.7,22.3Z"/>
  <path class="st19" d="M181.6,935.2c1.4,2.8,0,3.6-2.8,3.9-1.7-.8-13.8.6-11.3,4.4,8,11.6,65.3,12.1,80.5,10.8,9.4.8,18.2,0,26.2-1.9,5,0,26.5-1.1,28.4,1.4s.3,2.5.6,2.8c-1.4,1.9-10.2,3.3-17.1,3.9-40.8,3-74.2,1.9-114.7-2.2-40.5-4.1-45.8-8-22.6-24.8l-.6-1.9c-1.4.6-2.8,1.1-3.9,0-1.1-.3-1.1-.8,0-1.4,12.4,1.9,24.8,3.3,36.9,5.2h.3Z"/>
  <path class="st57" d="M114.1,919.5h1.4l1.9,3.9c-1.7,0-3-1.4-5-1.1-8.8,1.1-35,8.8-41.4,14.3-6.3,5.5-4.7,4.7-4.4,7.2s5,8.8,6.3,9.4c4.7,2.2,17.9,6.6,23.4,8.3,19,5.5,39.7,6.6,59.3,9.6l53.5,3.9c-28.9,1.7-58.7-.6-87.4-5.2-16.5-1.9-35.8-5.2-51.6-11.3-15.7-6.1-21.8-9.1-20.1-16.8s2.5-1.1,3.3-2.5c4.1-5.8,9.4-8.3,16.8-11,7.4-2.8,32-9.4,38-9.6s5.5.8,5.8,1.1Z"/>
  <path class="st105" d="M831.5,926.1c.6-1.7,1.7-1.4,2.8,0l8,1.4c0-1.1.6-1.1,1.4,0l14.9,3.9c13,3.6,13,11.9,1.1,17.1-44.1,13-96.8,14.1-142,9.4-45.2-4.7-.8-.6-1.1-1.4-.8,0-4.7,1.1-6.6,1.4,3.9-3,9.1-3.6,13.2-5.2,35.3,4.7,72.2,2.5,107.5-3.6,3.6-.6,23.2-5.8,18.2-11.6-8.3-9.4-67.3-11.9-82.4-12.1l-.8-1.9c.8-.6,1.7-1.7,2.8-2.8,1.4,2.2,5,1.4,7.2,1.4,20.1,0,36.7,2.2,56.2,3.9l-.3.3Z"/>
  <path class="st24" d="M386.5,394.5c9.9-.8.6,25.9-1.1,30.6s-17.6,33.9-21.5,33.9-1.9-3.3-1.9-4.4c-1.4-12.1,9.4-58.7,24.8-60.1h-.3Z"/>
  <path class="st10" d="M169.8,422.1c1.4,2.8,1.4,9.6,5.2,9.4l8.3,18.2c3.9-5.2,7.7-7.7,11.6-7.7.8-.6,1.4-1.1,1.7-1.1,2.5,2.8,7.7,11.3,2.5,11.6l1.9,2.5c0,2.8-10.2,11.9-13.8,12.1,0,3-2.8,5.2-8,6.6-3.9,1.4-7.7,3.9-10.2,6.9h-3c-1.4-4.1-3.6-9.9-5.2-13.5.3-2.8,3-5.5,8.3-7.7-1.9-5.8-4.4-11.6-6.9-17.4-2.2-2.8-6.1-7.4-3.9-10.5-3-1.7-2.2-3.9,1.4-3.9-2.2-3.6,4.7-6.9,8-6.6,1.7-3.3,3-2.2,2.8,1.4l-.6-.3Z"/>
  <path class="st11" d="M357.5,395.6c-1.7,5-3.6,9.9-6.1,14.9,4.1.6,6.1,2.2,6.1,5-1.1,4.1-2.5,8-3.9,11.9-1.9,1.9-5.2,1.7-9.4-.8l-4.7,13-3,.8c-4.7-1.7-8.8-4.4-13.2-6.6,6.3-8.3,6.6-13.5.6-15.7l-.6-2.8c-2.8.3-3.6-2.2-1.4-3.9,1.7-1.9,2.8-3.9,3.6-6.6h1.9l2.8-1.7c6.3,2.8,10.5-1.1,11.9-11.6,5.5,1.7,9.9,1.7,16,3.9l-.6.3Z"/>
  <path class="st143" d="M765.3,923.3l46.9,2.8c6.3,1.4,13,1.7,19.6,3s18.5,4.7,19.3,7.2c4.1,11.9-18.7,14.9-27,16.3-25.9,4.1-70.3,5-96.5,3-26.2-1.9-3.3,0-4.4-2.8,1.1-.6,3.9-1.9,5.2-2.8,20.4,3.6,47.1,2.5,70,1.4,4.7,0,9.4-1.1,14.1-1.9,62.6-11.3-30.6-26.5-48.5-20.7,0,1.1-.6,1.1-1.4,0-1.7,0-1.4-1.7,1.4-3.9.6-.3.8-.8,1.4-1.4v-.3Z"/>
  <path class="st95" d="M184.4,935.2c6.9.8,14.1,1.1,21.2.8l-.8,3.3c-18.7,3-16.3,4.4,0,9.1,21,2.2,41.6,3,62.9,2.5,3,0,6.1,1.4,6.6,1.4-3.3,1.7,5.2,1.9-.8,3.6-9.4,2.5-26.5-.8-36.7,1.7-18.7-2.2-44.7-.3-62-6.9-17.4-6.6-5.5-5-9.9-5.2,1.9-11,5.8-8.5,14.1-9.1,8.3-.6,3-1.4,3.3-1.4h2.8l-.6.3Z"/>
  <path class="st78" d="M299.4,355.9c8.8,14.3-1.9,13.5-6.9,24.3-5,10.8-9.9,44.1-22.3,25.4-12.4-18.7,9.4-27,17.1-35.8,7.7-8.8,5.8-8.3,8.8-12.1s0-2.5,3-1.7h.3Z"/>
  <path class="st15" d="M233.2,350.7l2.2,1.9c-.8,2.5,3.9,17.1,4.7,17.6,4.7-3.3,9.1-4.4,13-3.6,1.9-1.7,2.5-1.1,1.4,1.4,2.2,5.5-4.4,13.2-8.3,17.4s.6-1.9,1.7,0c-1.9,1.9-6.6,9.4-8,11.9-2.5.8-3.6,0-5-1.9-3.9,2.8-7.2,3.3-9.6,1.9-2.5,3.6-4.4,1.4-5.5-6.6-2.2.6-2.2-.6.3-2.5-2.5-2.5-.3-5.2,6.3-8l-7.2-20.1,2.2-2.2c3.9-1.9,8-4.4,11.9-6.6v-.6Z"/>
  <path class="st81" d="M148.6,931.3l17.1,3.9c-3.3,1.4-12.4-1.9-14.3-1.1s-.6,1.9-1.4,2.2c-6.3,3.9-11.6,7.2-2.2,13.2,9.4,6.1,17.6,5.5,21.5,6.3,37.2,7.4,91.3,5.5,129.3,1.9,38-3.6.8-4.4,4.4-1.4,1.4,1.4,4.4,1.9,3.9,5.2-1.1-.8-3-2.2-3.9-2.8-4.7,1.9-12.1,2.5-17.9,2.8-6.6.8-14.6,1.7-21.5,1.4-6.9-.3-.6-.6-.8-1.4-4.4,3.3-14.3,3.3-20.4,2.8h-1.4c-26.7,0-55.1-1.1-81.9-5.2-26.7-4.1-19.6-4.1-29.2-8.5-9.9-8.8,4.4-19.9,13.2-17.9,1.4-.6,3-1.1,5.2-1.4h.3Z"/>
  <path class="st156" d="M584.5,202.9c13.5-13.2,37.8,0,24.8,16-13,16-40-.8-24.8-16Z"/>
  <path class="st121" d="M118.2,926.1c.8,1.1.8,2.2,0,2.5l-13.8,5.5c-19,8.8-13.5,14.6,4.1,20.4,31.4,10.8,69.5,13.2,102.3,13.8h6.6c28.9,1.9,60.9.6,89.9-2.8,0,0,.3-2.2,1.4-2.8,1.9,1.4,3.3,3.6,3.9,3.9-5.5,4.7-13.5,2.2-20.4,2.8-57.3,3.3-113.3,3-169.8-7.7-11.9-2.2-17.1-3-27.8-8-10.8-5-11-1.7-12.1-9.1-1.9-13.2,25.9-18.2,35.6-19l.3.6Z"/>
  <path class="st110" d="M425.1,403.6c1.1.6,1.1.8,0,1.4l2.8,5.2c1.1.3,1.1.8,0,1.4,4.1.6,4.7,4.4,1.4,6.6l.6,3.9c0,3-15.7,25.4-21.8,22.6-5.5,5.5-13.2-12.1-8-17.1,7.7-9.6,13-16.8,22.6-25.1,2.2-1.1,3.3-1.4,2.8,1.4l-.3-.3Z"/>
  <path class="st113" d="M283.7,349.3l-12.7,13c-.6,2.2-.3,3.6.8,4.1-3,4.7-4.4,8.3-8,13.2-1.1.6-3,1.1-3.3.6-1.9-3.6-4.4-8.8-4.1-12.1h-1.9c0-.3-1.4-1.7-1.4-1.7-1.7-9.1-3.6-16.8-5.2-23.7,3.9-2.2,8-4.4,11.9-6.6h2.8c0,.3,3.6,12.4,3.6,12.4,5.2-4.1,9.9-8.8,14.1-14.1l3.3.6c1.1,4.7,1.4,9.4,0,14.6l.3-.3Z"/>
  <path class="st148" d="M169.8,422.1c0-.6-2.5-.8-2.8-1.4l-3.9-1.9c-3.6-8.5-6.1-17.4-8.5-26.2l1.7-3.9c5.5-3,11.6-5.2,17.1-8l10.5,28.4-14.3,12.7.3.3Z"/>
  <path class="st104" d="M402.8,920.9c-.6,3.3,1.7,2.8,3.6,3.6,10.5,3.9,42.5,12.1,24.5,28.1-17.9,16-10.2,5.5-11,6.1-3.3,1.4-16.3,5.8-19.3,6.1s-3.3-.6-4.4-2.8l-.6-4.4c17.9-3.6,35-13.5,8.3-25.1-5-.3-10.2-1.1-5-6.1,1.4-1.7,2.8-3.6,3.9-5.2v-.3Z"/>
  <path class="st8" d="M398.6,926.1c-3.6,4.1,3.3,2.5,6.3,3.6,6.9,3,20.4,10.8,13.8,19.6s-18.5,12.7-22.6,8.5v7.7c-.3,2.2,0,1.9-1.4,3.9,2.2-11.3-5.2-31.7.8-41.1s2.8-1.9,3.3-2.8l-.3.6Z"/>
  <path class="st38" d="M135.3,927.5c-1.1,0-10.5,1.4-12.1,1.7s-17.1,6.1-17.9,6.6c-1.9,1.4-5,8-4.1,10.5s6.6,5.8,7.4,6.1c22.9,10.8,76.4,14.9,102.3,16-9.1,3.9-19.9,0-28.7-.8-25.4-2.2-65.6-3.9-88-16.8-22.3-13-3-1.1-3.6-3-5-14.6,20.1-15.2,27.6-21.5h8v-1.4c-3.3.6-4.7-1.7-6.6-2.8l16,5.2-.3.3Z"/>
  <path class="st110" d="M540.3,325.6c2.5,1.7,3.6,3,.6,3.3.6,5-.6,7.7-3,8.5,2.5,5.5-6.3,18.5-11.9,19.9-2.2,2.5-3,1.9-2.8-1.4-5,1.1-12.1-16.3-12.4-20.1l1.7-3.9c2.2-2.2,10.2-12.7,11.3-13,5.2,2.8,11,4.1,16.3,6.3l.3.3Z"/>
  <path class="st110" d="M159,427.3c-.3.3-.3,3-1.4,3.9,0,3-6.9,9.6-9.9,11.6l-3.3-.8c-8.3-15.7-13.8-28.9,0-43.6,2.5-2.8,4.4-3,5.2-1.1,3,9.1,6.3,17.9,10.2,26.5l-.8,3.9v-.3Z"/>
  <path class="st125" d="M234.6,935.2c3.6,5.2-2.5,5.8-6.9,6.3-11.3-1.1-28.7,2.5-5.8,4.4,13.2-.3,26.2,1.1,39.2,3.9,2.2,0,4.7-.6,6.6,1.4-21,0-44.4,4.4-65.1-.3s-20.7-6.6-10.5-11.3l13.5-3h-17.9c-6.1,0-3-1.4-3.3-1.4,11.3-.3,22.6.3,33.9,0,11.3-.3,11.3-3.6,16.5,0h-.3Z"/>
  <path class="st148" d="M452.9,379.9l3.9-1.7c1.1,0,9.6,20.1,9.6,21.2.3,4.7,0,6.6-4.4,5.5-6.6,1.7-13.8,3-21,3.6,0,3.6-2.8,3-5.2,1.1.6-4.1-1.4-11-4.7-12.7l1.9-2.5c6.3-5,13-9.9,19.9-14.6h0Z"/>
  <path class="st145" d="M760.1,927.5c-.8,1.1,0,1.4,2.8,1.4h1.4c16.8-1.1,36.7-.6,52.9,3.3,16.3,3.9.8.8,1.1,1.9,19.9,8.8-7.2,14.6-16.8,15.7-22.6,2.8-44.4,3.9-67.5,1.1-23.2-2.8-2.2-1.1-3-2.2.8-.6,1.9-.8,2.8-1.4l6.9-2.2c15.7,6.3,113.6-4.1,37.5-11.3-7.4-.8-14.9-.8-22.1-.3,0-1.1.3-2.2,1.7-3.3.6-.6,1.4-1.7,2.8-2.8h-.3Z"/>
  <path class="st45" d="M757.3,929.9c-1.9,3.6-1.9,2.5,1.4,2.2,12.4-1.1,35.8,0,48,3.3s3.3,6.9.8,8.5-28.7,4.4-33.6,4.7c-13.5.6-27-1.4-40.5-1.4,1.9-1.1,5.8-3.9,8-5.2,3.3.8,48,.8,46.3-1.9-1.7-2.8-29.5-4.1-33.9-3.3l-1.9-2.8c1.7-1.4,3.6-2.8,5.2-3.9l.3-.3Z"/>
  <path class="st77" d="M483.3,365.3c4.4-.6,9.4,11.3,6.6,14.6.8,1.7,1.9,6.3-1.4,5.2,3,5.2-8.5,9.6-13.2,9.4-.6.3-1.1.6-1.7.6-2.8.3-16.5-20.4-8.8-23.2,7.7-4.1,11.6-4.1,18.5-6.6h0Z"/>
  <path class="st77" d="M196.3,370.5l6.6-2.8c2.2,6.6,4.7,13.5,7.2,20.1l-1.9,2.5c3.9,1.7,2.2,5.2-1.4,5.2-5.8.6-8.8,6.9-14.6,6.6,0-7.4-7.2-16.5-7.4-23.7s2.2-2.8,3.3-4.1c2.8-1.1,5.2-3,8-3.9h.3Z"/>
  <path class="st7" d="M247.8,342.7c3.9-.8,2.2,1.9,3,4.1,1.7,5.2,7.4,15.7,2.2,19.6-5.2,3.9-11.3,5-14.6,8-1.1-7.7-7.4-16-5.2-23.7,5-2.8,9.6-5.2,14.6-8Z"/>
  <path class="st7" d="M577.3,346.8c4.4,3.3,6.9,5.8,10.5,9.4,2.2,5.8-5,22.9-9.9,25.1-2.2-3.6-6.1-8.8-9.9-10.5-3-.8-3-3.3,0-8-3.3-3,5-16.3,9.4-16h0Z"/>
  <path class="st71" d="M752.1,934.1h17.9c3.6,1.1,21.8,1.9,21.8,6.1,0,7.2-42.5,5-49.1,4.7l-1.4-2.8c3-1.9,7.4-5.5,10.5-8h.3Z"/>
  <path class="st63" d="M220,387.6c1.4,3,1.1,10.2,5.2,9.4,2.2,2.5.8,5.8-2.8,5.2,0,2.5-1.7,4.1-5.5,4.7.6,6.9,3.3,8.8,8.3,6.1,2.5-1.9,7.4-5.2,9.4-1.4-4.1,10.5-6.6,19.6-9.4,30.3-2.5.8-4.4-.8-5.8-4.4-3.6,4.4-6.6,5.5-8.8,3.3-.6,1.1-1.7,1.4-2.8,1.4-4.1,1.4-5.5-.8-2.8-3.9l.8-2.5c-3.3-3-3.3-5,.3-5.5-2.2-3,.3-6.3,7.7-10.2-1.4-4.7-3-9.1-5-13.5,2.5-1.7,11.6-6.6,11.9-7.2,0-1.1-3.3-6.1-2.5-8.5-8.3,3-8.8,4.7-6.6,13.2l-5.2-8c.6-1.4,1.7-3.9,1.4-5.2,3.3-3.3,6.3-4.7,9.4-3.9,1.7-3.3,3.3-2.2,2.8,1.4v-.8Z"/>
  <path class="st134" d="M193.5,476.4c3.6-1.1,5.8,4.7,5.2,8-1.9,3.3-4.4,9.1-6.6,13.2-4.4,2.2-8.8,8.8-11.6,14.1l-3,1.7c-2.5-5.8-4.4-11.3-6.6-17.1,3.9-5,7.7-9.4,11.9-13.2-1.9-3.6,4.7-9.4,8-6.6,1.1-3.3,1.7-3.3,2.8,0h0Z"/>
  <path class="st7" d="M406.6,464.6c.8.8,1.7,3.6,3.3,5.2,2.8,3,13.8,11.6,14.6,13.2s-3,11.6-6.1,10.5c-8-5-15.2-9.9-22.6-16-3.3-3.6,1.7-14.9,6.6-13.2-.6-4.1.8-4.1,3.9,0l.3.3Z"/>
  <path class="st7" d="M599.9,367.8c3,3.9,5.5,7.4,8,11.9.8,3.6-5,23.7-7.2,23.7l-13.2-13.2,12.7-22.6-.3.3Z"/>
  <path class="st10" d="M464.8,371.9c-1.7,3.3,1.4,8,2.8,11,2.5,5.8,6.1,8.8,7.7,11.3,3.6-1.9,8.3,6.6,5.2,9.4,3,1.4,2.5,3.3,0,5.2.8,3.3-5,6.1-8,6.6-1.7,2.8-6.6,3-8,0-.3-3.6-.8-7.2-1.4-10.5h-1.4c2.2-1.7,3-.8,2.2-3.9-1.4-4.7-5.8-11.9-8-17.4s0-4.7-3.3-3.9c4.4-3,6.9-5.2,11.9-8h.3Z"/>
  <path class="st144" d="M167,420.7c-1.4,3.6-5.5,4.4-8,6.6-5.5-8.5-7.4-18.7-11.3-27.8-3.9-9.1,0-3.6-3.3-1.4,3.6-3.9,7.2-6.3,11.9-9.4,2.8,9.9,6.1,22.6,10.5,31.7l.3.3Z"/>
  <path class="st52" d="M283.7,334.7c-3.6,3.9-14.3,17.1-19,17.1l-4.7-16c6.6-3.6,12.7-8,19.3-11.9,2.8,2.8,3.9,6.9,4.7,10.5l-.3.3Z"/>
  <path class="st70" d="M261,949.8c-14.6-1.4-27.6,0-41.6-1.4s-12.7-.6-11.3-5.5,12.7-3.3,17.6-3.6c5-.3,9.9-.3,8.8-3.9,1.4.8,2.5,3.3,4.1,4.4,7.2,5.2,14.3,6.9,22.3,9.9h0Z"/>
  <path class="st138" d="M568.2,506.7l-6.6,5.2c3.3.6,11.9-1.7,13.2,2.2s-1.7,23.4-9.4,21.5c-7.7-1.9-6.1-10.8-6.3-17.6s1.4-5.2-2.8-4.7c3.9-2.2,7.7-4.4,11.9-6.6h0Z"/>
  <path class="st1" d="M210.9,447.2c5.5,0,8.8,11.3,6.6,16-6.3,7.7-13.2,12.1-18.5,21.2-3-1.7-3.9-5-5.2-8-.8-.8-1.1-1.9-.6-2.8l11-7.4c-3.3-5.5-3.9-9.6-1.1-12.1-2.8-2.2-2.5-5.2,1.1-5.8,4.7-6.1,7.2-6.3,6.9-.8l-.3-.3Z"/>
  <path class="st77" d="M220,387.6c0-.3-2.5-1.1-2.8-1.4l-3.3-1.1c-1.4-1.7-6.6-21-3.3-22.9,2.8-1.4,5.2-2.5,8-3.9l1.4-1.4h1.4c.8,3.3,8,21.8,7.7,22.9-.6,2.2-8,4.4-9.1,7.4v.3Z"/>
  <path class="st46" d="M160.4,467c-2.2-5-5.2-8.8-8-13.2-5-5.8,3.9-12.1,9.4-11.9,0,0,2.2-.3,3.3,1.4s7.2,15.7,6.9,16.5-9.4,6.9-11.6,7.2Z"/>
  <path class="st106" d="M798.4,951.2c-22.9,3.9-45.8,1.7-68.9,1.4l-1.4-2.8c.8-.6,1.9-.8,2.8-1.4,20.7,3.3,41.9,3.6,62.6,1.1,20.7-2.5,41.4-4.1,24.5-15.7,4.1-3.3,18.5,2.5,13.5,9.1-5,6.6-27.3,7.4-33.4,8l.3.3Z"/>
  <path class="st15" d="M217.5,386.5c-2.8,2.2-5.8,6.9-9.4,3.9-1.7-6.9-6.1-13.8-6.6-21.2-.3-.3-4.4,1.1-5.2,1.4,4.4-3.6,9.6-5.5,14.6-8,2.2,6.9,3.9,17.4,6.6,23.7v.3Z"/>
  <path class="st60" d="M389.5,440.6c4.7-5.5,8.3,6.1,6.6,9.4,3.6.8,3.6,2.5,0,5.2,1.4,4.1-4.7,14.1-9.4,13.2-2.2-2.8-8-6.9-8-11.3s8.3-13.2,10.5-16.5h.3Z"/>
  <path class="st113" d="M523,355.9c5,1.9-4.4,6.9-6.6,6.6s-8.3-7.2-6.6-9.1h-3l-6.1-10.5c3.6-3.9,8.3-6.9,11.9-10.5,1.7,7.4,6.3,17.4,10.5,23.7v-.3Z"/>
  <path class="st52" d="M178.9,473.6c4.4,0,6.1,5.8,3.9,9.4,0,.3,0,2.8-.8,3.9-2.2,2.8-7.4,11.6-11.3,9.4-1.9-5.2-3.3-10.8-5.2-16,2.5-4.4,7.4-6.3,11.3-9.1.3,0,1.7,2.2,1.9,2.5h.3Z"/>
  <path class="st128" d="M225.2,441.9c-2.8,11,0,11.9-8,21.2-2.2-5.2-3.3-11-6.6-16-2.2-3.3-2.2-5.5,0-6.6,2.5,0,8-7.2,9.9-6.6,0,0,4.7,8,4.7,8Z"/>
  <path class="st132" d="M509.7,353.4c3.3,3.9,1.9,6.1-3.9,6.6,2.5,3-3,9.1-6.6,9.4-.6,3.6-1.7,3.3-2.8,0-5.2-3-5.2-9.4-2.8-14.6,2.8-5,1.9-6.9,6.6-11.9,3.9-3,6.3,6.9,9.4,10.5h0Z"/>
  <path class="st137" d="M239.8,397c-1.7,3.9-3.6,10.2-5.2,14.6-3.3.3-6.1,3.9-9.4,1.4-3.3-.3-6.1-8.8-2.8-10.5,0,0,1.1-3.9,2.8-5.2s9.1-5.2,9.6-5.2c1.7.3,3.9,3.6,5,5.2v-.3Z"/>
  <path class="st147" d="M462.3,338.8c6.3,3.3,1.7,3,2.8,10.5l3.3-9.4c5.8,1.7,11.9,3,17.9,2.8-1.7,17.4-21.2,11.3-30.3,3.9,1.1.6,7.7,3,8,2.8l-1.4-10.5h-.3Z"/>
  <path class="st25" d="M553.6,332.2c4.1,2.2,8,4.1,11.9,6.6,5.5,3.9,0,15.7-5.2,17.1,0,2.8-1.9,2.5-2.8,0-5.8-1.1-13.2-18.2-8-22.6-1.1-1.9,0-2.5,3.9-1.4l.3.3Z"/>
  <path class="st144" d="M577.3,346.8l-9.4,16c-.8,1.7-1.4,3-1.1,5-.6.3-10.5-11-6.9-11.6,1.7-5.2,6.9-11.6,5.2-17.1,4.1,2.5,8,5,11.9,8l.3-.3Z"/>
  <path class="st130" d="M353.7,427.3c-1.9,5.5-3.3,11.6-6.6,16.5-.8.6-8.8-2.8-10.8-3.3.8-3,4.7-15.4,6.6-16.5s8.5,2.8,10.8,3.3Z"/>
  <path class="st80" d="M307.4,405c3.9,1.1,5.2,3,3.9,5.2,1.9,3.9-1.9,17.1-8,13.2-1.9-1.4-8.8-3.6-8.8-6.1,2.5-5.2,5.2-10.2,7.7-15.2,2.5-3.9,6.1-1.7,5.2,2.8Z"/>
  <path class="st113" d="M157.9,431.5c2.2,1.9,3.6,5.2,4.7,8,1.1,2.8-.8,2.5-.6,2.8-1.9,4.4-12.1,6.9-9.4,11.9-2.5-4.1-5.2-6.6-8-11.9,3.9-2.5,6.6-6.1,9.9-9.4s3-1.1,3.3-1.4Z"/>
  <path class="st61" d="M323.4,415.5c2.2,0,7.7,3.6,8,6.1s-3.6,15.2-8,12.4c-2.8-1.4-5.2-2.5-8-3.9-3.6-2.5-.6-13.5,3.9-13.2-1.1-3.3,2.5-4.1,3.9-1.4h.3Z"/>
  <path class="st97" d="M341.8,391.8c2.8,2.2,3,0,1.7,3.6-4.1,9.9-4.7,15.7-16.3,9.6-2.2,1.4-2.8-.8-1.4-2.8-.8-4.7,2.2-15.4,8-13.2,2.8,1.1,5.2,1.9,8,2.8Z"/>
  <path class="st21" d="M400,455.2c.6,2.8,1.9,5.2,4.4,7.7l-1.7,1.7c-2.2,2.2-5.8,9.9-6.6,13.2-4.4-3.6-5.8-5.2-9.4-9.4,3.3-4.1,5.5-9.4,9.4-13.2,1.4-2.8,2.2-3.3,2.8-1.4,2.2-1.9,3-1.1,1.4,1.4h-.3Z"/>
  <path class="st134" d="M408,444.7c3.6.6,3.3,1.7,0,2.8,1.4,1.9.8,2.5-1.4,1.4-.6,3.3-1.4,3.3-2.8,0h-1.9c-3.9,5-5.8,5.2-6.1,1.4-.3-.8-1.9-1.9-2.5-3.3-1.4-2.8-.6-6.9-4.1-5.8,3.3-4.7,6.9-8.8,10.5-13.2-.8,6.3,2.2,11.6,5.5,16.5s2.5.6,2.5.8l.3-.6Z"/>
  <path class="st0" d="M580,445.8c-8.3,5.2-16.8,9.6-25.1,14.6l-5.2-3.9c8-1.9,19.3-13.5,26.5-15.4s3.9,2.8,4.1,4.7h-.3Z"/>
  <path class="st47" d="M319.2,416.9c-1.1,2.2-3,10.2-3.9,13.2-4.1-2.2-7.7-4.1-11.9-6.6,5,.3,4.1-9.9,8-13.2,3,0,13,3.9,8,6.6h-.3Z"/>
  <path class="st109" d="M333.8,389c-4.7,2.5-3.6,9.6-8,13.2-2.2.3-12.4-3.6-8-6.6-3-2.5,0-11.9,3.9-11.9,2.2,1.1,9.4,4.4,11.9,5.2h.3Z"/>
  <path class="st144" d="M496.5,369.2c3,3.3-3,9.4-6.6,10.5l-6.6-14.6c4.7-1.9,8.3-6.3,10.5-10.5-1.1,5.2,2.8,9.9,2.8,14.6h0Z"/>
  <path class="st122" d="M357.5,395.6c1.4.6,4.1-.6,5,1.9-1.7,6.1-3.3,11.9-5,17.9l-9.4-3.3c-.3-2.2,4.1-10.5,5.5-13s.6-4.1,3.9-3.6h0Z"/>
  <path class="st137" d="M447.7,498.7c2.2.3.8,3.3,0,5.2,3,1.9,1.7,3.3-1.4,3.9-5.8-2.8-10.2-4.7-16-8l2.8-9.4c2.2,1.1,14.1,7.2,14.6,8v.3Z"/>
  <path class="st157" d="M263.8,379.9c-.3.6-.6,3.9-1.9,3.9-3,0-5.2-6.3-13.8,1.4-2.2,1.7-3.9,2.2-2.2-1.4,2.5-5.2,6.1-10.5,8.8-15.7,4.1-7.7,5.5,9.9,9.4,11.9h-.3Z"/>
  <path class="st86" d="M192.1,497.6c-3.9,7.4-7.2,16-10.5,23.7-2.8-.8-3-5.8-3.9-8,.3-5.2,5.8-11.3,9.4-15.2s2.2-3,5.2-.8l-.3.3Z"/>
  <path class="st133" d="M322,383.8c-1.1,3.6-2.2,8.5-3.9,11.9.6,3.3-.3,3.6-2.8,1.4-3.6,2.5-8.5-3.3-6.6-6.6.8-1.7,4.4-11.3,5.2-11.9,3.3-.3,5.2,3.9,8,5.2Z"/>
  <path class="st4" d="M519.1,463.2c-3.6,5,3.9,6.9,5.2,9.4,1.7,0,2.8,1.4,2.8,3.9-3.9,2.2-8,4.4-11.9,6.6-3,1.4-3.6.6-2.8-2.8-1.1-1.1-6.3-7.4-6.6-8-3.9-.3-3.6-2.8,0-3.9,1.9-2.8,2.8-2.5,2.8,1.4,3.6-.8,4.1,2.5,1.9,2.5s-1.7-1.4-1.9-2.5c-3.3-2.2-1.4-5,5.2-8,2.2-2.8,4.4-2.2,5.2,1.4h0Z"/>
  <path class="st23" d="M588,488.3c9.9-10.2,30.9-25.4,43-35.8,12.1-10.5,2.2-3.3,4.7-2.8,2.2,1.9-33.1,30.1-36.1,32s-7.7,4.1-11.6,6.3v.3Z"/>
  <path class="st134" d="M315.4,397c1.9.8-2.8,10.8-4.1,10.8l-3.9-2.8c-1.7-1.4-3.3-2.5-5.2-2.8,1.9-4.1,4.4-8,6.6-11.9l6.6,6.6h0Z"/>
  <path class="st23" d="M588,488.3c-8.8,9.1-35.6,22.3-48.5,27.6-13,5.2-7.2,2.8-11,3-.6-3.9.8-2.2,3-3,19.9-8,38.3-17.1,56.5-27.6Z"/>
  <path class="st17" d="M544.2,518.6c-4.4,2.2-.6,9.9-1.4,15.2-1.1,8.5-6.1,3.6-6.6-2.8s3.6-9.4-1.4-8.5c2.5-.8,6.6-2.8,9.4-3.9Z"/>
  <path class="st99" d="M462.3,508.1c1.9,0,5.2.6,5.2,2.8,1.1.6,2.8,1.9,3.9,2.8,1.7-1.9,2.2-1.1,1.4,1.4-.6.8,0,3.3-1.9,3.6-5-1.1-9.4-3.3-14.1-5-3-2.2-3.9-3.6,0-5.2-.8-2.8.8-3.6,2.8-1.4.6,0,1.9,1.1,2.8,1.4v-.3Z"/>
  <path class="st96" d="M605.1,424.8c-5.2,7.2-6.3,8.3-13.2,13.2-9.1-3.3-1.4-3.9,1.4-6.1s5.2-5.8,8-8,1.9-3,3.9.6v.3Z"/>
  <path class="st99" d="M541.7,468.4c-4.7,2.8-9.9,5.2-14.6,8-4.4,1.1-1.9-3-2.8-3.9,5.2,0,14.9-14.1,17.1-3.9l.3-.3Z"/>
  <path class="st20" d="M667.4,410.2c-6.1,11.9-16.3,26.2-25.9,35.8s-2.2,3-4.7,2.5c10.5-12.7,20.4-25.4,30.3-38.3h.3Z"/>
  <path class="st54" d="M447.7,504.3c.8-5.2,1.9-5.8,3.6-2.2,6.1,2.2,8,4.4,5.8,6.1.3,1.4,0,3.6,0,5.2-4.1-1.7-7.2-3.6-10.5-5.2-.6-1.7,1.1-3.3,1.4-3.9h-.3Z"/>
  <path class="st90" d="M283.7,349.3c-.8,3-9.1,13-11.9,17.1-3.6,3.9-3.9-4.4-3.3-5.2.8-1.4,12.7-10.8,15.2-11.9Z"/>
  <path class="st72" d="M667.4,410.2c2.5-3,8.3-22.9,9.4-23.7,4.7-5,.6,6.9.6,7.2,0,1.1,1.9,2.5,2.2,3.3-1.9.8-3.3,3.6-3.9,5.2-.3-6.6-2.2,1.4-4.1,4.4s-3,2.8-3.9,3.6h-.3Z"/>
  <path class="st123" d="M422.6,333.6c-3.9,5.8-7.2,13.8-10.5,19.9-1.7,1.7-1.9,1.1-1.4-1.4,3-7.7,6.9-14.1,10.5-21.2,0,0,1.4,2.8,1.4,2.8Z"/>
  <path class="st55" d="M390.6,327c-3.6,4.7-7.4,11-10.5,16-1.7,1.7-2.5,1.1-1.4-1.4,3.3-5.8,6.9-10.5,10.5-16l1.4,1.4Z"/>
  <path class="st39" d="M462.3,405h1.4c1.1,3.3-1.4,5.2-8.3,5.5-8.8,0-17.4,1.1-4.7,6.1l.8,1.7c0,3-3.9,5-6.6,3.9-2.8,2.5-4.7,5-6.6,8-1.4,2.5-2.2,2.2-3.9,0-4.4-1.7-6.9-7.4-5.2-11.9-.6-1.4-.8-4.4-1.4-6.6,5.2-3.6,6.1-6.9,2.5-9.6-1.4,1.9-2.5,3.3-5.2,1.9,0-.3-1.9-.8-2.8-1.4,3.9-3.3,6.9-5.2,10.5-8,.8,2.8,3,12.7,5.2,14.1,2.2,1.4,19.3-3.9,24-3.3l.3-.3Z"/>
  <path class="st119" d="M515.2,483c-3.3,1.9-6.9,4.4-10.5,6.6l-1.4-.6c.8-4.4,7.2-4.4,9.4-8.5.6.8,2.2,1.1,2.8,2.8l-.3-.3Z"/>
  <rect class="st41" x="614.5" y="345.4" width="29.2" height="1.4"/>
  <path class="st30" d="M614.5,406.4c-.8,3.6-1.1,4.7-2.8,8-6.1-2.8,2.5-8.8,1.4-13.2l1.4,5.2h0Z"/>
  <path class="st83" d="M553.6,332.2l-3.9,1.4c-.3,4.7-8.5,8-11.9,3.9,1.4-3.3,2.5-8.3,2.8-11.9,4.7,1.9,8.8,4.4,13.2,6.6h-.3Z"/>
  <path class="st146" d="M492.6,526.6c.3,2.2-3,1.4-4.7,1.4h-12.7c-.3-2.2,3-1.4,4.7-1.4h12.7Z"/>
  <path class="st114" d="M504.5,526.6l-8-.6c2.2-3,6.6-3,8,.6Z"/>
  <path class="st135" d="M763.9,924.7l-1.4,3.9c-1.4,0-6.1,4.1-2.8-1.4,1.7-1.4,3.6-2.2,3.9-2.8l.3.3Z"/>
  <path class="st102" d="M527.1,517.5c.8.8-.6,3.6-2.5,3.3l-11.9,3.3c-.6-3.9.8-2.2,3-2.8s11-4.1,11.6-3.9h-.3Z"/>
  <rect class="st102" x="505.9" y="522.7" width="5.2" height="2.8"/>
  <path class="st113" d="M472.8,514.7c-.6-.3-.8-1.1-1.4-1.4,5.2-9.1,9.9-11.3,18.5-16-8.3,6.6-12.1,7.4-17.1,17.1v.3Z"/>
  <path class="st81" d="M144.7,929.9v1.4c-.3.8-.8.8-1.4,0-1.9,1.7-2.8.8-1.4-1.4-.6-.3-.8-.8-1.4-1.4,1.9.3,3.3,1.1,3.9,1.4h.3Z"/>
  <path class="st53" d="M713.8,584.8c1.1,3.6-1.4,6.1-2.8,2.8.8-.6,1.7-2.2,2.8-2.8Z"/>
  <path class="st26" d="M672.7,422.1c-1.4-1.4-1.7-2.8,0-3.9v3.9Z"/>
  <path class="st15" d="M218.6,358.7l1.4-1.4c-.6,0-.8,1.1-1.4,1.4Z"/>
  <path class="st151" d="M209.5,974.9c29.2.6,59,0,88-1.4,7.4-.3,12.7-3.3,20.4-1.4,2.5,3.6,1.4,2.5-1.9,2.8-63.1,3-124.6,4.4-187.8-2.8s-4.7-.8-6.1-2.5c28.7,3.6,58.2,4.7,87.4,5.2Z"/>
  <path class="st22" d="M324.5,974.9c-2.2-.3-2.5-1.4-2.8-1.4l2.8,1.4Z"/>
  <path class="st75" d="M827.4,923.3c10.2,1.4,20.7,1.7,30.6,4.4,9.9,2.8,10.8,5,17.1,6.9,3,2.2,1.1,11-2.2,12.4s-3.6,0-4.7.3c-37.2,17.1-107.5,13.5-150,11.9s-4.4.8-1.9-2.8c8.8,0,21.8,2.5,31.2,2.8,37.5.6,76.1-1.7,111.9-10.8,16.8-8.8,11.6-15.7-16-21.2h-1.4l-8-1.4h-2.8l-3.9-2.8v.3Z"/>
  <path class="st31" d="M352,512.2c5.5,5-9.4,48.5-14.1,56.2-23.2,37.5-77.5,13.2-96.5-16.5-20.1-31.4-6.1-62.9,11.6-91.5l99,51.8Z"/>
  <path d="M668.5,738.9c2.8-17.1,30.9-24.3,38.3-7.2,6.3-1.9,7.2-8,15.4-9.1,8.3-1.1,20.4.8,24.5,12.1,4.1,11.3,3.9,50.2,2.5,61.2s-.6,4.7-1.9,4.7h-20.4v-53.5c0-2.5-6.6-2.5-6.6,0v51.6l-1.9,1.9h-20.4v-53.5c0-2.5-6.6-2.5-6.6,0v51.6l-1.9,1.9h-20.4v-61.5l-.6-.3Z"/>
  <path d="M605.7,800.4c-1.7-.6-1.9-3-1.9-4.7-1.4-10.8-.8-36.7,0-47.4,4.7-43.3,69.8-27.8,54.9,11-3.3,8.3-17.9,17.1-26.2,14.3-8.3-2.8-3-16-2.2-18.7s9.1-1.4,6.6-9.4c-2.5-8-10.5-1.7-10.5,2.5v52.1c-5.2-1.1-16,1.4-20.4,0l-.3.3Z"/>
  <path class="st127" d="M658.1,828.2c.8,1.1,1.4,1.1,1.4,0,.6-6.6-3-15.4,5.2-13.2v28.4c0,.8-2.5,3-4.7.6-2.2-2.5-5.5-16-6.6-16l-.6,17.1c-1.1.6-3.9-1.1-3.9-1.9v-28.4c6.1-1.1,7.4,8.3,9.4,13.2l-.3.3Z"/>
  <path class="st94" d="M615.6,815c5.5,0,11-1.7,13.5,4.4s-2.8,9.6-2.8,13.2,5,11.6,3.6,12.7c-5,4.4-6.6-12.7-8.5-13.2-3-1.1-1.9,3-1.9,4.7v8.5h-3.9v-30.3h0Z"/>
  <path class="st91" d="M733.6,818.8c0,.6,1.4,1.1,1.4,1.4,1.4,1.1,2.5,3.3,2.8,6.6,13.8,2.8,11.9,21.8-.6,13.5l-2.2,1.1h-1.4c-9.6,6.3-15.2-3.6-9.4-11.9-6.3-9.6.8-17.4,9.4-10.8Z"/>
  <path class="st40" d="M685.9,815h3.9c.6,4.4-2.5,14.1,4.7,13.2s0-11,.6-13.2h3.9v30.3c-6.9.8-2.8-12.1-3.9-13.2-9.1-2.2-4.1,7.4-5.2,13.2h-3.9v-30.3Z"/>
  <path class="st51" d="M734.7,820.2c3.3-13.2,20.7.6,12.7,3.9s-1.7-8.8-7.4-4.7c-5.8,4.1,5.8,8.3,7.2,9.9,4.1,4.7,2.2,14.3-4.1,15.7s-5-2.2-8.3-3.9c.6-1.9-1.9-5.2,1.9-5.2s.8,5.5,5.2,5c4.4-.6,3-2.8,3.3-4.4.6-6.3-8-5.5-9.9-8.5-1.9-3,0-5.5-.6-8v.3Z"/>
  <path class="st51" d="M766.7,824.1c-3.3.8-3.3-2.8-4.7-3.9-5-4.4-6.1,1.4-3.9,5.2,2.2,3.9,8.8.3,8.8,11.3,0,17.4-19,3.9-14.6-.6s6.6,8.8,10.5,3.9c3.9-5-7.4-9.9-9.1-12.7-7.7-11.6,15.2-20.1,13-3.3h0Z"/>
  <path class="st73" d="M634.4,815c2.2.3,13-.8,13.2.6,1.1,6.1-5.8,2.5-9.4,3.3-.8,8,0,9.4,8,9.9-3.6,7.2-10.2-1.7-8,11.3h8.5c3,7.4-7.7,5-12.7,5.2v-30.3h.3Z"/>
  <path class="st73" d="M733.6,841.4c0,6.3-8.8,3.3-13.2,3.9v-30.3c2.5.6,12.4-.6,13.2,0s0,3,0,3.9h-9.4c-.8,8,0,9.4,8,9.9,0,5-7.4,2.8-8,3.3s-.3,7.7,0,8,5.8,0,9.4,1.4Z"/>
  <path class="st100" d="M672.7,839.5c.6,1.9,3.3,1.7,4.4.8,1.9-1.7-1.1-3.6,2.8-4.1,3.9-.6.8,8-3,9.1-3.9,1.1-6.6-.6-7.7-2.5s-1.1-22.9,0-25.1c2.8-5.8,15.2-2.8,12.7,5.2-5.5,1.4-3.6-5.2-9.4-3.9.8,5.8-1.4,15.2,0,20.4h.3Z"/>
  <path class="st82" d="M603.8,818.8c-.6-.6-6.9,1.7-3.3-3.9h12.4c1.9,5.8-3.9,3.6-3.9,3.9v24.5c0,2.2-5.2,2.2-5.2,0,0-3.6.8-23.7,0-24.5h0Z"/>
  <path class="st158" d="M708.2,815v25.1h8.5c3,7.4-7.7,5-12.7,5.2v-30.3h4.1Z"/>
  <path class="st58" d="M690.6,574.3c3.3,0,5.2,11.9,1.4,13.2-7.2,2.2-5.2-13.2-1.4-13.2Z"/>
  <path class="st118" d="M730.9,652.3c1.7,1.1,2.5,12.1-1.9,13.2-6.1-2.5-3.6-16.8,1.9-13.2Z"/>
  <path class="st6" d="M687.3,558.3c4.4.8,3,13.2.6,13.2s-1.7-11-.6-13.2Z"/>
  <path class="st98" d="M721.5,633.8c-.3,3.6.6,7.7,0,11.3-.8,6.1-4.1-.3-3.9-5.2.3-5,.8-7.4,3.9-6.1h0Z"/>
  <path class="st84" d="M705.8,609.9c.6.6,2.2,13.2-2.8,11.9-.8-.8-1.1-15.7,2.8-11.9Z"/>
  <rect class="st112" x="709.6" y="649.6" width="2.8" height="5.2"/>
  <path class="st49" d="M659.4,828.2c0,.8.6,2.8-.6,2.8s-.3-1.7-.6-2.8h1.4-.3Z"/>
  <path class="st89" d="M327.2,258c2.5,3.9,2.5,5.2,0,3.9-4.1-4.1-10.2-2.2-13.8,1.4-9.6,8.5-11.6,51.8,12.7,41.1,3,3-11,8-13.8,7.7-18.5-.8-17.9-36.4-11.6-48.5,6.3-12.1,19.3-16.3,26.7-5.8l-.3.3Z"/>
  <path class="st31" d="M430.3,211.7l-7.2-13.2c-2.8,0-6.1,13.8-8.5,10.5-.6-3,1.1-11,0-13-1.1-1.9-13.5-5-11.6-12.4,3-10.8,12.7,1.1,16.8,2.5,12.4,3.9,19.9-13.5,25.1-10.8,9.1,4.7-1.7,14.3-6.1,17.9s-5.5,2.5-6.6,3.9c-1.7,2.8-1.9,11-1.9,14.6h0Z"/>
  <path class="st3" d="M323.1,271.6c2.5,1.4,4.7,17.4.8,18.5-7.2,1.7-8.3-23.2-.8-18.5Z"/>
  <path class="st141" d="M544.2,233c-3,3.9-6.1-10.5-1.9-10.5s2.2,8.5,1.9,10.5Z"/>
  <rect class="st152" x="548.3" y="219.7" width="3.9" height="9.4"/>
  <path class="st14" d="M374.9,352.1c-1.9,3.6-3,8.3-6.6,10.5-.6-4.7,3.3-8.3,5.2-11.9,1.7-1.7,2.2-1.1,1.4,1.4Z"/>
  <path class="st129" d="M556.1,209.2c-.8,2.8,2.2,10.5-2.8,9.4.8-2.8-2.2-10.5,2.8-9.4Z"/>
  <path class="st150" d="M560.2,227.7c.6.6,1.1,8.3-.6,9.4-3.3-1.1-2.5-12.7.6-9.4Z"/>
  <path class="st33" d="M564,227.7c-4.7,1.1-3-7.4-.6-9.4l.6,9.4Z"/>
  <path class="st44" d="M380.1,342.7c-1.9,3-3.6,6.1-5.2,9.4l-1.4-1.4c1.7-3.3,3.6-6.1,5.2-9.4,0,0,1.4,1.4,1.4,1.4Z"/>
  <path class="st36" d="M556.1,243.4c-3.6-.8-3.6-6.6-.6-8,3-1.4,1.7,6.6.6,8Z"/>
  <path class="st35" d="M411.9,353.4l-5.2,10.5c0-4.4,2.5-8,3.9-11.9l1.4,1.4Z"/>
  <path class="st31" d="M549.4,241l-.6,8c-2.5-1.9-2.2-5.2-1.9-8h2.8-.3Z"/>
  <path class="st42" d="M327.2,258c1.1,1.4,4.1,5,2.8,6.6-2.8,3-2.5-2.5-2.8-2.8l1.1-.6s-1.1-3.3-1.1-3.3Z"/>
  <path class="st120" d="M537.6,547.8c.6.3.8,4.7,1.7,5.2,2.2,1.7,11.3-6.6,10.5,9.9s-15.2,8.3-17.1,5.8-1.9-25.4,5-21h0Z"/>
  <path class="st69" d="M666.1,465.7c-9.9-2.8-6.6-23.4,3.3-26.5,1.9,0,4.1,11,3.9,13.5-.8,5.8-7.7,7.2-7.2,13h0Z"/>
  <path class="st58" d="M649,470.9c-4.1-2.5-3.6-20.7,3-19.6s5.8,24.8-3,19.6Z"/>
  <path class="st74" d="M569,546.7c3.6,3.6,2.5,16.3-5.2,14.1s-2.2-21.8,5.2-14.1Z"/>
  <path class="st56" d="M516.4,566.6c2.2,1.4,3,14.6-3,14.3-5.8-.8-4.7-19,3-14.3Z"/>
  <path class="st117" d="M522.4,534.6c5.5-1.1,5,15.2,1.4,16-5.8,1.1-6.6-14.6-1.4-16Z"/>
  <path class="st126" d="M595.8,509.5c1.9,1.9,1.7,13.8.3,16.8-2.8,6.3-4.4-5-4.1-8s1.1-11.6,3.9-8.8h0Z"/>
  <path class="st28" d="M606.5,505.4c1.7,1.1,2.8,13.2-1.9,14.6-4.7-1.9-2.2-17.6,1.9-14.6Z"/>
  <path class="st13" d="M628.3,480.3c2.8,0,5.2,16,1.4,15.7-3.9-.3-5.2-16-1.4-15.7Z"/>
  <path class="st20" d="M621.1,521.3h-3.9c-1.7-22.3,6.3-18.5,3.9,0Z"/>
  <path class="st29" d="M606,524.1c4.4-.8,4.4,9.9,1.4,10.5-4.4.8-4.4-9.9-1.4-10.5Z"/>
  <path class="st138" d="M605.7,491c2.8,0,2.8,10.5,0,10.5s-2.8-10.5,0-10.5Z"/>
  <path class="st101" d="M588,509.5c-1.1-3.6-2.2-7.4.6-10.5,3,2.5,3.3,9.1-.6,10.5Z"/>
  <path class="st142" d="M651.4,483c-.8,2.8,2.2,10.5-2.8,9.4.8-2.8-2.2-10.5,2.8-9.4Z"/>
  <path class="st140" d="M550.8,543.7c-3.9-1.7-3.6-8-.6-10.5l.6,10.5Z"/>
  <path class="st88" d="M322,94c-3.6,9.4-7.7,17.6-9.9,27.8-2.2,10.2-3.6,21-2.8,31.7-12.7-17.6-5.5-47.1,9.9-60.9l1.4-1.4h1.4c2.8-1.1,2.2,1.1,0,2.8Z"/>
  <path class="st155" d="M355.1,73c-4.1,16.8-3.6,35.3,0,52.1,0,1.1-2.5.8-2.8.6-1.1-.8-6.3-11.3-7.2-13.5-3.3-11.3-1.9-27,5.5-36.4,7.4-9.4,1.7-3.6,4.1-3l.3.3Z"/>
  <path class="st155" d="M393.4,104.8c-11.3-12.1-17.1-29.8-18.5-46.3,11.9,11,17.9,30.3,18.5,46.3Z"/>
  <path class="st155" d="M417.1,90.1l-22.6-40.3c-2.2-1.1,0-3.3.6-3.3s8.5,5,9.9,6.1c9.4,8.5,13.5,25.4,12.1,37.5Z"/>
  <path class="st16" d="M440.5,33.6c3,3,4.1,8.5,2.5,12.7l-19.3-13.8c3.9-5.2,12.7-3,16.8,1.1Z"/>
  <path class="st12" d="M322,91.5c.3,0,0-1.1.6-1.4,3.3-1.1,2.2,3.3-.6,3.9,0-.6.8-1.4,1.4-1.9l-1.4-.6Z"/>
  <path class="st12" d="M319.2,92.9l1.4-1.4c-.6.3-.8.8-1.4,1.4Z"/>
  <path class="st148" d="M541.7,399.8c1.7.8,6.3,9.9,9.4,11.3-6.9,7.2-11.6,15.4-21.2,19.3-1.1,3-3.6,0-3.9-2.8-4.4,1.7-7.7-8.3-3.9-10.5.8-3,3-5.8,7.2-8.5,3-5,6.3-8,10.2-8.8,0-2.8,1.9-2.5,2.8,0h-.6Z"/>
  <path class="st7" d="M578.1,398.4c1.4,0,16,14.1,16.3,15.2.6,3-12.4,12.1-15.2,12.1s-9.6-11.9-12.4-13.8l11.3-13.5Z"/>
  <path class="st77" d="M536.2,443.3c-5.2-1.4-.8-4.7,2.8-5.2,9.9-3,11.6-11.3,19.3-17.1l9.9,11.3c-3.9,2.2-26.2,16.8-27.8,16s-2.5-3.9-3.9-4.7l-.3-.3Z"/>
  <path class="st77" d="M549.4,391.8c-2.5-2.2-3.9-4.4,0-5.2-2.8-3.3,4.7-9.9,8-8-.6-3,.6-3.9,2.8-1.4l10.5,12.7c-2.5,1.7-9.6,10.8-11.3,11s-8.8-7.4-9.6-9.1h-.3Z"/>
  <path class="st61" d="M525.7,445.8l5.2,8.5c-2.5,1.1-10.5,8.3-11.9,8.5s-4.4-.6-5.2-1.4c-3.6,1.1-4.4-1.1-2.8-3.9-1.4-.8-1.9-4.7,1.4-3.9-2.5-3.3,7.4-10.8,10.5-8,0-2.2.6-2.2,2.8,0h0Z"/>
  <path class="st11" d="M525.7,431.5c1.9-2.5,8,6.1,9.6,8.3s-3.3,3.6-4.1.8c-.6,0-.8,1.1-1.4,1.4-5.2,7.4-8.8-1.1-10.5-6.6,2.2-1.1,4.4-2.5,6.6-3.9h-.3Z"/>
  <path class="st153" d="M525.7,427.3c1.9,2.8,3.9,2.5,3.9,2.8,4.4,6.1.8,10.5,9.4,8-3.3.8-2.2,4.4-2.8,5.2s-7.4,0-5.2-2.8c.6-.3,2.8.8,2.8-.6-1.4-2.2-5.5-8.3-8-8.5-.3,4.7-1.1,1.4-3.9,3.3s2.8,6.6,2.5,9.9c1.7-1.4,3.6-1.7,5.2-2.8.8,3-1.9,2.8-3.9,3.9s-2.2-.3-2.8,0c-3.3,1.1-6.1-5-6.6-8-3-1.7-2.2-4.1,1.4-3.9-1.1-4.4,6.1-6.6,8-2.8-3-1.4-3-2.8,0-3.9Z"/>
  <path class="st66" d="M560.2,355.9c2.5,2.2,3.6,14.9,8,6.6-1.1,2.8-1.1,5.2,0,8-4.7-2.2-5.2,3.6-8,6.6s-2.2.8-2.8,1.4c-3.9,0-4.7-3.6-1.4-5.2q1.1-1.3,0,0c-3,2.8-5-.8-5.2-3.9-3-1.7-2.5-2.2,0-3.9.6-3,3.6-8.3,6.6-9.4h2.8v-.3Z"/>
  <path class="st27" d="M542.8,378.5c1.9,2.8,4.1,5.5,6.6,8-1.1,1.7-.8,3.6,0,5.2l-2.5-1.4c.3,3.6-4.1,5.2-5.2,6.6-1.4-1.4-1.7-1.7-1.7-3.6s3,0,1.7,3.6v2.8h-2.8c-2.2.6-4.1-.8-5.2-4.7l-2.8-1.9c-3.3-1.7-2.8-5.2,1.4-5.2-.8-.8-1.4-1.7-1.1-2.8l7.7-6.6c0-3.9,3-3.6,3.9,0h0Z"/>
  <path class="st7" d="M460.9,461.8c.8,2.8,6.9,7.7,6.6,9.6s-6.9,7.2-8.3,8.8-3,6.1-3.3,6.6c.8,3.9-3.9,4.7-5.2,1.4-1.9-3.3-8.8-6.1-9.1-6.9-2.5-4.4,13.5-15.7,15.7-19.6,0-3.6,2.8-2.8,3.9,0h-.3Z"/>
  <path class="st77" d="M488.8,441.9c3.9-1.1,6.6,6.1,5.2,9.4,2.5.6,1.9,5-1.4,3.9,1.7,3.6-7.2,9.6-10.5,9.4-6.9,3.3-7.7-7.2-13.2-9.4-1.9,0-1.7-5,1.4-3.9-1.1-5,10.2-10.2,14.6-10.5,0-3,5.5-1.9,3.9,1.4v-.3Z"/>
  <path class="st136" d="M463.4,493.5c4.4-4.4,6.6-10.8,12.7-13,1.9-.6,5.5,6.1,7.2,7.7,1.7,1.4,1.4,1.9-.6,1.4-3.6,4.4-7.2,8.5-11,13l-5.8-5c-3.6,1.7-4.4,0-2.8-3.9l.3-.3Z"/>
  <path class="st15" d="M499.3,464.6c1.4,3.9-7.4,11.6-10.5,8-1.4-1.4-9.1-2.5-6.6-8,2.5-5.5,7.2-6.3,10.5-9.4.3-1.1,1.1-2.2,2.5-2.2s8,11.3,4.1,11.3v.3Z"/>
  <path class="st68" d="M503.1,464.6c3-.3,4.1,1.4,2.8,3.9,0,1.1-.3,3,0,3.9-8.5,1.9-10.8,13.2-17.6,2.8s.6-2.5.6-2.8c4.1-1.9,6.9-5.8,10.5-8-1.1-4.4,2.5-3,3.9,0v.3Z"/>
  <path class="st113" d="M483.3,488.3s1.4,0,2.2.6c1.9,1.7,3.9,4.4,5.8,6.1l-8-5.2c-1.4,5-7.7,7.7-10.5,12.7l2.8.6c-3.3,6.9-6.3-3.3-10.5-5.2h1.4c2.5.6,4.7,3,6.6,2.2s8.3-8.8,10.5-11.3l-.3-.3Z"/>
  <path class="st85" d="M455.7,486.9c0,1.9,3,5,4.4,6.1s3,0,3.6.6.6,3.6,2.8,3.9h-2.8l-1.4,1.4v1.4l-1.4,1.4c-.6,1.7-.8,3.6-1.4,5.2-.6,0-1.9,1.1-2.8,1.4-.8-4.4-3.9-3.6-7.2-6.6l-1.9,2.5v-5.2c1.1-1.7,1.7-3,3.9-2.8,6.1,11.6,8.3-4.7,1.4-1.4-5,.8-.3-2.5-2.8-6.6,1.4,0,4.4-.3,5.2-1.4l.3.3Z"/>
  <path class="st32" d="M470,451.3c-.8.6-1.1,3.9-1.4,3.9s-2.5-.3-3,.3c-1.4,1.1-4.7,3.3-5,3.6q-.6-3.1,0,0v2.8h-3.9c0-3.3-3.3-9.4-6.6-9.4-2.2-1.4-1.9-2.2,0-3.9,1.4-2.5,6.3-8,9.4-5.2-.6-3.9,1.9-4.1,3.9-1.4,2.8,3,5,6.1,6.6,9.4h0Z"/>
  <path class="st113" d="M462.3,508.1c1.9-2.8,12.4,3.3,5.2,2.8-.8-.6-4.4-2.2-5.2-2.8Z"/>
  <path class="st113" d="M460.9,501.5l1.4-1.4c-.6.8-1.4,1.1-1.4,1.4Z"/>
  <path class="st113" d="M462.3,498.7l1.4-1.4-1.4,1.4Z"/>
  <path class="st79" d="M143.3,931.3c1.1.3,1.1.8,0,1.4-14.6,4.7-21,14.3-2.8,20.4,22.9,7.7,76.4,11.6,100.6,11.3-7.4,3.3-14.9,0-21.8,0-25.9-.8-54-1.7-78.9-7.2-24.8-5.5-2.2-3.3-5.5-3.9s-5.2.6-6.9,0-9.6-6.1-9.9-6.6c-3-5.2,10.8-13.2,14.6-14.6,3.9-1.4,6.6-.3,8.8-2.5.6.3,1.1,1.4,1.4,1.4l.3.3Z"/>
  <path class="st38" d="M307.4,965.8c-1.9,1.4-5.2,2.2-7.7,2.5-24.5,1.7-49.9,1.9-75,1.7-25.1-.3-5.8.8-7.2-1.4,30.1.8,59.8-1.9,89.9-2.8Z"/>
  <path class="st79" d="M303.5,959.2c2.5,3.6,1.4,2.5-1.9,2.8-16.5.6-33.4,2.8-50.2,4.1s-6.9.8-8.5-1.4c6.9,0,15.2-2.8,20.4-2.8h22.6c4.7,0,13.5-4.1,17.9-2.8h-.3Z"/>
  <path class="st64" d="M438.3,430.1c3,0,13.8,15.4,13,16.8s-.8,1.1-1.1,1.7c.3.6.8,1.1,1.1,1.9,0,.8-.6,1.4-1.1,1.9-4.7,6.1-14.9,12.4-19.3,19.9l-17.6-15.7c-2.5-1.9-1.1-3.6,3.9-5.2-.6-.8-1.1-2.2-.3-3,6.9-5.5,9.6-9.6,13.8-17.9,1.1-.6,2.5-.8,3.6-.3,1.1-1.1,2.8-1.1,3.9,0h.3Z"/>
  <path class="st11" d="M452.9,494.9c.3-.6-.8-2.5.6-2.8,3-.3,5.5,2.5,8.5,2.8.8,3.6-1.9,1.9-3,4.4s.6,4.7,0,4.7c-1.9,1.1-8-2.5-9.9-3.9-.8-1.1,1.4-2.5,1.9-3.9s1.1-.8,1.4-1.4h.6Z"/>
  <path class="st43" d="M417.1,451.3c-1.7,1.7-3.6,5-3.9,5.2-2.5,2.2-9.6,4.7-6.6,8-.3-.3-1.7-.6-1.9-1.4-.6.6-1.7.8-1.9,1.4,1.4-4.4-5.5-6.1-2.8-9.4l1.7-.6c3.6,4.1,7.2,1.7,4.7-3s-.3-2.2,0-3l1.4-1.4,1.7-.6c2.2,1.9,4.7,3.3,7.4,4.7h.3Z"/>
  <path class="st148" d="M175,431.5c.8-.8,13.8-9.9,14.6-9.4l6.6,16c1.4,1.7,1.4,4.7-1.4,3.9-1.4,1.7-11.6,11.9-12.7,11.9-2.2-4.4-10.8-18.7-7.2-22.3Z"/>
  <path class="st7" d="M209.5,406.4c5-.6,3.3,0,4.1,3s3.6,9.9,3.3,10.8c-.3,2.8-9.1,6.1-10.2,9.9-2.2,3.9-4.1,1.7-3.9-2.8-.3-4.4-3.6-9.4-5.2-13.2,5-.8,8.3-5.5,11.9-8v.3Z"/>
  <path class="st5" d="M202.9,427.3c.3,2.2,3.9,2.5,3.9,2.8s-.8,1.4-.6,2.8c.8,3,4.1,5.8-.8,5.2-6.9-1.9-4.7,11.3-.6,3.9h3c.3-.6-.3-2.2,0-2.8s2.2,1.4,2.8,1.4v6.6c-.6-.8-1.7-2.8-1.9-2.8-3,3.3-6.1,4.4-6.1,9.4-1.4,3.6-4.1,2.5-3.9-1.4,1.1-3.6-.8-8.5-3.9-10.5.8-1.1.8-3.3,1.4-3.9,3-3.9,7.2-3,6.6-10.5v-.3Z"/>
  <path class="st143" d="M148.6,931.3c-1.4,1.9-3.9.8-5.2,1.4v-1.4h5.2Z"/>
  <path class="st34" d="M859.3,948.4c16.8-14.9-4.7-15.7-16-21.2,5.8.6,10.8,1.4,16.3,3s9.9,3.6,10.5,4.1c6.6,8.8-4.1,12.4-10.8,14.1Z"/>
  <path class="st34" d="M842,927.5c-2.5,0-6.6.8-8-1.4,2.5,0,6.3-1.1,8,1.4Z"/>
  <path class="st132" d="M202.9,453.8c0,4.7,4.7,10.5,3.9,13.8s-11,7.4-13.2,8.8-2.2-.3-2.8,0c-3.6,2.2-7.2-6.9-3.9-9.4,0,0,0-1.9.8-2.5,4.1-3.6,9.1-6.3,11-12.1l3.9,1.4h.3Z"/>
  <path class="st11" d="M186.9,467l3.9,9.4c-.8.6-7.7,6.1-8,6.6-1.9-2.8-2.8-6.6-3.9-9.4-.3-4.7,6.1-5.2,8-6.6Z"/>
  <path class="st15" d="M170.9,433.9c0,.3-5.2,1.9-5.8,4.1-.6,0-5-8.8-4.7-9.1s6.6-1.9,8-3.9c-.8,2.5,3.3,8,2.5,9.1v-.3Z"/>
  <path class="st4" d="M325.8,402.2s1.4,2.5,1.4,2.8-2.8,6.1-3,6.3c-.6.6-1.7,0-2.2.3q-2.2-1.7,0,0c0,.8,1.4,2.8,1.4,3.9-.8,0-3.6.8-3.9,1.4,0-4.7-5.5-4.4-8-6.6s-1.7-3.6-3.9-5.2l5.2,1.4c.3-2.8,1.4-6.9,2.8-9.4s2.5-.8,2.8-1.4c0,4.7,5.8,4.4,8,6.6h-.6Z"/>
  <path class="st135" d="M798.4,951.2c5.2-.8,27-5.2,29.8-8,7.2-6.9-5.8-8.5-9.9-9.4-15.7-3-38.6-6.3-54.3-5.2,1.4-2.2,5-1.4,7.2-1.4,16.8,0,36.4,0,52.7,4.4,16.3,4.4,17.4,5,11.9,12.4s-23.2,6.6-27.3,6.9c-4.1.3-6.6,0-9.6,0l-.3.3Z"/>
  <path class="st15" d="M434.5,430.1c-3.3,3.6-7.2,13-11.9,17.9s-4.4,2.5-5.2,3.3c-5.5,2.5-6.3-.3-9.4-3.9-3-3.6.3-2.2,0-2.8,9.6-7.2,15.2-16.3,21.2-26.5,1.1,3.6,5,7.7,5.2,11.9Z"/>
  <path class="st11" d="M425.1,403.6l6.1-6.6c1.4.6,5.2,10.2,4.4,11.6s-6.3,5-7.7,2.8v-1.4l-2.8-5.2v-1.4.3Z"/>
  <path class="st39" d="M427.8,410.2c-2.5-1.1-1.9-3.6-2.8-5.2,2.2,1.4,1.9,3.3,2.8,5.2Z"/>
  <path class="st15" d="M537.6,337.4l10.5-2.8-8-1.4,1.4-5.2c4.1,2.5,7.2.6,8,5.2.8,4.7.8,6.6,1.9,10.5,1.1,3.9,5.8,9.9,5.8,11.9s-3,9.4-6.6,9.4-6.1-2.8-8.5-8.3c-2.8,6.6-6.1,9.4-9.9,8.3-.6,1.7-7.4-5.5-7.4-6.1s.3-1.1.8-1.7c3.3-6.3,9.1-13.2,11.9-19.9h.3Z"/>
  <path class="st5" d="M523,355.9c.3.6,2.2.8,2.8,1.4,1.9,3,6.3,7.4,6.6,8,3.6,1.1,3.6,2.8,0,3.9,0,3.6-5.2,8-8,3.9-2.2-.3-1.9-3.9-1.1-3.3s1.1,2.5,1.1,3.3c3.6.6,3.6,3,0,3.9-2.8,1.7-3.3,0-3.9-2.8h-3c-2.5-6.6-5.5-11.3-11.6-14.6,1.7-1.9,5-2.8,3.9-6.6,3.6,4.4,10.8,12.1,13.2,2.8v.3Z"/>
  <path class="st11" d="M488.8,385.1l1.7-2.5,5,9.1c1.9.8.8,3.9-1.4,3.9,2.8,5-10.2,13.2-13.2,8,0-.6-4.4-8-5.2-9.4,3.6-5.2,9.4-3.3,13.2-9.4v.3Z"/>
  <path class="st153" d="M499.3,369.2c3,2.2,4.7,6.1,5.2,11.9,2.5,1.9,2.8,4.7,0,6.6-2.2,4.4-5,6.9-8,8-.6,3.6-1.7,3.3-2.8,0,.8-1.1.8-3.3,1.4-3.9v-3.6c2.8-2.2,2.2.8,0,3.6h-2.8c1.7-1.4-1.7-7.4-3.9-6.6,1.1-1.9.8-4.7,1.4-5.2,1.9-3,6.3-3.6,6.6-10.5h2.8v-.3Z"/>
  <path class="st15" d="M222.7,402.2c1.1,3.3,2.8,7.2,2.8,10.5s-4.7,3.6-8,6.6c.8-4.4-3.6-9.9-2.8-13.8.8-3.9,7.2-2.8,8-3.6v.3Z"/>
  <path class="st93" d="M205.3,438.1c.3,1.7,1.4,3,2.8,3.9-.8,1.4-5.2,7.7-7.2,5.2s-3.3-6.3-2.8-8,5-5.2,5.2-5.2c4.4-.8,1.9,3.6,1.9,3.9v.3Z"/>
  <path class="st110" d="M472.8,415.5c4.1-1.7,7.7,8.5,6.6,11.9,3,1.4,2.2,4.7-1.4,5.2-1.1,3.9-10.8,11.6-14.6,9.4-1.4.8-3.3.8-3.9,1.4-1.1.6-1.9.6-3,0s-11.6-16.5-12.7-18.5l1.1-3c1.9-1.9.6-2.8,6.6-3.9,2.2-4.4,9.4-5.8,13.2-2.8,1.9-.3,6.6-1.4,8,0v.3Z"/>
  <path class="st77" d="M496.5,395.6c3.9.8,9.9,12.4,8,16,5,1.1,3.6,2.8-4.1,5l-2.5,1.7c0,3.9-3,5.5-6.6,3.9-.6,2.8-3.6,1.4-3.9-1.4-3.6,0-9.1-8.5-6.6-11.9-1.4-3.6,0-5,0-5.2,5.8-.8,9.4-3.6,13.2-8h2.8-.3Z"/>
  <path class="st11" d="M464.8,415.5c-4.1.8-9.1,1.7-13.2,2.8-6.3,1.4-10.2-3.3-10.5-9.4,1.1-1.1,19.9,0,22.6-3.9,4.1,1.4,1.9,7.4,6.6,6.6.3-3-3.3-5.5-2.8-8.5s5.2-2.8,6.1-4.7c9.6,9.6-1.4,11.9-8.5,17.1h-.3Z"/>
  <path class="st11" d="M480.8,408.9c1.4,3.6,5.5,7.4,6.6,11.9,2.8,1.7,3.3,2.8,0,3.9l-5,4.1c0,3.3-3.3,1.7-3-1.4-3.3-1.9-5.2-10.2-6.6-11.9,0-3.3,5-5.8,8-6.6h0Z"/>
  <path class="st43" d="M403.9,448.6c.8,3.6-1.7,6.9-5.2,5.2-.6.6-2.2.8-2.8,1.4,1.1-1.7.8-3.6,0-5.2,2.8,2.8,3.9-1.9,6.3-2.5s1.7,1.1,1.7,1.1h0Z"/>
  <path class="st92" d="M520.5,374.4c1.1,5.5-5.8,4.1-9.1,1.7-1.9,3.6-4.1,5.2-6.9,5-3.3,1.1-5.8-9.1-5.2-11.9.6-2.8,4.7-6.9,6.6-9.4,6.6-4.1,12.4,9.6,14.6,14.6h0Z"/>
  <path class="st11" d="M406.6,448.6c7.7,5.2,1.7,8-1.4,13.2-1.9-1.1-3.9-4.7-5.2-6.6s0-1.7-1.4-1.4c1.7-1.4,3-4.1,5.2-5.2h2.8Z"/>
  <path class="st11" d="M508.6,469.8c1.4,1.4,7.4-4.4,8-3.9s2.8,6.6,5.2,7.2c-5.8,4.1-6.1,9.1-11.9,1.1s-1.1-3.9-1.4-4.4h0Z"/>
  <path class="st15" d="M511.1,457.9c1.7.6,2.2,3.6,2.8,3.9,2.8,5.2-8.5,4.7-5.2,8-.3-.6-2.2-.8-2.8-1.4-1.4-1.4-2.2-.8-2.8-3.9-2.8-.8-2.8-1.7,0-2.8,2.2-1.9,5.2-4.7,8-3.9Z"/>
  <path class="st111" d="M304.6,576.8c-9.4.8-19.6-1.1-27.8-6.1l22.9-64.5c.6-1.7,1.4-2.2,3-2.2s22.9,11.3,23.2,12.7l-21.2,60.1h0Z"/>
  <path class="st111" d="M272.3,488.3c3.3,1.4,17.6,8,17.6,11l-24.3,65.6c-3.3-4.4-15.2-12.4-15.2-17.9l21.8-58.7Z"/>
  <path class="st131" d="M316.7,575.7c2.8-6.3,17.6-54,20.4-54s4.1,2.2,4.4,3.3c.6,2.8-4.1,22.1-5.5,25.9-3.6,10.5-9.6,19.6-19.6,24.8h.3Z"/>
  <path class="st37" d="M243.9,506.2c.6-4.1,7.2-23.2,9.9-25.9,2.8-2.8,6.3-.6,6.9,3l-16.8,44.7c.6-6.9-.8-15.2,0-21.8h0Z"/>
  <path class="st65" d="M624.7,819.1c2.2,1.9,1.4,12.4-5.2,9.1-.8-4.1,0-13.5,5.2-9.1Z"/>
  <rect class="st62" x="549.4" y="221.1" width="1.4" height="6.6"/>
  <path class="st154" d="M531,393.1c5.2-2.8,5.5,1.9,8,6.6-4.1,6.3-10.2,14.1-17.1,17.1-4.1.6-7.7-5.8-5.2-9.4-2.5-2.5,10.8-15.7,11.9-16l2.8,1.4-.3.3Z"/>
  <path class="st63" d="M512.5,405c3-1.1,4.1-.6,3.9,2.8,1.7,2.5,3.9,6.6,5.2,9.4s1.1,6.3,3.9,10.5v3.9c-1.1,0-7.2,1.9-8,2.8l-3.3.8c-2.5-3.3-4.4-6.6-5.8-10.2-2.5.8-3.9-1.1-4.4-6.1-2.8,1.7-4.7,1.4-6.3-.6,1.1-3,4.1-3,6.3-4.4s0-2.2.3-2.2l.8-3.3c2.8-.6,5-1.4,7.2-3.3h.3Z"/>
  <path class="st144" d="M550.8,369.2c3-.6,2.8,2.5,5.2,3.9.6,1.7.8,3.6,1.4,5.2-1.7,1.7-7.4,7.2-8,8-3.9,1.9-8.8-3.6-6.6-8-3-3.6,4.1-9.6,8-9.4v.3Z"/>
  <path class="st15" d="M516.4,438.1c3-.6,5.8,5,6.6,8-1.7,1.1-8.5,6.3-10.5,8-1.1,5.8-8.3-6.1-8-6.6s.6-.8,1.4-1.4c-4.1-3.9,6.9-11,10.5-8Z"/>
  <path class="st5" d="M505.9,445.8c1.1,1.4.6,8,6.6,8-.8.6-1.1,3.6-1.4,3.9-.6.6-6.9,3.9-8,3.9q-.9-3.1,0,0v2.8c-1.7-1.1-2.5-.8-3.9,0,0-4.1-1.9-8.8-6.6-9.4.8-.8,1.1-3.6,1.4-3.9v-3c.3,0,8-3.6,8-3.6,1.9-3,3.9-2.2,3.9,1.4h0Z"/>
  <path class="st128" d="M517.7,433.9c-.3.6-.6,3.3-1.4,3.9-2.8,2.2-8.8,3.9-10.5,8,0-.3-3.3-.6-3.9-1.4-3.9,1.9-7.2-5.8-5.2-9.4-2.5-2.2-2.5-4.4,1.4-3.9-1.9-4.1,7.2-8.5,10.5-6.6,0,0,2.8,0,4.1,1.9,1.9,2.5,2.2,6.1,5.2,7.4h-.3Z"/>
  <path class="st9" d="M556.1,373.3c-.8-2.2-1.9-3.6-2.5-5.8,1.9-1.1,3.3-8.5,5.8-7.4s5.8,6.9,5.8,7.2c0,1.7-4.7,8.5-9.1,6.1h0Z"/>
  <path class="st11" d="M541.7,397c-8.3-5.2-7.4-6.9-2.8-14.6,2.5-1.1,7.7,6.6,7.7,7.2,0,1.4-5.8,4.4-5,7.2v.3Z"/>
  <path class="st15" d="M484.6,440.6s-1.4,2.2-2.8,3.3c-3.6,2.2-8.8,5-11.9,7.4-3.6-.6-9.9-5.5-6.6-9.4,5-3,8.8-7.4,14.6-9.4l2.2-2.8c.6-.3,5.8,9.9,4.4,10.8h0Z"/>
  <path class="st15" d="M496.5,435.3c2.2,3,3.9,7.4,5.2,9.4.6,5.2-6.6,5.5-8,6.6-2.8-1.7-4.1-7.7-5.2-9.4-3.6-1.4-2.8-3,2.8-5l2.8-2.8c1.7-2.2,3.3-1.4,2.8,1.4l-.3-.3Z"/>
  <path class="st153" d="M491.3,422.1c.8-.6,1.9-.8,2.8-.3l3.9,9.6c-.8.8-1.1,2.8-1.4,3.9-.3-.6-2.2-.8-2.8-1.4-1.1.6-2.5.8-3,.3-1.7-2.5-2.8-6.6-3.6-9.6l1.9,2.8c-5.2,4.1-3,10.5,1.9,5l2.8,1.4c.6,4.1-5.5,3.6-5.2,8-.6-.8-3-1.7-3.9-1.4l-4.7-8.8c-.8,0-1.4.8-1.9,1.1,1.1-1.1,1.1-5,1.4-5.2s1.4,1.1,2.8.6c1.9-1.1,2.2-2.8,5.2-3v-3.9c.8.8,3.6,1.1,3.9,1.4v-.3Z"/>
  <path class="st11" d="M444.9,422.1l14.6,21.2c-2.5,1.7-4.7,6.1-9.4,5.2-3-5.8-9.9-11.6-11.9-18.5-1.9-6.9,0-6.1,3.9-8.5s2.5.6,2.8.6h0Z"/>
  <path class="st11" d="M460.9,459c-.6,0-7.7-6.6-8-7.4-.3-1.7,5-5.5,6.1-5.8,2.5-.3,6.3,5.8,8.3,7.2-2.5,0-6.1,5.8-6.6,6.1h.3Z"/>
  <path class="st11" d="M322,411.6c-1.4.6-1.1,1.1-2.8.6s-6.3-3-6.6-3.3c-.8-1.1,3.6-6.9,2.8-9.4,14.1,3.6,6.9,5.5,6.6,11.9v.3Z"/>
  <path class="st11" d="M440.8,419.3c0,.3-5.5,4.7-6.3,4.1-3.6-8.3-5.5-8.5,3.9-13.2-.8,3,3.9,6.1,2.5,9.1h0Z"/>
  <path class="st77" d="M550.8,365.3c.8,1.7.8,2.5,0,3.9-1.7,3-6.3,5.8-8,9.4h-3.9c-3.9.8-8.5-5.8-6.6-9.4-.3-.6.3-3.3,0-3.9,4.1-2.8,7.4-8.5,9.4-13.2.6-.6,8.8,12.1,9.4,13.2h-.3Z"/>
  <path class="st110" d="M520.5,374.4c3,0,2.5.8,3.9,2.8,3.9-1.4,9.4,7.2,8,10.5-.6,1.1-.8,3.9-1.4,5.2-5,2.8-9.4,11-14.6,14.6,0,0-2.5,0-3.9-2.8-4.4,1.1-11.3-14.1-8-17.1-1.1-3.3-1.1-3.6,0-6.6s5-7.4,6.1-7.7,3.6,1.9,5.5,2.2,3.3-1.1,4.4-1.1h0Z"/>
  <path class="st18" d="M532.3,369.2c1.9,3.3,5,5.2,6.6,9.4s-4.7,6.1-6.6,9.4c-3.3-3-5.2-7.2-8-10.5,0-1.1-.3-3,0-3.9,3.6-.3,4.4-3.9,8-3.9v-.6Z"/>
  <path class="st11" d="M524.3,373.3c-3.9.6-4.7-6.9-8-9.4l8.5-3.9c8.8,8.5.8,8.5-.6,13.2h0Z"/>
  <path class="st11" d="M495.4,391.8c1.1-1.1-4.7-8-4.1-11,.6-3,6.3-4.1,6.1-7.4,1.7,2.5,5,8.3,4.4,11-.6,4.1-5,5.5-6.3,7.4Z"/>
  <path class="st92" d="M504.5,387.6c1.1,3.3,6.1,14.1,8,17.1,1.7,5.8-5.2,4.7-8,6.6-2.2-2.8-8-13.2-8-16s5.5-11.6,8-8v.3Z"/>
  <path class="st92" d="M497.9,418.2c1.4-.6,7.4-3,8-2.8.8.6,2.5,8.8,2.8,9.4-2.2,2.5-8.8,4.7-10.5,6.6-5.2.6-5.2-7.7-6.6-9.4,2.2-2.2,3.9-2.8,6.6-3.9h-.3Z"/>
  <path class="st92" d="M515.2,410.2l2.8,9.4c-6.6,2.5-8.8,0-10.5-6.6l8-2.8h-.3Z"/>
  <path class="st11" d="M503.1,461.8c-2.8.3-6.9-8-6.6-8.5s7.4-6.3,8-6.1c-.8,2.8,5.8,8.8,5.2,9.4s-5.5,1.4-6.6,5.2h0Z"/>
  <path class="st11" d="M487.4,424.8c4.1-.6,4.7,6.6,6.6,9.4-.6-.6-5.5,5.5-8,3.3s-3.6-6.3-3.6-6.6c0-1.9,4.4-1.4,5-6.1Z"/>
</svg>